{"glyphs":{"0":{"ha":1000,"x_min":0,"x_max":0,"o":"m 500 -17 b 936 486 774 -17 936 167 b 500 989 936 807 774 989 b 64 486 226 989 64 806 b 500 -17 64 165 226 -17 z m 500 794 b 690 588 618 794 690 722 l 690 385 b 500 178 690 251 618 178 b 308 385 382 178 308 251 l 308 588 b 500 794 308 722 382 794 z "},"1":{"ha":775,"x_min":0,"x_max":0,"o":"m 44 0 l 764 0 l 764 213 l 533 213 l 533 972 l 324 972 l 44 889 l 44 872 l 268 939 b 303 919 289 946 303 942 l 303 213 l 44 213 z "},"2":{"ha":874,"x_min":0,"x_max":0,"o":"m 33 6 l 33 0 l 825 0 l 825 213 l 344 213 b 335 222 338 213 335 217 b 344 236 335 228 338 231 l 432 307 b 644 457 517 372 569 410 b 825 710 774 536 825 601 b 433 989 825 878 697 989 b 36 681 199 989 36 865 l 36 615 l 268 615 l 268 671 b 433 801 268 756 326 801 b 589 660 535 801 589 751 l 589 594 b 431 329 589 500 558 433 z "},"3":{"ha":901,"x_min":0,"x_max":0,"o":"m 853 265 b 550 499 853 451 690 490 b 838 718 718 508 838 581 b 458 989 838 889 707 989 b 60 682 207 989 60 867 l 60 640 l 283 640 l 283 675 b 454 806 283 757 343 806 b 617 674 557 806 617 760 l 617 635 b 503 507 617 557 574 507 l 321 507 l 321 490 l 503 490 b 626 343 585 490 626 444 l 626 303 b 453 167 626 217 576 167 b 279 288 343 167 279 203 l 279 322 l 50 322 l 50 282 b 444 -17 50 86 190 -17 b 853 265 701 -17 853 82 z "},"4":{"ha":915,"x_min":0,"x_max":0,"o":"m 826 0 l 826 232 l 911 232 l 911 249 l 826 249 l 826 643 l 583 643 l 583 249 l 294 249 b 278 274 278 249 271 258 l 578 972 l 331 972 l 14 232 l 583 232 l 583 0 z "},"5":{"ha":917,"x_min":0,"x_max":0,"o":"m 468 -17 b 865 319 704 -17 865 115 b 543 614 865 508 749 614 b 306 506 446 614 353 586 l 329 765 l 826 765 l 826 972 l 132 972 l 90 451 l 297 451 b 463 565 314 507 351 565 b 628 406 568 565 628 508 l 628 317 b 458 167 628 221 565 167 b 288 283 350 167 288 210 l 288 307 l 65 307 l 65 274 b 468 -17 65 89 206 -17 z "},"6":{"ha":963,"x_min":0,"x_max":0,"o":"m 903 319 b 578 610 903 510 772 610 b 311 433 438 608 338 553 l 311 607 b 496 804 311 733 375 804 b 654 685 594 804 654 758 l 654 667 l 885 667 l 885 690 b 494 989 885 875 740 989 b 57 485 207 989 57 811 b 496 -17 57 151 214 -17 b 903 319 742 -17 903 124 z m 488 167 b 317 321 379 167 317 225 l 317 365 b 492 553 317 499 390 553 b 658 390 604 553 658 496 l 658 319 b 488 167 658 225 594 167 z "},"7":{"ha":738,"x_min":0,"x_max":0,"o":"m 760 967 l 760 972 l 17 972 l 17 736 l 585 736 b 596 710 597 736 604 725 l 206 0 l 226 0 z "},"8":{"ha":938,"x_min":0,"x_max":0,"o":"m 468 -17 b 897 267 735 -17 897 88 b 529 493 897 413 760 483 b 867 717 742 504 867 571 b 468 989 867 888 717 989 b 71 718 219 989 71 889 b 407 493 71 572 196 504 b 42 267 178 483 42 413 b 468 -17 42 88 201 -17 z m 468 813 b 644 675 583 813 644 765 l 644 642 b 468 501 644 551 583 501 b 293 642 354 501 293 551 l 293 675 b 468 813 293 765 354 813 z m 468 486 b 656 344 592 486 656 439 l 656 304 b 468 158 656 210 592 158 b 282 304 347 158 282 210 l 282 344 b 468 486 282 439 347 486 z "},"9":{"ha":963,"x_min":0,"x_max":0,"o":"m 60 653 b 385 363 60 463 190 363 b 651 539 525 364 625 419 l 651 365 b 467 168 651 239 588 168 b 308 288 368 168 308 214 l 308 306 l 78 306 l 78 282 b 468 -17 78 97 222 -17 b 906 488 756 -17 906 161 b 467 989 906 821 749 989 b 60 653 221 989 60 849 z m 475 806 b 646 651 583 806 646 747 l 646 607 b 471 419 646 474 572 419 b 304 582 358 419 304 476 l 304 653 b 475 806 304 747 368 806 z "},"\u0000":{"ha":0,"x_min":0,"x_max":0,"o":""},"\r":{"ha":0,"x_min":0,"x_max":0,"o":""}," ":{"ha":292,"x_min":0,"x_max":0,"o":""}," ":{"ha":292,"x_min":0,"x_max":0,"o":""},"A":{"ha":975,"x_min":0,"x_max":0,"o":"m 717 0 l 961 0 l 669 972 l 307 972 l 14 0 l 249 0 l 332 276 b 356 296 336 292 342 296 l 614 296 b 635 282 625 296 631 292 z m 349 335 l 485 790 l 619 332 b 606 313 622 321 619 313 l 363 313 b 349 335 349 313 344 322 z "},"B":{"ha":1003,"x_min":0,"x_max":0,"o":"m 122 0 l 617 0 b 950 264 819 0 950 92 b 636 506 950 408 872 494 b 915 724 850 518 915 607 b 624 972 915 886 808 972 l 122 972 z m 358 533 l 358 797 l 558 797 b 681 686 636 797 681 758 l 681 628 b 553 513 681 554 639 513 l 379 513 b 358 533 363 513 358 525 z m 358 475 b 379 496 358 482 363 496 l 554 496 b 700 372 642 496 700 458 l 700 306 b 569 186 700 229 654 186 l 358 186 z "},"C":{"ha":1042,"x_min":0,"x_max":0,"o":"m 732 385 l 732 358 b 539 178 732 240 672 178 b 319 407 392 178 319 258 l 319 572 b 539 794 319 717 401 794 b 732 625 667 794 732 724 l 732 593 l 974 593 l 974 625 b 539 989 974 840 829 989 b 65 486 222 989 65 814 b 539 -17 65 154 222 -17 b 974 358 836 -17 974 149 l 974 385 z "},"D":{"ha":1072,"x_min":0,"x_max":0,"o":"m 122 0 l 599 0 b 1006 486 856 0 1006 192 b 599 972 1006 781 856 972 l 122 972 z m 549 778 b 756 568 690 778 756 708 l 756 404 b 549 194 756 264 690 194 l 353 194 l 353 778 z "},"E":{"ha":883,"x_min":0,"x_max":0,"o":"m 122 0 l 826 0 l 826 213 l 364 213 l 364 475 b 385 496 364 482 368 496 l 793 496 l 793 513 l 385 513 b 364 533 368 513 364 525 l 364 760 l 813 760 l 813 972 l 122 972 z "},"F":{"ha":814,"x_min":0,"x_max":0,"o":"m 122 0 l 364 0 l 364 411 b 385 432 364 419 368 432 l 749 432 l 749 449 l 385 449 b 364 469 368 449 364 461 l 364 760 l 774 760 l 774 972 l 122 972 z "},"G":{"ha":1056,"x_min":0,"x_max":0,"o":"m 464 465 l 464 449 l 722 449 b 743 428 738 449 743 443 l 743 357 b 542 178 743 238 672 178 b 319 407 393 178 319 257 l 319 572 b 544 794 319 715 407 794 b 743 626 675 794 743 735 l 743 597 l 982 597 l 982 631 b 544 989 982 844 828 989 b 65 486 224 989 65 803 b 542 -17 65 156 222 -17 b 982 364 842 -17 982 149 l 982 465 z "},"H":{"ha":1114,"x_min":0,"x_max":0,"o":"m 122 0 l 364 0 l 364 475 b 385 496 364 482 368 496 l 728 496 b 749 475 744 496 749 482 l 749 0 l 992 0 l 992 972 l 749 972 l 749 533 b 728 513 749 525 744 513 l 385 513 b 364 533 368 513 364 525 l 364 972 l 122 972 z "},"I":{"ha":486,"x_min":0,"x_max":0,"o":"m 122 0 l 364 0 l 364 972 l 122 972 z "},"J":{"ha":922,"x_min":0,"x_max":0,"o":"m 814 299 l 814 972 l 160 972 l 160 956 l 554 956 b 575 935 569 956 575 949 l 575 293 b 438 172 575 213 528 172 b 296 286 347 172 296 211 l 296 414 l 65 414 l 65 272 b 435 -17 65 90 203 -17 b 814 299 683 -17 814 100 z "},"K":{"ha":1014,"x_min":0,"x_max":0,"o":"m 122 0 l 358 0 l 358 375 l 492 525 l 743 0 l 1008 0 l 668 725 l 836 914 b 913 956 868 950 881 956 l 971 956 l 971 972 l 122 972 z m 817 956 b 832 942 828 956 832 950 b 817 917 832 935 829 931 l 358 400 l 358 956 z "},"L":{"ha":814,"x_min":0,"x_max":0,"o":"m 122 0 l 793 0 l 793 213 l 364 213 l 364 972 l 122 972 z "},"M":{"ha":1386,"x_min":0,"x_max":0,"o":"m 343 0 l 343 750 l 674 -17 l 688 -17 l 1022 933 l 1022 0 l 1264 0 l 1264 972 l 1017 972 l 803 365 b 783 346 799 353 794 346 b 764 365 774 346 769 353 l 501 972 l 122 972 l 122 0 z "},"N":{"ha":1035,"x_min":0,"x_max":0,"o":"m 439 972 l 122 972 l 122 0 l 347 0 l 347 707 l 906 -26 l 919 -26 l 919 972 l 901 972 l 901 415 b 888 397 901 403 896 397 b 864 414 879 397 876 399 z "},"O":{"ha":1089,"x_min":0,"x_max":0,"o":"m 544 -17 b 1024 486 858 -17 1024 158 b 544 989 1024 815 858 989 b 65 486 231 989 65 814 b 544 -17 65 157 231 -17 z m 544 794 b 775 572 682 794 775 717 l 775 407 b 544 178 775 257 690 178 b 314 407 399 178 314 257 l 314 572 b 544 794 314 717 407 794 z "},"P":{"ha":979,"x_min":0,"x_max":0,"o":"m 122 0 l 364 0 l 364 322 b 385 343 364 329 368 343 l 608 343 b 933 635 807 343 933 432 b 624 972 933 839 811 972 l 122 972 z m 563 783 b 688 658 644 783 688 738 l 688 485 b 561 360 688 403 646 360 l 385 360 b 364 381 368 360 364 372 l 364 783 z "},"Q":{"ha":1089,"x_min":0,"x_max":0,"o":"m 544 -17 b 740 13 618 -17 683 -7 l 840 -196 l 860 -196 l 757 18 b 1024 486 932 83 1024 243 b 544 989 1024 815 858 989 b 65 486 231 989 65 814 b 544 -17 65 157 231 -17 z m 544 794 b 775 572 682 794 775 717 l 775 407 b 668 203 775 307 738 238 l 536 476 l 517 476 l 651 196 b 544 178 621 183 585 178 b 314 407 399 178 314 257 l 314 572 b 544 794 314 717 407 794 z "},"R":{"ha":1008,"x_min":0,"x_max":0,"o":"m 122 0 l 364 0 l 364 413 b 385 433 364 419 368 433 l 425 433 b 458 413 442 433 446 431 l 714 0 l 989 0 l 761 361 l 535 361 b 497 383 517 361 507 367 l 465 433 l 615 433 b 942 689 815 433 942 493 b 632 972 942 885 819 972 l 122 972 z m 581 783 b 700 674 657 783 700 742 l 700 560 b 581 450 700 490 658 450 l 385 450 b 364 471 368 450 364 463 l 364 783 z "},"S":{"ha":979,"x_min":0,"x_max":0,"o":"m 485 800 b 656 679 610 800 656 760 l 656 614 l 904 614 l 904 675 b 485 989 904 886 758 989 b 68 713 213 989 68 879 b 332 500 68 571 143 517 l 550 482 b 668 367 639 474 668 438 l 668 292 b 486 172 668 213 622 172 b 313 297 357 172 313 213 l 313 364 l 60 364 l 60 303 b 486 -17 60 89 210 -17 b 924 268 756 -17 924 83 b 672 489 924 397 860 474 l 449 506 b 319 613 357 514 319 544 l 319 683 b 485 800 319 761 361 800 z "},"T":{"ha":889,"x_min":0,"x_max":0,"o":"m 322 0 l 565 0 l 565 760 l 860 760 l 860 972 l 29 972 l 29 760 l 322 760 z "},"U":{"ha":1068,"x_min":0,"x_max":0,"o":"m 961 338 l 961 972 l 718 972 l 718 333 b 533 178 718 231 653 178 b 350 333 415 178 350 231 l 350 972 l 107 972 l 107 338 b 533 -17 107 106 254 -17 b 961 338 814 -17 961 106 z "},"V":{"ha":832,"x_min":0,"x_max":0,"o":"m 549 0 l 824 972 l 806 972 l 553 81 b 538 67 550 68 544 67 b 522 81 531 67 526 69 l 257 972 l 8 972 l 303 0 z "},"W":{"ha":1363,"x_min":0,"x_max":0,"o":"m 254 972 l 8 972 l 238 0 l 485 0 l 593 468 b 611 488 596 481 600 488 b 629 468 622 488 625 481 l 778 0 l 1135 0 l 1349 972 l 1110 972 l 950 219 l 706 989 l 693 989 l 475 39 z "},"X":{"ha":831,"x_min":0,"x_max":0,"o":"m 826 0 l 538 508 b 539 557 528 524 529 540 l 794 972 l 774 972 l 532 578 b 515 567 526 571 522 567 b 499 579 506 567 503 571 l 278 972 l 7 972 l 283 479 b 282 429 294 461 292 446 l 22 0 l 43 0 l 292 411 b 308 421 297 418 301 421 b 325 410 317 421 321 418 l 556 0 z "},"Y":{"ha":835,"x_min":0,"x_max":0,"o":"m 315 0 l 558 0 l 558 408 b 575 475 558 438 561 449 l 831 972 l 810 972 l 563 489 b 547 476 557 479 553 476 b 532 489 540 476 538 478 l 283 972 l 4 972 l 315 386 z "},"Z":{"ha":843,"x_min":0,"x_max":0,"o":"m 815 213 l 372 213 l 814 958 l 814 972 l 42 972 l 42 956 l 521 956 b 542 938 536 956 542 949 b 538 924 542 933 540 929 l -1 14 l -1 0 l 815 0 z "},"Æ":{"ha":1439,"x_min":0,"x_max":0,"o":"m 703 0 l 1382 0 l 1382 213 l 946 213 l 946 475 b 967 496 946 482 950 496 l 1349 496 l 1349 513 l 967 513 b 946 533 950 513 946 525 l 946 760 l 1368 760 l 1368 972 l 581 972 l 14 0 l 260 0 l 418 272 b 450 292 426 289 433 292 l 703 292 z m 460 308 b 450 328 447 308 444 318 l 703 765 l 703 308 z "},"Œ":{"ha":1422,"x_min":0,"x_max":0,"o":"m 471 0 l 1367 0 l 1367 213 l 929 213 l 929 475 b 950 496 929 482 933 496 l 1333 496 l 1333 513 l 950 513 b 929 533 933 513 929 525 l 929 760 l 1353 760 l 1353 972 l 471 972 b 65 486 215 972 65 781 b 471 0 65 192 214 0 z m 521 194 b 314 404 381 194 314 264 l 314 568 b 521 778 314 708 381 778 l 686 778 l 686 194 z "},"Ł":{"ha":814,"x_min":0,"x_max":0,"o":"m 122 0 l 793 0 l 793 213 l 364 213 l 364 536 l 589 625 l 589 643 l 364 554 l 364 972 l 122 972 l 122 457 l 17 415 l 17 397 l 122 439 z "},"Ø":{"ha":1089,"x_min":0,"x_max":0,"o":"m 164 -17 l 232 72 b 544 -17 310 13 414 -17 b 1024 486 858 -17 1024 158 b 865 894 1024 674 969 811 l 942 993 l 919 993 l 851 904 b 544 989 774 961 671 989 b 65 486 231 989 65 814 b 218 82 65 301 117 167 l 142 -17 z m 544 794 b 718 731 617 794 676 772 l 354 260 b 314 407 328 297 314 346 l 314 572 b 544 794 314 717 407 794 z m 775 572 l 775 407 b 544 178 775 257 690 178 b 365 246 465 178 406 201 l 729 718 b 775 572 758 682 775 633 z "},"Ð":{"ha":1072,"x_min":0,"x_max":0,"o":"m 122 0 l 599 0 b 1006 486 856 0 1006 192 b 599 972 1006 781 856 972 l 122 972 l 122 513 l 14 513 l 14 496 l 122 496 z m 582 496 l 582 513 l 353 513 l 353 778 l 549 778 b 756 568 690 778 756 708 l 756 404 b 549 194 756 264 690 194 l 353 194 l 353 496 z "},"Þ":{"ha":979,"x_min":0,"x_max":0,"o":"m 122 0 l 364 0 l 364 174 b 385 194 364 181 368 194 l 608 194 b 933 486 807 194 933 283 b 624 824 933 690 811 824 l 364 824 l 364 972 l 122 972 z m 563 635 b 688 510 644 635 688 589 l 688 335 b 561 211 688 254 646 211 l 385 211 b 364 232 368 211 364 224 l 364 635 z "},"a":{"ha":822,"x_min":0,"x_max":0,"o":"m 60 506 l 268 506 l 268 529 b 397 619 268 590 314 619 b 525 524 485 619 525 589 l 525 521 b 321 397 525 447 494 418 b 49 182 103 372 49 304 b 269 -17 49 40 135 -17 b 525 174 383 -17 488 43 l 525 0 l 743 0 l 743 510 b 404 775 743 683 626 775 b 60 529 190 775 60 690 z m 271 199 l 271 268 b 404 393 271 343 311 369 b 525 461 475 410 510 426 l 525 279 b 378 88 525 110 457 88 b 271 199 306 88 271 122 z "},"b":{"ha":893,"x_min":0,"x_max":0,"o":"m 315 1042 l 90 1042 l 90 0 l 315 0 l 315 213 b 572 -17 351 65 440 -17 b 839 379 750 -17 839 111 b 572 775 839 647 750 775 b 315 547 440 775 351 693 z m 600 246 b 472 88 600 133 557 88 b 315 379 367 88 315 157 b 472 672 315 603 367 672 b 600 514 557 672 600 625 z "},"c":{"ha":833,"x_min":0,"x_max":0,"o":"m 789 457 l 789 474 b 429 775 789 671 646 775 b 44 379 178 775 44 638 b 429 -17 44 121 175 -17 b 789 286 651 -17 789 79 l 789 308 l 572 308 l 572 282 b 429 149 572 196 522 149 b 275 304 329 149 275 206 l 275 454 b 429 610 275 553 329 610 b 572 474 522 610 572 563 l 572 457 z "},"d":{"ha":893,"x_min":0,"x_max":0,"o":"m 578 1042 l 578 547 b 321 775 542 694 454 775 b 53 379 143 775 53 647 b 321 -17 53 111 143 -17 b 578 211 454 -17 542 65 l 578 0 l 803 0 l 803 1042 z m 293 246 l 293 514 b 421 672 293 625 335 672 b 578 379 526 672 578 601 b 421 88 578 157 526 88 b 293 246 335 88 293 133 z "},"e":{"ha":821,"x_min":0,"x_max":0,"o":"m 264 368 b 285 389 264 375 268 389 l 772 389 b 778 457 776 415 778 436 b 421 775 778 663 649 775 b 44 379 178 775 44 640 b 422 -17 44 117 175 -17 b 776 265 649 -17 776 93 l 776 281 l 569 281 l 569 258 b 422 149 569 188 518 149 b 264 301 318 149 264 197 z m 264 463 b 424 617 264 567 319 617 b 569 488 518 617 569 574 l 569 465 b 504 403 569 414 550 403 l 285 403 b 264 424 268 403 264 415 z "},"f":{"ha":497,"x_min":0,"x_max":0,"o":"m 8 746 l 115 746 l 115 0 l 340 0 l 340 725 b 361 746 340 739 347 746 l 519 746 l 519 760 l 361 760 b 340 781 347 760 340 767 l 340 996 b 372 1028 340 1018 350 1028 l 519 1028 l 519 1042 l 263 1042 b 115 894 168 1042 115 992 l 115 760 l 8 760 z "},"g":{"ha":893,"x_min":0,"x_max":0,"o":"m 86 -25 l 86 -47 b 432 -294 86 -231 207 -294 b 803 -4 683 -294 803 -194 l 803 760 l 578 760 l 578 560 b 322 775 542 697 454 775 b 54 403 143 775 54 654 b 322 31 54 150 143 31 b 578 244 454 31 542 107 l 578 -12 b 432 -135 578 -99 535 -135 b 296 -47 332 -135 296 -106 l 296 -25 z m 294 292 l 294 514 b 422 672 294 625 336 672 b 578 403 526 672 578 613 b 422 133 578 190 526 133 b 294 292 336 133 294 181 z "},"h":{"ha":882,"x_min":0,"x_max":0,"o":"m 90 0 l 315 0 l 315 464 b 464 667 315 628 371 667 b 576 538 546 667 576 624 l 576 0 l 800 0 l 800 539 b 572 775 800 710 708 775 b 315 581 454 775 353 711 l 315 1042 l 90 1042 z "},"i":{"ha":406,"x_min":0,"x_max":0,"o":"m 204 832 b 332 958 282 832 332 882 b 204 1083 332 1033 282 1083 b 75 958 126 1083 75 1033 b 204 832 75 882 126 832 z m 90 0 l 315 0 l 315 760 l 90 760 z "},"j":{"ha":406,"x_min":0,"x_max":0,"o":"m 204 832 b 332 958 282 832 332 882 b 204 1083 332 1033 282 1083 b 75 958 126 1083 75 1033 b 204 832 75 882 126 832 z m 315 -133 l 315 760 l 90 760 l 90 -229 b 56 -264 90 -253 79 -264 l -29 -264 l -29 -278 l 171 -278 b 315 -133 264 -278 315 -231 z "},"k":{"ha":828,"x_min":0,"x_max":0,"o":"m 90 0 l 315 0 l 315 343 l 407 436 l 582 0 l 822 0 l 576 607 l 685 717 b 744 746 707 739 721 746 l 800 746 l 800 760 l 315 760 l 315 1042 l 90 1042 z m 661 746 b 675 733 669 746 675 742 b 664 715 675 728 671 722 l 315 364 l 315 746 z "},"l":{"ha":406,"x_min":0,"x_max":0,"o":"m 90 0 l 315 0 l 315 1042 l 90 1042 z "},"m":{"ha":1300,"x_min":0,"x_max":0,"o":"m 90 0 l 315 0 l 315 474 b 439 667 315 615 364 667 b 542 549 513 667 542 626 l 542 0 l 767 0 l 767 474 b 890 667 767 615 815 667 b 994 549 965 667 994 626 l 994 0 l 1218 0 l 1218 539 b 1000 775 1218 710 1131 775 b 765 576 892 775 797 703 b 549 775 753 719 669 775 b 315 586 443 775 350 707 l 315 760 l 90 760 z "},"n":{"ha":882,"x_min":0,"x_max":0,"o":"m 90 0 l 315 0 l 315 464 b 464 667 315 628 371 667 b 576 538 546 667 576 624 l 576 0 l 800 0 l 800 539 b 572 775 800 710 708 775 b 315 581 454 775 353 711 l 315 760 l 90 760 z "},"o":{"ha":861,"x_min":0,"x_max":0,"o":"m 431 775 b 44 379 188 775 44 629 b 431 -17 44 128 188 -17 b 818 379 674 -17 818 131 b 431 775 818 631 674 775 z m 431 149 b 275 299 333 149 275 206 l 275 460 b 431 610 275 553 333 610 b 586 460 529 610 586 553 l 586 299 b 431 149 586 206 529 149 z "},"p":{"ha":893,"x_min":0,"x_max":0,"o":"m 315 760 l 90 760 l 90 -278 l 315 -278 l 315 213 b 572 -17 351 65 440 -17 b 839 379 750 -17 839 111 b 572 775 839 647 750 775 b 315 547 440 775 351 693 z m 600 246 b 472 88 600 133 557 88 b 315 379 367 88 315 157 b 472 672 315 601 367 672 b 600 514 557 672 600 625 z "},"q":{"ha":893,"x_min":0,"x_max":0,"o":"m 578 760 l 578 547 b 321 775 542 694 454 775 b 53 379 143 775 53 647 b 321 -17 53 111 143 -17 b 578 211 454 -17 542 65 l 578 -278 l 803 -278 l 803 760 z m 293 246 l 293 514 b 421 672 293 625 335 672 b 578 379 526 672 578 601 b 421 88 578 157 526 88 b 293 246 335 88 293 133 z "},"r":{"ha":767,"x_min":0,"x_max":0,"o":"m 90 0 l 315 0 l 315 489 b 432 672 315 597 344 672 b 510 594 489 672 510 647 l 510 408 l 717 408 l 717 621 b 551 767 717 731 639 767 b 315 600 440 767 351 708 l 315 760 l 90 760 z "},"s":{"ha":775,"x_min":0,"x_max":0,"o":"m 388 626 b 515 529 474 626 515 593 l 515 497 l 721 497 l 721 528 b 388 775 721 696 604 775 b 49 558 167 775 49 699 b 260 394 49 450 106 407 l 428 382 b 525 292 499 376 525 349 l 525 229 b 396 132 525 163 482 132 b 254 232 301 132 254 167 l 254 267 l 43 267 l 43 238 b 396 -17 43 64 165 -17 b 736 208 617 -17 736 63 b 540 386 736 308 688 374 l 365 399 b 258 481 289 406 258 428 l 258 533 b 388 626 258 594 303 626 z "},"t":{"ha":454,"x_min":0,"x_max":0,"o":"m 106 144 b 250 0 106 49 157 0 l 464 0 l 464 14 l 361 14 b 329 46 340 14 329 25 l 329 725 b 350 746 329 739 336 746 l 464 746 l 464 760 l 350 760 b 329 781 336 760 329 767 l 329 986 l 322 986 b 106 832 285 872 183 832 l 106 760 l 15 760 l 15 746 l 106 746 z "},"u":{"ha":867,"x_min":0,"x_max":0,"o":"m 317 -17 b 551 186 425 -17 518 50 l 551 0 l 776 0 l 776 760 l 551 760 l 551 299 b 421 104 551 138 493 104 b 306 221 339 104 306 143 l 306 760 l 81 760 l 81 221 b 317 -17 81 49 175 -17 z "},"v":{"ha":724,"x_min":0,"x_max":0,"o":"m 474 0 l 719 760 l 483 760 l 483 575 l 574 575 b 619 526 608 575 619 554 b 600 439 619 501 614 482 l 476 53 b 463 40 474 43 469 40 b 449 53 456 40 451 43 l 235 760 l 4 760 l 239 0 z "},"w":{"ha":1126,"x_min":0,"x_max":0,"o":"m 228 760 l 11 760 l 175 0 l 392 0 l 482 360 b 499 375 485 369 490 375 b 515 360 508 375 513 369 l 638 0 l 951 0 l 1115 760 l 906 760 l 785 176 l 579 776 l 569 776 l 385 33 z "},"x":{"ha":683,"x_min":0,"x_max":0,"o":"m 679 0 l 446 413 b 446 444 439 425 439 432 l 642 760 l 622 760 l 443 469 b 429 460 439 463 435 460 b 415 469 422 460 419 463 l 253 760 l 4 760 l 225 369 b 225 338 232 357 232 350 l 14 0 l 33 0 l 228 313 b 243 324 233 321 236 324 b 257 313 249 324 253 321 l 431 0 z "},"y":{"ha":735,"x_min":0,"x_max":0,"o":"m 493 575 l 583 575 b 628 533 615 575 628 560 b 604 433 628 507 621 486 l 490 83 b 475 72 488 75 483 72 l 460 72 b 443 89 450 72 447 75 l 240 760 l 4 760 l 226 58 l 471 58 b 478 46 476 58 481 53 l 439 -71 b 410 -94 433 -89 425 -94 l 113 -94 l 113 -278 l 283 -278 b 456 -69 385 -278 397 -242 l 731 760 l 493 760 z "},"z":{"ha":665,"x_min":0,"x_max":0,"o":"m -3 0 l 644 0 l 644 171 l 308 171 l 633 746 l 633 760 l 32 760 l 32 746 l 385 746 b 396 721 399 746 403 733 l -3 14 z "},"æ":{"ha":1300,"x_min":0,"x_max":0,"o":"m 60 506 l 268 506 l 268 529 b 397 619 268 590 314 619 b 525 524 485 619 525 589 l 525 521 b 321 397 525 449 494 418 b 49 182 103 372 49 304 b 269 -17 49 40 135 -17 b 546 218 385 -17 511 53 b 903 -17 592 63 713 -17 b 1257 265 1128 -17 1257 93 l 1257 281 l 1050 281 l 1050 258 b 903 149 1050 188 997 149 b 744 301 799 149 744 197 l 744 389 l 1251 389 b 1257 457 1256 415 1257 436 b 901 775 1257 663 1129 775 b 658 707 801 775 719 751 b 404 775 601 751 517 775 b 60 529 190 775 60 690 z m 744 463 b 904 617 744 567 800 617 b 1050 488 999 617 1050 574 l 1050 465 b 985 403 1050 414 1029 403 l 744 403 z m 271 199 l 271 268 b 404 393 271 343 311 369 b 525 461 475 410 510 426 l 525 231 b 386 82 525 110 456 82 b 271 199 307 82 271 119 z "},"œ":{"ha":1353,"x_min":0,"x_max":0,"o":"m 429 775 b 44 379 188 775 44 629 b 429 -17 44 128 188 -17 b 689 85 540 -17 628 19 b 943 -17 747 17 832 -17 b 1308 265 1176 -17 1308 93 l 1308 281 l 1101 281 l 1101 258 b 956 149 1101 188 1050 149 b 796 301 851 149 796 197 l 796 389 l 1304 389 b 1310 457 1308 415 1310 436 b 954 775 1310 663 1181 775 b 692 672 839 775 751 740 b 429 775 631 739 542 775 z m 796 463 b 956 617 796 567 853 617 b 1101 488 1051 617 1101 574 l 1101 465 b 1036 403 1101 414 1082 403 l 796 403 z m 429 149 b 275 299 332 149 275 206 l 275 460 b 429 610 275 553 332 610 b 583 460 526 610 583 553 l 583 299 b 429 149 583 206 526 149 z "},"ł":{"ha":406,"x_min":0,"x_max":0,"o":"m 90 0 l 315 0 l 315 589 l 400 632 l 400 650 l 315 607 l 315 1042 l 90 1042 l 90 494 l 6 451 l 6 433 l 90 476 z "},"ø":{"ha":861,"x_min":0,"x_max":0,"o":"m 147 -17 l 194 47 b 431 -17 257 6 336 -17 b 818 379 674 -17 818 131 b 682 701 818 525 769 635 l 736 775 l 717 775 l 668 710 b 431 775 607 753 526 775 b 44 379 188 775 44 629 b 182 56 44 232 93 122 l 128 -17 z m 275 299 l 275 460 b 431 610 275 553 333 610 b 556 558 486 610 529 592 l 297 211 b 275 299 283 235 275 264 z m 431 149 b 307 199 376 149 333 167 l 565 544 b 586 460 579 522 586 493 l 586 299 b 431 149 586 206 529 149 z "},"ð":{"ha":832,"x_min":0,"x_max":0,"o":"m 213 772 l 397 860 b 560 536 488 758 543 650 b 347 715 524 665 451 715 b 44 356 158 715 44 579 b 414 -17 44 103 189 -17 b 788 379 642 -17 781 106 b 564 939 792 594 721 781 l 664 986 l 664 1004 l 551 950 b 442 1042 518 982 482 1013 l 188 1042 b 386 872 264 988 331 932 l 213 790 z m 272 285 l 272 476 b 415 613 272 565 328 613 b 558 454 488 613 558 581 l 558 285 b 417 150 558 189 501 150 b 272 285 328 150 272 189 z "},"þ":{"ha":893,"x_min":0,"x_max":0,"o":"m 315 1042 l 90 1042 l 90 -278 l 315 -278 l 315 213 b 572 -17 351 65 440 -17 b 839 379 750 -17 839 111 b 572 775 839 647 750 775 b 315 547 440 775 351 693 z m 600 246 b 472 88 600 133 557 88 b 315 379 367 88 315 157 b 472 672 315 601 367 672 b 600 514 557 672 600 625 z "},"ß":{"ha":928,"x_min":0,"x_max":0,"o":"m 624 774 b 536 546 624 683 536 639 b 704 289 536 411 704 443 l 704 239 b 572 132 704 168 658 132 b 433 236 482 132 433 168 l 433 276 l 418 276 l 418 192 b 661 -17 418 50 515 -17 b 910 199 808 -17 910 67 b 550 546 910 450 550 390 b 736 835 550 660 736 675 b 446 1058 736 967 625 1058 b 115 771 246 1058 115 943 l 115 760 l 8 760 l 8 746 l 115 746 l 115 0 l 340 0 l 340 749 b 488 899 340 850 386 899 b 624 774 575 899 624 858 z "},"ı":{"ha":406,"x_min":0,"x_max":0,"o":"m 90 0 l 315 0 l 315 760 l 90 760 z "},"ȷ":{"ha":406,"x_min":0,"x_max":0,"o":"m 315 -133 l 315 760 l 90 760 l 90 -229 b 56 -264 90 -253 79 -264 l -29 -264 l -29 -278 l 171 -278 b 315 -133 264 -278 315 -231 z "},"ﬁ":{"ha":894,"x_min":0,"x_max":0,"o":"m 693 832 b 821 958 771 832 821 882 b 693 1083 821 1033 771 1083 b 564 958 615 1083 564 1033 b 693 832 564 882 615 832 z m 8 746 l 115 746 l 115 0 l 340 0 l 340 725 b 361 746 340 739 347 746 l 519 746 l 519 760 l 361 760 b 340 781 347 760 340 767 l 340 996 b 372 1028 340 1018 350 1028 l 519 1028 l 519 1042 l 263 1042 b 115 894 168 1042 115 992 l 115 760 l 8 760 z m 579 0 l 804 0 l 804 760 l 579 760 z "},"ﬂ":{"ha":906,"x_min":0,"x_max":0,"o":"m 8 746 l 115 746 l 115 0 l 340 0 l 340 725 b 361 746 340 739 347 746 l 519 746 l 519 760 l 361 760 b 340 781 347 760 340 767 l 340 996 b 372 1028 340 1018 350 1028 l 519 1028 l 519 1042 l 263 1042 b 115 894 168 1042 115 992 l 115 760 l 8 760 z m 590 0 l 815 0 l 815 1042 l 590 1042 z "},"Á":{"ha":975,"x_min":0,"x_max":0,"o":"m 478 1015 l 489 1015 l 768 1182 l 768 1190 l 546 1190 z m 717 0 l 961 0 l 669 972 l 307 972 l 14 0 l 249 0 l 332 276 b 356 296 336 292 342 296 l 614 296 b 635 282 625 296 631 292 z m 349 335 l 485 790 l 619 332 b 606 313 622 321 619 313 l 363 313 b 349 335 349 313 344 322 z "},"Â":{"ha":975,"x_min":0,"x_max":0,"o":"m 686 1015 l 704 1015 l 492 1210 l 485 1210 l 272 1015 l 289 1015 l 488 1079 z m 717 0 l 961 0 l 669 972 l 307 972 l 14 0 l 249 0 l 332 276 b 356 296 336 292 342 296 l 614 296 b 635 282 625 296 631 292 z m 349 335 l 485 790 l 619 332 b 606 313 622 321 619 313 l 363 313 b 349 335 349 313 344 322 z "},"Ä":{"ha":975,"x_min":0,"x_max":0,"o":"m 364 1032 b 457 1124 419 1032 457 1068 b 364 1215 457 1181 419 1215 b 271 1124 310 1215 271 1181 b 364 1032 271 1068 310 1032 z m 613 1032 b 704 1124 667 1032 704 1068 b 613 1215 704 1181 667 1215 b 519 1124 558 1215 519 1181 b 613 1032 519 1068 558 1032 z m 717 0 l 961 0 l 669 972 l 307 972 l 14 0 l 249 0 l 332 276 b 356 296 336 292 342 296 l 614 296 b 635 282 625 296 631 292 z m 349 335 l 485 790 l 619 332 b 606 313 622 321 619 313 l 363 313 b 349 335 349 313 344 322 z "},"À":{"ha":975,"x_min":0,"x_max":0,"o":"m 506 1015 l 438 1190 l 214 1190 l 214 1182 l 494 1015 z m 717 0 l 961 0 l 669 972 l 307 972 l 14 0 l 249 0 l 332 276 b 356 296 336 292 342 296 l 614 296 b 635 282 625 296 631 292 z m 349 335 l 485 790 l 619 332 b 606 313 622 321 619 313 l 363 313 b 349 335 349 313 344 322 z "},"Å":{"ha":975,"x_min":0,"x_max":0,"o":"m 488 1004 b 614 1118 560 1004 614 1053 b 488 1232 614 1185 560 1232 b 363 1118 417 1232 363 1185 b 488 1004 363 1053 417 1004 z m 488 1222 b 565 1163 536 1222 565 1199 l 565 1072 b 488 1014 565 1036 536 1014 b 411 1072 440 1014 411 1036 l 411 1163 b 488 1222 411 1199 440 1222 z m 717 0 l 961 0 l 669 972 l 307 972 l 14 0 l 249 0 l 332 276 b 356 296 336 292 342 296 l 614 296 b 635 282 625 296 631 292 z m 349 335 l 485 790 l 619 332 b 606 313 622 321 619 313 l 363 313 b 349 335 349 313 344 322 z "},"Ã":{"ha":975,"x_min":0,"x_max":0,"o":"m 547 1044 b 686 1106 621 1021 656 1040 l 729 1197 l 717 1201 l 704 1176 b 590 1153 683 1133 661 1132 l 471 1192 b 333 1135 401 1214 363 1193 l 289 1042 l 301 1038 l 314 1063 b 414 1089 332 1100 361 1107 z m 717 0 l 961 0 l 669 972 l 307 972 l 14 0 l 249 0 l 332 276 b 356 296 336 292 342 296 l 614 296 b 635 282 625 296 631 292 z m 349 335 l 485 790 l 619 332 b 606 313 622 321 619 313 l 363 313 b 349 335 349 313 344 322 z "},"Ă":{"ha":975,"x_min":0,"x_max":0,"o":"m 488 1013 b 681 1190 604 1013 681 1072 l 681 1213 l 668 1213 l 668 1203 b 585 1133 668 1151 642 1133 l 393 1133 b 308 1203 335 1133 308 1151 l 308 1213 l 296 1213 l 296 1189 b 488 1013 296 1071 372 1013 z m 717 0 l 961 0 l 669 972 l 307 972 l 14 0 l 249 0 l 332 276 b 356 296 336 292 342 296 l 614 296 b 635 282 625 296 631 292 z m 349 335 l 485 790 l 619 332 b 606 313 622 321 619 313 l 363 313 b 349 335 349 313 344 322 z "},"Ā":{"ha":975,"x_min":0,"x_max":0,"o":"m 275 1056 l 701 1056 l 701 1182 l 275 1182 z m 717 0 l 961 0 l 669 972 l 307 972 l 14 0 l 249 0 l 332 276 b 356 296 336 292 342 296 l 614 296 b 635 282 625 296 631 292 z m 349 335 l 485 790 l 619 332 b 606 313 622 321 619 313 l 363 313 b 349 335 349 313 344 322 z "},"Ą":{"ha":975,"x_min":0,"x_max":0,"o":"m 717 0 l 840 0 b 671 -169 728 -49 671 -99 b 799 -278 671 -236 715 -278 l 881 -278 l 881 -164 l 819 -164 b 783 -128 794 -164 783 -154 l 783 -96 b 867 0 783 -44 803 -26 l 961 0 l 669 972 l 307 972 l 14 0 l 249 0 l 332 276 b 356 296 336 292 342 296 l 614 296 b 635 282 625 296 631 292 z m 349 335 l 485 790 l 619 332 b 606 313 622 321 619 313 l 363 313 b 349 335 349 313 344 322 z "},"Ç":{"ha":1042,"x_min":0,"x_max":0,"o":"m 485 -103 l 540 -103 b 571 -133 561 -103 571 -114 l 571 -157 b 540 -187 571 -176 561 -187 l 439 -187 l 439 -278 l 589 -278 b 694 -183 654 -278 694 -242 b 589 -89 694 -124 656 -89 l 524 -89 b 513 -71 513 -89 508 -82 l 535 -17 l 539 -17 b 974 358 836 -17 974 149 l 974 385 l 732 385 l 732 358 b 539 178 732 240 672 178 b 319 407 392 178 319 258 l 319 572 b 539 794 319 717 401 794 b 732 625 667 794 732 724 l 732 593 l 974 593 l 974 625 b 539 989 974 840 829 989 b 65 486 222 989 65 814 b 518 -17 65 161 215 -10 z "},"Ć":{"ha":1042,"x_min":0,"x_max":0,"o":"m 526 1015 l 538 1015 l 817 1182 l 817 1190 l 594 1190 z m 732 385 l 732 358 b 539 178 732 240 672 178 b 319 407 392 178 319 258 l 319 572 b 539 794 319 717 401 794 b 732 625 667 794 732 724 l 732 593 l 974 593 l 974 625 b 539 989 974 840 829 989 b 65 486 222 989 65 814 b 539 -17 65 154 222 -17 b 974 358 836 -17 974 149 l 974 385 z "},"Č":{"ha":1042,"x_min":0,"x_max":0,"o":"m 760 1210 l 742 1210 l 543 1147 l 344 1210 l 328 1210 l 540 1015 l 547 1015 z m 732 385 l 732 358 b 539 178 732 240 672 178 b 319 407 392 178 319 258 l 319 572 b 539 794 319 717 401 794 b 732 625 667 794 732 724 l 732 593 l 974 593 l 974 625 b 539 989 974 840 829 989 b 65 486 222 989 65 814 b 539 -17 65 154 222 -17 b 974 358 836 -17 974 149 l 974 385 z "},"Ĉ":{"ha":1042,"x_min":0,"x_max":0,"o":"m 736 1015 l 754 1015 l 542 1210 l 535 1210 l 322 1015 l 339 1015 l 538 1079 z m 732 385 l 732 358 b 539 178 732 240 672 178 b 319 407 392 178 319 258 l 319 572 b 539 794 319 717 401 794 b 732 625 667 794 732 724 l 732 593 l 974 593 l 974 625 b 539 989 974 840 829 989 b 65 486 222 989 65 814 b 539 -17 65 154 222 -17 b 974 358 836 -17 974 149 l 974 385 z "},"Ċ":{"ha":1042,"x_min":0,"x_max":0,"o":"m 528 1026 b 628 1126 588 1026 628 1067 b 528 1225 628 1186 588 1225 b 424 1126 467 1225 424 1186 b 528 1026 424 1067 467 1026 z m 732 385 l 732 358 b 539 178 732 240 672 178 b 319 407 392 178 319 258 l 319 572 b 539 794 319 717 401 794 b 732 625 667 794 732 724 l 732 593 l 974 593 l 974 625 b 539 989 974 840 829 989 b 65 486 222 989 65 814 b 539 -17 65 154 222 -17 b 974 358 836 -17 974 149 l 974 385 z "},"Ď":{"ha":1072,"x_min":0,"x_max":0,"o":"m 733 1210 l 715 1210 l 517 1147 l 318 1210 l 301 1210 l 514 1015 l 521 1015 z m 122 0 l 599 0 b 1006 486 856 0 1006 192 b 599 972 1006 781 856 972 l 122 972 z m 549 778 b 756 568 690 778 756 708 l 756 404 b 549 194 756 264 690 194 l 353 194 l 353 778 z "},"Đ":{"ha":1072,"x_min":0,"x_max":0,"o":"m 122 0 l 599 0 b 1006 486 856 0 1006 192 b 599 972 1006 781 856 972 l 122 972 l 122 513 l 14 513 l 14 496 l 122 496 z m 582 496 l 582 513 l 353 513 l 353 778 l 549 778 b 756 568 690 778 756 708 l 756 404 b 549 194 756 264 690 194 l 353 194 l 353 496 z "},"É":{"ha":883,"x_min":0,"x_max":0,"o":"m 457 1015 l 468 1015 l 747 1182 l 747 1190 l 525 1190 z m 122 0 l 826 0 l 826 213 l 364 213 l 364 475 b 385 496 364 482 368 496 l 793 496 l 793 513 l 385 513 b 364 533 368 513 364 525 l 364 760 l 813 760 l 813 972 l 122 972 z "},"Ê":{"ha":883,"x_min":0,"x_max":0,"o":"m 682 1015 l 700 1015 l 488 1210 l 481 1210 l 268 1015 l 285 1015 l 483 1079 z m 122 0 l 826 0 l 826 213 l 364 213 l 364 475 b 385 496 364 482 368 496 l 793 496 l 793 513 l 385 513 b 364 533 368 513 364 525 l 364 760 l 813 760 l 813 972 l 122 972 z "},"Ë":{"ha":883,"x_min":0,"x_max":0,"o":"m 360 1032 b 453 1124 415 1032 453 1068 b 360 1215 453 1181 415 1215 b 267 1124 306 1215 267 1181 b 360 1032 267 1068 306 1032 z m 608 1032 b 700 1124 663 1032 700 1068 b 608 1215 700 1181 663 1215 b 515 1124 554 1215 515 1181 b 608 1032 515 1068 554 1032 z m 122 0 l 826 0 l 826 213 l 364 213 l 364 475 b 385 496 364 482 368 496 l 793 496 l 793 513 l 385 513 b 364 533 368 513 364 525 l 364 760 l 813 760 l 813 972 l 122 972 z "},"È":{"ha":883,"x_min":0,"x_max":0,"o":"m 547 1015 l 479 1190 l 256 1190 l 256 1182 l 536 1015 z m 122 0 l 826 0 l 826 213 l 364 213 l 364 475 b 385 496 364 482 368 496 l 793 496 l 793 513 l 385 513 b 364 533 368 513 364 525 l 364 760 l 813 760 l 813 972 l 122 972 z "},"Ĕ":{"ha":883,"x_min":0,"x_max":0,"o":"m 483 1013 b 676 1190 600 1013 676 1072 l 676 1213 l 664 1213 l 664 1203 b 581 1133 664 1151 638 1133 l 389 1133 b 304 1203 331 1133 304 1151 l 304 1213 l 292 1213 l 292 1189 b 483 1013 292 1071 368 1013 z m 122 0 l 826 0 l 826 213 l 364 213 l 364 475 b 385 496 364 482 368 496 l 793 496 l 793 513 l 385 513 b 364 533 368 513 364 525 l 364 760 l 813 760 l 813 972 l 122 972 z "},"Ě":{"ha":883,"x_min":0,"x_max":0,"o":"m 711 1210 l 693 1210 l 494 1147 l 296 1210 l 279 1210 l 492 1015 l 499 1015 z m 122 0 l 826 0 l 826 213 l 364 213 l 364 475 b 385 496 364 482 368 496 l 793 496 l 793 513 l 385 513 b 364 533 368 513 364 525 l 364 760 l 813 760 l 813 972 l 122 972 z "},"Ė":{"ha":883,"x_min":0,"x_max":0,"o":"m 485 1026 b 585 1126 544 1026 585 1067 b 485 1225 585 1186 544 1225 b 381 1126 424 1225 381 1186 b 485 1026 381 1067 424 1026 z m 122 0 l 826 0 l 826 213 l 364 213 l 364 475 b 385 496 364 482 368 496 l 793 496 l 793 513 l 385 513 b 364 533 368 513 364 525 l 364 760 l 813 760 l 813 972 l 122 972 z "},"Ē":{"ha":883,"x_min":0,"x_max":0,"o":"m 269 1056 l 696 1056 l 696 1182 l 269 1182 z m 122 0 l 826 0 l 826 213 l 364 213 l 364 475 b 385 496 364 482 368 496 l 793 496 l 793 513 l 385 513 b 364 533 368 513 364 525 l 364 760 l 813 760 l 813 972 l 122 972 z "},"Ę":{"ha":883,"x_min":0,"x_max":0,"o":"m 122 0 l 800 0 b 631 -169 688 -49 631 -99 b 758 -278 631 -236 675 -278 l 840 -278 l 840 -164 l 779 -164 b 743 -128 754 -164 743 -154 l 743 -96 b 826 0 743 -44 763 -26 l 826 213 l 364 213 l 364 475 b 385 496 364 482 368 496 l 793 496 l 793 513 l 385 513 b 364 533 368 513 364 525 l 364 760 l 813 760 l 813 972 l 122 972 z "},"Ğ":{"ha":1056,"x_min":0,"x_max":0,"o":"m 533 1013 b 726 1190 650 1013 726 1072 l 726 1213 l 714 1213 l 714 1203 b 631 1133 714 1151 688 1133 l 439 1133 b 354 1203 381 1133 354 1151 l 354 1213 l 342 1213 l 342 1189 b 533 1013 342 1071 418 1013 z m 464 465 l 464 449 l 722 449 b 743 428 738 449 743 443 l 743 357 b 542 178 743 238 672 178 b 319 407 393 178 319 257 l 319 572 b 544 794 319 715 407 794 b 743 626 675 794 743 735 l 743 597 l 982 597 l 982 631 b 544 989 982 844 828 989 b 65 486 224 989 65 803 b 542 -17 65 156 222 -17 b 982 364 842 -17 982 149 l 982 465 z "},"Ĝ":{"ha":1056,"x_min":0,"x_max":0,"o":"m 728 1015 l 746 1015 l 533 1210 l 526 1210 l 314 1015 l 331 1015 l 529 1079 z m 464 465 l 464 449 l 722 449 b 743 428 738 449 743 443 l 743 357 b 542 178 743 238 672 178 b 319 407 393 178 319 257 l 319 572 b 544 794 319 715 407 794 b 743 626 675 794 743 735 l 743 597 l 982 597 l 982 631 b 544 989 982 844 828 989 b 65 486 224 989 65 803 b 542 -17 65 156 222 -17 b 982 364 842 -17 982 149 l 982 465 z "},"Ģ":{"ha":1056,"x_min":0,"x_max":0,"o":"m 464 465 l 464 449 l 722 449 b 743 428 738 449 743 443 l 743 357 b 542 178 743 238 672 178 b 319 407 393 178 319 257 l 319 572 b 544 794 319 715 407 794 b 743 626 675 794 743 735 l 743 597 l 982 597 l 982 631 b 544 989 982 844 828 989 b 65 486 224 989 65 803 b 542 -17 65 156 222 -17 b 982 364 842 -17 982 149 l 982 465 z m 464 -271 l 478 -271 l 625 -99 l 625 -85 l 464 -85 z "},"Ġ":{"ha":1056,"x_min":0,"x_max":0,"o":"m 544 1026 b 644 1126 604 1026 644 1067 b 544 1225 644 1186 604 1225 b 440 1126 483 1225 440 1186 b 544 1026 440 1067 483 1026 z m 464 465 l 464 449 l 722 449 b 743 428 738 449 743 443 l 743 357 b 542 178 743 238 672 178 b 319 407 393 178 319 257 l 319 572 b 544 794 319 715 407 794 b 743 626 675 794 743 735 l 743 597 l 982 597 l 982 631 b 544 989 982 844 828 989 b 65 486 224 989 65 803 b 542 -17 65 156 222 -17 b 982 364 842 -17 982 149 l 982 465 z "},"Ħ":{"ha":1114,"x_min":0,"x_max":0,"o":"m 122 0 l 364 0 l 364 475 b 385 496 364 482 368 496 l 728 496 b 749 475 744 496 749 482 l 749 0 l 992 0 l 992 749 l 1075 749 l 1075 765 l 992 765 l 992 972 l 749 972 l 749 765 l 364 765 l 364 972 l 122 972 l 122 765 l 39 765 l 39 749 l 122 749 z m 728 513 l 385 513 b 364 533 368 513 364 525 l 364 749 l 749 749 l 749 533 b 728 513 749 525 744 513 z "},"Ĥ":{"ha":1114,"x_min":0,"x_max":0,"o":"m 754 1015 l 772 1015 l 560 1210 l 553 1210 l 340 1015 l 357 1015 l 556 1079 z m 122 0 l 364 0 l 364 475 b 385 496 364 482 368 496 l 728 496 b 749 475 744 496 749 482 l 749 0 l 992 0 l 992 972 l 749 972 l 749 533 b 728 513 749 525 744 513 l 385 513 b 364 533 368 513 364 525 l 364 972 l 122 972 z "},"Í":{"ha":486,"x_min":0,"x_max":0,"o":"m 233 1015 l 244 1015 l 524 1182 l 524 1190 l 301 1190 z m 122 0 l 364 0 l 364 972 l 122 972 z "},"Î":{"ha":486,"x_min":0,"x_max":0,"o":"m 440 1015 l 458 1015 l 246 1210 l 239 1210 l 26 1015 l 43 1015 l 242 1079 z m 122 0 l 364 0 l 364 972 l 122 972 z "},"Ï":{"ha":486,"x_min":0,"x_max":0,"o":"m 119 1032 b 213 1124 175 1032 213 1068 b 119 1215 213 1181 175 1215 b 26 1124 65 1215 26 1181 b 119 1032 26 1068 65 1032 z m 368 1032 b 460 1124 422 1032 460 1068 b 368 1215 460 1181 422 1215 b 275 1124 314 1215 275 1181 b 368 1032 275 1068 314 1032 z m 122 0 l 364 0 l 364 972 l 122 972 z "},"Ì":{"ha":486,"x_min":0,"x_max":0,"o":"m 264 1015 l 196 1190 l -28 1190 l -28 1182 l 253 1015 z m 122 0 l 364 0 l 364 972 l 122 972 z "},"Ĭ":{"ha":486,"x_min":0,"x_max":0,"o":"m 242 1013 b 435 1190 358 1013 435 1072 l 435 1213 l 422 1213 l 422 1203 b 339 1133 422 1151 396 1133 l 147 1133 b 63 1203 89 1133 63 1151 l 63 1213 l 50 1213 l 50 1189 b 242 1013 50 1071 126 1013 z m 122 0 l 364 0 l 364 972 l 122 972 z "},"İ":{"ha":486,"x_min":0,"x_max":0,"o":"m 244 1026 b 344 1126 304 1026 344 1067 b 244 1225 344 1186 304 1225 b 140 1126 183 1225 140 1186 b 244 1026 140 1067 183 1026 z m 122 0 l 364 0 l 364 972 l 122 972 z "},"Ī":{"ha":486,"x_min":0,"x_max":0,"o":"m 31 1056 l 457 1056 l 457 1182 l 31 1182 z m 122 0 l 364 0 l 364 972 l 122 972 z "},"Į":{"ha":486,"x_min":0,"x_max":0,"o":"m 122 0 l 264 0 b 94 -169 151 -49 94 -99 b 222 -278 94 -236 139 -278 l 304 -278 l 304 -164 l 243 -164 b 207 -128 218 -164 207 -154 l 207 -96 b 290 0 207 -44 226 -26 l 364 0 l 364 972 l 122 972 z "},"Ĩ":{"ha":486,"x_min":0,"x_max":0,"o":"m 306 1044 b 444 1106 379 1021 414 1040 l 488 1197 l 475 1201 l 463 1176 b 349 1153 442 1133 419 1132 l 229 1192 b 92 1135 160 1214 121 1193 l 47 1042 l 60 1038 l 72 1063 b 172 1089 90 1100 119 1107 z m 122 0 l 364 0 l 364 972 l 122 972 z "},"Ĵ":{"ha":922,"x_min":0,"x_max":0,"o":"m 679 1015 l 697 1015 l 485 1210 l 478 1210 l 265 1015 l 282 1015 l 481 1079 z m 814 299 l 814 972 l 160 972 l 160 956 l 554 956 b 575 935 569 956 575 949 l 575 293 b 438 172 575 213 528 172 b 296 286 347 172 296 211 l 296 414 l 65 414 l 65 272 b 435 -17 65 90 203 -17 b 814 299 683 -17 814 100 z "},"Ĳ":{"ha":1363,"x_min":0,"x_max":0,"o":"m 111 0 l 353 0 l 353 972 l 111 972 z m 1254 299 l 1254 972 l 600 972 l 600 956 l 994 956 b 1015 935 1010 956 1015 949 l 1015 293 b 878 172 1015 213 968 172 b 736 286 788 172 736 211 l 736 414 l 506 414 l 506 272 b 875 -17 506 90 643 -17 b 1254 299 1124 -17 1254 100 z "},"Ķ":{"ha":1014,"x_min":0,"x_max":0,"o":"m 122 0 l 358 0 l 358 375 l 492 525 l 743 0 l 1008 0 l 668 725 l 836 914 b 913 956 868 950 881 956 l 971 956 l 971 972 l 122 972 z m 817 956 b 832 942 828 956 832 950 b 817 917 832 935 829 931 l 358 400 l 358 956 z m 454 -271 l 468 -271 l 615 -99 l 615 -85 l 454 -85 z "},"Ĺ":{"ha":814,"x_min":0,"x_max":0,"o":"m 238 1015 l 249 1015 l 528 1182 l 528 1190 l 306 1190 z m 122 0 l 793 0 l 793 213 l 364 213 l 364 972 l 122 972 z "},"Ľ":{"ha":814,"x_min":0,"x_max":0,"o":"m 122 0 l 793 0 l 793 213 l 364 213 l 364 972 l 122 972 z m 481 753 l 494 753 l 642 961 l 642 972 l 481 972 z "},"Ļ":{"ha":814,"x_min":0,"x_max":0,"o":"m 122 0 l 793 0 l 793 213 l 364 213 l 364 972 l 122 972 z m 383 -271 l 397 -271 l 544 -99 l 544 -85 l 383 -85 z "},"Ŀ":{"ha":814,"x_min":0,"x_max":0,"o":"m 122 0 l 793 0 l 793 213 l 364 213 l 364 972 l 122 972 z m 651 435 b 779 563 728 435 779 486 b 651 688 779 638 728 688 b 521 563 572 688 521 638 b 651 435 521 486 572 435 z "},"Ñ":{"ha":1035,"x_min":0,"x_max":0,"o":"m 669 1044 b 808 1106 743 1021 778 1040 l 851 1197 l 839 1201 l 826 1176 b 713 1153 806 1133 783 1132 l 593 1192 b 456 1135 524 1214 485 1193 l 411 1042 l 424 1038 l 436 1063 b 536 1089 454 1100 483 1107 z m 439 972 l 122 972 l 122 0 l 347 0 l 347 707 l 906 -26 l 919 -26 l 919 972 l 901 972 l 901 415 b 888 397 901 403 896 397 b 864 414 879 397 876 399 z "},"Ń":{"ha":1035,"x_min":0,"x_max":0,"o":"m 586 1015 l 597 1015 l 876 1182 l 876 1190 l 654 1190 z m 439 972 l 122 972 l 122 0 l 347 0 l 347 707 l 906 -26 l 919 -26 l 919 972 l 901 972 l 901 415 b 888 397 901 403 896 397 b 864 414 879 397 876 399 z "},"Ň":{"ha":1035,"x_min":0,"x_max":0,"o":"m 849 1210 l 831 1210 l 632 1147 l 433 1210 l 417 1210 l 629 1015 l 636 1015 z m 439 972 l 122 972 l 122 0 l 347 0 l 347 707 l 906 -26 l 919 -26 l 919 972 l 901 972 l 901 415 b 888 397 901 403 896 397 b 864 414 879 397 876 399 z "},"Ņ":{"ha":1035,"x_min":0,"x_max":0,"o":"m 439 972 l 122 972 l 122 0 l 347 0 l 347 707 l 906 -26 l 919 -26 l 919 972 l 901 972 l 901 415 b 888 397 901 403 896 397 b 864 414 879 397 876 399 z m 506 -271 l 519 -271 l 667 -99 l 667 -85 l 506 -85 z "},"Ŋ":{"ha":1035,"x_min":0,"x_max":0,"o":"m 919 -229 l 919 972 l 901 972 l 901 415 b 888 397 901 403 896 397 b 864 414 879 397 876 399 l 439 972 l 122 972 l 122 0 l 347 0 l 347 707 l 901 -21 l 901 -228 b 871 -260 901 -250 892 -260 l 738 -260 l 738 -278 l 871 -278 b 919 -229 903 -278 919 -261 z "},"Ó":{"ha":1089,"x_min":0,"x_max":0,"o":"m 528 1015 l 539 1015 l 818 1182 l 818 1190 l 596 1190 z m 544 -17 b 1024 486 858 -17 1024 158 b 544 989 1024 815 858 989 b 65 486 231 989 65 814 b 544 -17 65 157 231 -17 z m 544 794 b 775 572 682 794 775 717 l 775 407 b 544 178 775 257 690 178 b 314 407 399 178 314 257 l 314 572 b 544 794 314 717 407 794 z "},"Ô":{"ha":1089,"x_min":0,"x_max":0,"o":"m 742 1015 l 760 1015 l 547 1210 l 540 1210 l 328 1015 l 344 1015 l 543 1079 z m 544 -17 b 1024 486 858 -17 1024 158 b 544 989 1024 815 858 989 b 65 486 231 989 65 814 b 544 -17 65 157 231 -17 z m 544 794 b 775 572 682 794 775 717 l 775 407 b 544 178 775 257 690 178 b 314 407 399 178 314 257 l 314 572 b 544 794 314 717 407 794 z "},"Ö":{"ha":1089,"x_min":0,"x_max":0,"o":"m 421 1032 b 514 1124 476 1032 514 1068 b 421 1215 514 1181 476 1215 b 328 1124 367 1215 328 1181 b 421 1032 328 1068 367 1032 z m 669 1032 b 761 1124 724 1032 761 1068 b 669 1215 761 1181 724 1215 b 576 1124 615 1215 576 1181 b 669 1032 576 1068 615 1032 z m 544 -17 b 1024 486 858 -17 1024 158 b 544 989 1024 815 858 989 b 65 486 231 989 65 814 b 544 -17 65 157 231 -17 z m 544 794 b 775 572 682 794 775 717 l 775 407 b 544 178 775 257 690 178 b 314 407 399 178 314 257 l 314 572 b 544 794 314 717 407 794 z "},"Ò":{"ha":1089,"x_min":0,"x_max":0,"o":"m 568 1015 l 500 1190 l 276 1190 l 276 1182 l 557 1015 z m 544 -17 b 1024 486 858 -17 1024 158 b 544 989 1024 815 858 989 b 65 486 231 989 65 814 b 544 -17 65 157 231 -17 z m 544 794 b 775 572 682 794 775 717 l 775 407 b 544 178 775 257 690 178 b 314 407 399 178 314 257 l 314 572 b 544 794 314 717 407 794 z "},"Õ":{"ha":1089,"x_min":0,"x_max":0,"o":"m 586 1044 b 725 1106 660 1021 694 1040 l 768 1197 l 756 1201 l 743 1176 b 629 1153 722 1133 700 1132 l 510 1192 b 372 1135 440 1214 401 1193 l 328 1042 l 340 1038 l 353 1063 b 453 1089 371 1100 400 1107 z m 544 -17 b 1024 486 858 -17 1024 158 b 544 989 1024 815 858 989 b 65 486 231 989 65 814 b 544 -17 65 157 231 -17 z m 544 794 b 775 572 682 794 775 717 l 775 407 b 544 178 775 257 690 178 b 314 407 399 178 314 257 l 314 572 b 544 794 314 717 407 794 z "},"Ŏ":{"ha":1089,"x_min":0,"x_max":0,"o":"m 544 1013 b 738 1190 661 1013 738 1072 l 738 1213 l 725 1213 l 725 1203 b 642 1133 725 1151 699 1133 l 450 1133 b 365 1203 392 1133 365 1151 l 365 1213 l 353 1213 l 353 1189 b 544 1013 353 1071 429 1013 z m 544 -17 b 1024 486 858 -17 1024 158 b 544 989 1024 815 858 989 b 65 486 231 989 65 814 b 544 -17 65 157 231 -17 z m 544 794 b 775 572 682 794 775 717 l 775 407 b 544 178 775 257 690 178 b 314 407 399 178 314 257 l 314 572 b 544 794 314 717 407 794 z "},"Ő":{"ha":1089,"x_min":0,"x_max":0,"o":"m 401 1015 l 413 1015 l 632 1188 l 632 1196 l 469 1196 z m 606 1015 l 617 1015 l 836 1188 l 836 1196 l 674 1196 z m 544 -17 b 1024 486 858 -17 1024 158 b 544 989 1024 815 858 989 b 65 486 231 989 65 814 b 544 -17 65 157 231 -17 z m 544 794 b 775 572 682 794 775 717 l 775 407 b 544 178 775 257 690 178 b 314 407 399 178 314 257 l 314 572 b 544 794 314 717 407 794 z "},"Ō":{"ha":1089,"x_min":0,"x_max":0,"o":"m 332 1056 l 758 1056 l 758 1182 l 332 1182 z m 544 -17 b 1024 486 858 -17 1024 158 b 544 989 1024 815 858 989 b 65 486 231 989 65 814 b 544 -17 65 157 231 -17 z m 544 794 b 775 572 682 794 775 717 l 775 407 b 544 178 775 257 690 178 b 314 407 399 178 314 257 l 314 572 b 544 794 314 717 407 794 z "},"Ŕ":{"ha":1008,"x_min":0,"x_max":0,"o":"m 488 1015 l 499 1015 l 778 1182 l 778 1190 l 556 1190 z m 122 0 l 364 0 l 364 413 b 385 433 364 419 368 433 l 425 433 b 458 413 442 433 446 431 l 714 0 l 989 0 l 761 361 l 535 361 b 497 383 517 361 507 367 l 465 433 l 615 433 b 942 689 815 433 942 493 b 632 972 942 885 819 972 l 122 972 z m 581 783 b 700 674 657 783 700 742 l 700 560 b 581 450 700 490 658 450 l 385 450 b 364 471 368 450 364 463 l 364 783 z "},"Ř":{"ha":1008,"x_min":0,"x_max":0,"o":"m 728 1210 l 710 1210 l 511 1147 l 313 1210 l 296 1210 l 508 1015 l 515 1015 z m 122 0 l 364 0 l 364 413 b 385 433 364 419 368 433 l 425 433 b 458 413 442 433 446 431 l 714 0 l 989 0 l 761 361 l 535 361 b 497 383 517 361 507 367 l 465 433 l 615 433 b 942 689 815 433 942 493 b 632 972 942 885 819 972 l 122 972 z m 581 783 b 700 674 657 783 700 742 l 700 560 b 581 450 700 490 658 450 l 385 450 b 364 471 368 450 364 463 l 364 783 z "},"Ŗ":{"ha":1008,"x_min":0,"x_max":0,"o":"m 122 0 l 364 0 l 364 413 b 385 433 364 419 368 433 l 425 433 b 458 413 442 433 446 431 l 714 0 l 989 0 l 761 361 l 535 361 b 497 383 517 361 507 367 l 465 433 l 615 433 b 942 689 815 433 942 493 b 632 972 942 885 819 972 l 122 972 z m 581 783 b 700 674 657 783 700 742 l 700 560 b 581 450 700 490 658 450 l 385 450 b 364 471 368 450 364 463 l 364 783 z m 440 -271 l 454 -271 l 601 -99 l 601 -85 l 440 -85 z "},"Š":{"ha":979,"x_min":0,"x_max":0,"o":"m 706 1210 l 688 1210 l 489 1147 l 290 1210 l 274 1210 l 486 1015 l 493 1015 z m 485 800 b 656 679 610 800 656 760 l 656 614 l 904 614 l 904 675 b 485 989 904 886 758 989 b 68 713 213 989 68 879 b 332 500 68 571 143 517 l 550 482 b 668 367 639 474 668 438 l 668 292 b 486 172 668 213 622 172 b 313 297 357 172 313 213 l 313 364 l 60 364 l 60 303 b 486 -17 60 89 210 -17 b 924 268 756 -17 924 83 b 672 489 924 397 860 474 l 449 506 b 319 613 357 514 319 544 l 319 683 b 485 800 319 761 361 800 z "},"Ś":{"ha":979,"x_min":0,"x_max":0,"o":"m 468 1015 l 479 1015 l 758 1182 l 758 1190 l 536 1190 z m 485 800 b 656 679 610 800 656 760 l 656 614 l 904 614 l 904 675 b 485 989 904 886 758 989 b 68 713 213 989 68 879 b 332 500 68 571 143 517 l 550 482 b 668 367 639 474 668 438 l 668 292 b 486 172 668 213 622 172 b 313 297 357 172 313 213 l 313 364 l 60 364 l 60 303 b 486 -17 60 89 210 -17 b 924 268 756 -17 924 83 b 672 489 924 397 860 474 l 449 506 b 319 613 357 514 319 544 l 319 683 b 485 800 319 761 361 800 z "},"Ş":{"ha":979,"x_min":0,"x_max":0,"o":"m 443 -103 l 499 -103 b 529 -133 519 -103 529 -114 l 529 -157 b 499 -187 529 -176 519 -187 l 397 -187 l 397 -278 l 547 -278 b 653 -183 613 -278 653 -242 b 547 -89 653 -124 614 -89 l 482 -89 b 471 -71 471 -89 467 -82 l 493 -17 b 924 268 756 -17 924 83 b 672 489 924 397 860 474 l 449 506 b 319 613 357 514 319 544 l 319 683 b 485 800 319 761 361 800 b 656 679 610 800 656 760 l 656 614 l 904 614 l 904 675 b 485 989 904 886 758 989 b 68 713 213 989 68 879 b 332 500 68 571 143 517 l 550 482 b 668 367 639 474 668 438 l 668 292 b 486 172 668 213 622 172 b 313 297 357 172 313 213 l 313 364 l 60 364 l 60 303 b 476 -17 60 92 207 -14 z "},"Ŝ":{"ha":979,"x_min":0,"x_max":0,"o":"m 688 1015 l 706 1015 l 493 1210 l 486 1210 l 274 1015 l 290 1015 l 489 1079 z m 485 800 b 656 679 610 800 656 760 l 656 614 l 904 614 l 904 675 b 485 989 904 886 758 989 b 68 713 213 989 68 879 b 332 500 68 571 143 517 l 550 482 b 668 367 639 474 668 438 l 668 292 b 486 172 668 213 622 172 b 313 297 357 172 313 213 l 313 364 l 60 364 l 60 303 b 486 -17 60 89 210 -17 b 924 268 756 -17 924 83 b 672 489 924 397 860 474 l 449 506 b 319 613 357 514 319 544 l 319 683 b 485 800 319 761 361 800 z "},"Ș":{"ha":979,"x_min":0,"x_max":0,"o":"m 485 800 b 656 679 610 800 656 760 l 656 614 l 904 614 l 904 675 b 485 989 904 886 758 989 b 68 713 213 989 68 879 b 332 500 68 571 143 517 l 550 482 b 668 367 639 474 668 438 l 668 292 b 486 172 668 213 622 172 b 313 297 357 172 313 213 l 313 364 l 60 364 l 60 303 b 486 -17 60 89 210 -17 b 924 268 756 -17 924 83 b 672 489 924 397 860 474 l 449 506 b 319 613 357 514 319 544 l 319 683 b 485 800 319 761 361 800 z m 422 -271 l 436 -271 l 583 -99 l 583 -85 l 422 -85 z "},"Ŧ":{"ha":889,"x_min":0,"x_max":0,"o":"m 322 0 l 565 0 l 565 401 l 761 401 l 761 418 l 565 418 l 565 760 l 860 760 l 860 972 l 29 972 l 29 760 l 322 760 l 322 418 l 128 418 l 128 401 l 322 401 z "},"Ť":{"ha":889,"x_min":0,"x_max":0,"o":"m 660 1210 l 642 1210 l 443 1147 l 244 1210 l 228 1210 l 440 1015 l 447 1015 z m 322 0 l 565 0 l 565 760 l 860 760 l 860 972 l 29 972 l 29 760 l 322 760 z "},"Ţ":{"ha":889,"x_min":0,"x_max":0,"o":"m 322 0 l 565 0 l 565 760 l 860 760 l 860 972 l 29 972 l 29 760 l 322 760 z m 363 -271 l 376 -271 l 524 -99 l 524 -85 l 363 -85 z "},"Ț":{"ha":889,"x_min":0,"x_max":0,"o":"m 322 0 l 565 0 l 565 760 l 860 760 l 860 972 l 29 972 l 29 760 l 322 760 z m 363 -271 l 376 -271 l 524 -99 l 524 -85 l 363 -85 z "},"Ú":{"ha":1068,"x_min":0,"x_max":0,"o":"m 510 1015 l 521 1015 l 800 1182 l 800 1190 l 578 1190 z m 961 338 l 961 972 l 718 972 l 718 333 b 533 178 718 231 653 178 b 350 333 415 178 350 231 l 350 972 l 107 972 l 107 338 b 533 -17 107 106 254 -17 b 961 338 814 -17 961 106 z "},"Û":{"ha":1068,"x_min":0,"x_max":0,"o":"m 732 1015 l 750 1015 l 538 1210 l 531 1210 l 318 1015 l 335 1015 l 533 1079 z m 961 338 l 961 972 l 718 972 l 718 333 b 533 178 718 231 653 178 b 350 333 415 178 350 231 l 350 972 l 107 972 l 107 338 b 533 -17 107 106 254 -17 b 961 338 814 -17 961 106 z "},"Ü":{"ha":1068,"x_min":0,"x_max":0,"o":"m 410 1032 b 503 1124 465 1032 503 1068 b 410 1215 503 1181 465 1215 b 317 1124 356 1215 317 1181 b 410 1032 317 1068 356 1032 z m 658 1032 b 750 1124 713 1032 750 1068 b 658 1215 750 1181 713 1215 b 565 1124 604 1215 565 1181 b 658 1032 565 1068 604 1032 z m 961 338 l 961 972 l 718 972 l 718 333 b 533 178 718 231 653 178 b 350 333 415 178 350 231 l 350 972 l 107 972 l 107 338 b 533 -17 107 106 254 -17 b 961 338 814 -17 961 106 z "},"Ù":{"ha":1068,"x_min":0,"x_max":0,"o":"m 574 1015 l 506 1190 l 282 1190 l 282 1182 l 563 1015 z m 961 338 l 961 972 l 718 972 l 718 333 b 533 178 718 231 653 178 b 350 333 415 178 350 231 l 350 972 l 107 972 l 107 338 b 533 -17 107 106 254 -17 b 961 338 814 -17 961 106 z "},"Ŭ":{"ha":1068,"x_min":0,"x_max":0,"o":"m 533 1013 b 726 1190 650 1013 726 1072 l 726 1213 l 714 1213 l 714 1203 b 631 1133 714 1151 688 1133 l 439 1133 b 354 1203 381 1133 354 1151 l 354 1213 l 342 1213 l 342 1189 b 533 1013 342 1071 418 1013 z m 961 338 l 961 972 l 718 972 l 718 333 b 533 178 718 231 653 178 b 350 333 415 178 350 231 l 350 972 l 107 972 l 107 338 b 533 -17 107 106 254 -17 b 961 338 814 -17 961 106 z "},"Ű":{"ha":1068,"x_min":0,"x_max":0,"o":"m 389 1015 l 400 1015 l 619 1188 l 619 1196 l 457 1196 z m 593 1015 l 604 1015 l 824 1188 l 824 1196 l 661 1196 z m 961 338 l 961 972 l 718 972 l 718 333 b 533 178 718 231 653 178 b 350 333 415 178 350 231 l 350 972 l 107 972 l 107 338 b 533 -17 107 106 254 -17 b 961 338 814 -17 961 106 z "},"Ū":{"ha":1068,"x_min":0,"x_max":0,"o":"m 321 1056 l 747 1056 l 747 1182 l 321 1182 z m 961 338 l 961 972 l 718 972 l 718 333 b 533 178 718 231 653 178 b 350 333 415 178 350 231 l 350 972 l 107 972 l 107 338 b 533 -17 107 106 254 -17 b 961 338 814 -17 961 106 z "},"Ų":{"ha":1068,"x_min":0,"x_max":0,"o":"m 961 338 l 961 972 l 718 972 l 718 333 b 533 178 718 231 653 178 b 350 333 415 178 350 231 l 350 972 l 107 972 l 107 338 b 533 -17 107 106 254 -17 b 646 -10 574 -17 611 -14 b 497 -169 547 -54 497 -103 b 625 -278 497 -236 542 -278 l 707 -278 l 707 -164 l 646 -164 b 610 -128 621 -164 610 -154 l 610 -96 b 690 -1 610 -44 629 -26 b 961 338 868 39 961 154 z "},"Ů":{"ha":1068,"x_min":0,"x_max":0,"o":"m 533 1004 b 660 1118 606 1004 660 1053 b 533 1232 660 1185 606 1232 b 408 1118 463 1232 408 1185 b 533 1004 408 1053 463 1004 z m 533 1222 b 611 1163 582 1222 611 1199 l 611 1072 b 533 1014 611 1036 582 1014 b 457 1072 486 1014 457 1036 l 457 1163 b 533 1222 457 1199 486 1222 z m 961 338 l 961 972 l 718 972 l 718 333 b 533 178 718 231 653 178 b 350 333 415 178 350 231 l 350 972 l 107 972 l 107 338 b 533 -17 107 106 254 -17 b 961 338 814 -17 961 106 z "},"Ũ":{"ha":1068,"x_min":0,"x_max":0,"o":"m 597 1044 b 736 1106 671 1021 706 1040 l 779 1197 l 767 1201 l 754 1176 b 640 1153 733 1133 711 1132 l 521 1192 b 383 1135 451 1214 413 1193 l 339 1042 l 351 1038 l 364 1063 b 464 1089 382 1100 411 1107 z m 961 338 l 961 972 l 718 972 l 718 333 b 533 178 718 231 653 178 b 350 333 415 178 350 231 l 350 972 l 107 972 l 107 338 b 533 -17 107 106 254 -17 b 961 338 814 -17 961 106 z "},"Ẃ":{"ha":1363,"x_min":0,"x_max":0,"o":"m 700 1015 l 711 1015 l 990 1182 l 990 1190 l 768 1190 z m 254 972 l 8 972 l 238 0 l 485 0 l 593 468 b 611 488 596 481 600 488 b 629 468 622 488 625 481 l 778 0 l 1135 0 l 1349 972 l 1110 972 l 950 219 l 706 989 l 693 989 l 475 39 z "},"Ŵ":{"ha":1363,"x_min":0,"x_max":0,"o":"m 894 1015 l 913 1015 l 700 1210 l 693 1210 l 481 1015 l 497 1015 l 696 1079 z m 254 972 l 8 972 l 238 0 l 485 0 l 593 468 b 611 488 596 481 600 488 b 629 468 622 488 625 481 l 778 0 l 1135 0 l 1349 972 l 1110 972 l 950 219 l 706 989 l 693 989 l 475 39 z "},"Ẅ":{"ha":1363,"x_min":0,"x_max":0,"o":"m 576 1032 b 669 1124 632 1032 669 1068 b 576 1215 669 1181 632 1215 b 483 1124 522 1215 483 1181 b 576 1032 483 1068 522 1032 z m 825 1032 b 917 1124 879 1032 917 1068 b 825 1215 917 1181 879 1215 b 732 1124 771 1215 732 1181 b 825 1032 732 1068 771 1032 z m 254 972 l 8 972 l 238 0 l 485 0 l 593 468 b 611 488 596 481 600 488 b 629 468 622 488 625 481 l 778 0 l 1135 0 l 1349 972 l 1110 972 l 950 219 l 706 989 l 693 989 l 475 39 z "},"Ẁ":{"ha":1363,"x_min":0,"x_max":0,"o":"m 699 1015 l 631 1190 l 407 1190 l 407 1182 l 688 1015 z m 254 972 l 8 972 l 238 0 l 485 0 l 593 468 b 611 488 596 481 600 488 b 629 468 622 488 625 481 l 778 0 l 1135 0 l 1349 972 l 1110 972 l 950 219 l 706 989 l 693 989 l 475 39 z "},"Ý":{"ha":835,"x_min":0,"x_max":0,"o":"m 500 1015 l 511 1015 l 790 1182 l 790 1190 l 568 1190 z m 315 0 l 558 0 l 558 408 b 575 475 558 438 561 449 l 831 972 l 810 972 l 563 489 b 547 476 557 479 553 476 b 532 489 540 476 538 478 l 283 972 l 4 972 l 315 386 z "},"Ÿ":{"ha":835,"x_min":0,"x_max":0,"o":"m 376 1032 b 469 1124 432 1032 469 1068 b 376 1215 469 1181 432 1215 b 283 1124 322 1215 283 1181 b 376 1032 283 1068 322 1032 z m 625 1032 b 717 1124 679 1032 717 1068 b 625 1215 717 1181 679 1215 b 532 1124 571 1215 532 1181 b 625 1032 532 1068 571 1032 z m 315 0 l 558 0 l 558 408 b 575 475 558 438 561 449 l 831 972 l 810 972 l 563 489 b 547 476 557 479 553 476 b 532 489 540 476 538 478 l 283 972 l 4 972 l 315 386 z "},"Ŷ":{"ha":835,"x_min":0,"x_max":0,"o":"m 685 1015 l 703 1015 l 490 1210 l 483 1210 l 271 1015 l 288 1015 l 486 1079 z m 315 0 l 558 0 l 558 408 b 575 475 558 438 561 449 l 831 972 l 810 972 l 563 489 b 547 476 557 479 553 476 b 532 489 540 476 538 478 l 283 972 l 4 972 l 315 386 z "},"Ỳ":{"ha":835,"x_min":0,"x_max":0,"o":"m 551 1015 l 483 1190 l 260 1190 l 260 1182 l 540 1015 z m 315 0 l 558 0 l 558 408 b 575 475 558 438 561 449 l 831 972 l 810 972 l 563 489 b 547 476 557 479 553 476 b 532 489 540 476 538 478 l 283 972 l 4 972 l 315 386 z "},"Ž":{"ha":843,"x_min":0,"x_max":0,"o":"m 642 1210 l 624 1210 l 425 1147 l 226 1210 l 210 1210 l 422 1015 l 429 1015 z m 815 213 l 372 213 l 814 958 l 814 972 l 42 972 l 42 956 l 521 956 b 542 938 536 956 542 949 b 538 924 542 933 540 929 l -1 14 l -1 0 l 815 0 z "},"Ź":{"ha":843,"x_min":0,"x_max":0,"o":"m 363 1015 l 374 1015 l 653 1182 l 653 1190 l 431 1190 z m 815 213 l 372 213 l 814 958 l 814 972 l 42 972 l 42 956 l 521 956 b 542 938 536 956 542 949 b 538 924 542 933 540 929 l -1 14 l -1 0 l 815 0 z "},"Ż":{"ha":843,"x_min":0,"x_max":0,"o":"m 428 1026 b 528 1126 488 1026 528 1067 b 428 1225 528 1186 488 1225 b 324 1126 367 1225 324 1186 b 428 1026 324 1067 367 1026 z m 815 213 l 372 213 l 814 958 l 814 972 l 42 972 l 42 956 l 521 956 b 542 938 536 956 542 949 b 538 924 542 933 540 929 l -1 14 l -1 0 l 815 0 z "},"á":{"ha":822,"x_min":0,"x_max":0,"o":"m 381 831 l 392 831 l 669 1039 l 669 1047 l 449 1047 z m 60 506 l 268 506 l 268 529 b 397 619 268 590 314 619 b 525 524 485 619 525 589 l 525 521 b 321 397 525 447 494 418 b 49 182 103 372 49 304 b 269 -17 49 40 135 -17 b 525 174 383 -17 488 43 l 525 0 l 743 0 l 743 510 b 404 775 743 683 626 775 b 60 529 190 775 60 690 z m 271 199 l 271 268 b 404 393 271 343 311 369 b 525 461 475 410 510 426 l 525 279 b 378 88 525 110 457 88 b 271 199 306 88 271 122 z "},"â":{"ha":822,"x_min":0,"x_max":0,"o":"m 597 831 l 615 831 l 408 1067 l 401 1067 l 196 831 l 213 831 l 404 913 z m 60 506 l 268 506 l 268 529 b 397 619 268 590 314 619 b 525 524 485 619 525 589 l 525 521 b 321 397 525 447 494 418 b 49 182 103 372 49 304 b 269 -17 49 40 135 -17 b 525 174 383 -17 488 43 l 525 0 l 743 0 l 743 510 b 404 775 743 683 626 775 b 60 529 190 775 60 690 z m 271 199 l 271 268 b 404 393 271 343 311 369 b 525 461 475 410 510 426 l 525 279 b 378 88 525 110 457 88 b 271 199 306 88 271 122 z "},"ä":{"ha":822,"x_min":0,"x_max":0,"o":"m 272 843 b 378 950 336 843 378 888 b 272 1056 378 1015 336 1056 b 165 950 208 1056 165 1015 b 272 843 165 888 208 843 z m 539 843 b 644 950 601 843 644 888 b 539 1056 644 1015 601 1056 b 431 950 476 1056 431 1015 b 539 843 431 888 476 843 z m 60 506 l 268 506 l 268 529 b 397 619 268 590 314 619 b 525 524 485 619 525 589 l 525 521 b 321 397 525 447 494 418 b 49 182 103 372 49 304 b 269 -17 49 40 135 -17 b 525 174 383 -17 488 43 l 525 0 l 743 0 l 743 510 b 404 775 743 683 626 775 b 60 529 190 775 60 690 z m 271 199 l 271 268 b 404 393 271 343 311 369 b 525 461 475 410 510 426 l 525 279 b 378 88 525 110 457 88 b 271 199 306 88 271 122 z "},"à":{"ha":822,"x_min":0,"x_max":0,"o":"m 463 832 l 394 1049 l 175 1049 l 175 1040 l 451 832 z m 60 506 l 268 506 l 268 529 b 397 619 268 590 314 619 b 525 524 485 619 525 589 l 525 521 b 321 397 525 447 494 418 b 49 182 103 372 49 304 b 269 -17 49 40 135 -17 b 525 174 383 -17 488 43 l 525 0 l 743 0 l 743 510 b 404 775 743 683 626 775 b 60 529 190 775 60 690 z m 271 199 l 271 268 b 404 393 271 343 311 369 b 525 461 475 410 510 426 l 525 279 b 378 88 525 110 457 88 b 271 199 306 88 271 122 z "},"å":{"ha":822,"x_min":0,"x_max":0,"o":"m 404 833 b 532 949 478 833 532 882 b 404 1064 532 1017 478 1064 b 278 949 332 1064 278 1017 b 404 833 278 882 332 833 z m 404 1054 b 482 994 453 1054 482 1031 l 482 903 b 404 843 482 867 453 843 b 326 903 356 843 326 867 l 326 994 b 404 1054 326 1031 356 1054 z m 60 506 l 268 506 l 268 529 b 397 619 268 590 314 619 b 525 524 485 619 525 589 l 525 521 b 321 397 525 447 494 418 b 49 182 103 372 49 304 b 269 -17 49 40 135 -17 b 525 174 383 -17 488 43 l 525 0 l 743 0 l 743 510 b 404 775 743 683 626 775 b 60 529 190 775 60 690 z m 271 199 l 271 268 b 404 393 271 343 311 369 b 525 461 475 410 510 426 l 525 279 b 378 88 525 110 457 88 b 271 199 306 88 271 122 z "},"ã":{"ha":822,"x_min":0,"x_max":0,"o":"m 590 928 l 638 1040 l 625 1044 l 611 1013 b 490 992 592 968 564 963 l 392 1032 b 242 976 326 1058 271 1043 l 193 865 l 206 861 l 219 893 b 328 921 238 933 274 943 l 438 872 b 590 928 506 844 558 856 z m 60 506 l 268 506 l 268 529 b 397 619 268 590 314 619 b 525 524 485 619 525 589 l 525 521 b 321 397 525 447 494 418 b 49 182 103 372 49 304 b 269 -17 49 40 135 -17 b 525 174 383 -17 488 43 l 525 0 l 743 0 l 743 510 b 404 775 743 683 626 775 b 60 529 190 775 60 690 z m 271 199 l 271 268 b 404 393 271 343 311 369 b 525 461 475 410 510 426 l 525 279 b 378 88 525 110 457 88 b 271 199 306 88 271 122 z "},"ă":{"ha":822,"x_min":0,"x_max":0,"o":"m 407 839 b 597 1038 522 839 597 908 l 597 1063 l 585 1063 l 585 1049 b 494 967 585 990 560 967 l 321 967 b 229 1049 254 967 229 990 l 229 1063 l 217 1063 l 217 1036 b 407 839 217 907 292 839 z m 60 506 l 268 506 l 268 529 b 397 619 268 590 314 619 b 525 524 485 619 525 589 l 525 521 b 321 397 525 447 494 418 b 49 182 103 372 49 304 b 269 -17 49 40 135 -17 b 525 174 383 -17 488 43 l 525 0 l 743 0 l 743 510 b 404 775 743 683 626 775 b 60 529 190 775 60 690 z m 271 199 l 271 268 b 404 393 271 343 311 369 b 525 461 475 410 510 426 l 525 279 b 378 88 525 110 457 88 b 271 199 306 88 271 122 z "},"ā":{"ha":822,"x_min":0,"x_max":0,"o":"m 201 875 l 611 875 l 611 1000 l 201 1000 z m 60 506 l 268 506 l 268 529 b 397 619 268 590 314 619 b 525 524 485 619 525 589 l 525 521 b 321 397 525 447 494 418 b 49 182 103 372 49 304 b 269 -17 49 40 135 -17 b 525 174 383 -17 488 43 l 525 0 l 743 0 l 743 510 b 404 775 743 683 626 775 b 60 529 190 775 60 690 z m 271 199 l 271 268 b 404 393 271 343 311 369 b 525 461 475 410 510 426 l 525 279 b 378 88 525 110 457 88 b 271 199 306 88 271 122 z "},"ą":{"ha":822,"x_min":0,"x_max":0,"o":"m 60 506 l 268 506 l 268 529 b 397 619 268 590 314 619 b 525 524 485 619 525 589 l 525 521 b 321 397 525 447 494 418 b 49 182 103 372 49 304 b 269 -17 49 40 135 -17 b 525 174 383 -17 488 43 l 525 0 l 663 0 b 493 -169 550 -49 493 -99 b 621 -278 493 -236 538 -278 l 703 -278 l 703 -164 l 642 -164 b 606 -128 617 -164 606 -154 l 606 -96 b 689 0 606 -44 625 -26 l 743 0 l 743 510 b 404 775 743 683 626 775 b 60 529 190 775 60 690 z m 271 199 l 271 268 b 404 393 271 343 311 369 b 525 461 475 410 510 426 l 525 279 b 378 88 525 110 457 88 b 271 199 306 88 271 122 z "},"ç":{"ha":833,"x_min":0,"x_max":0,"o":"m 364 -103 l 419 -103 b 450 -133 440 -103 450 -114 l 450 -157 b 419 -187 450 -176 440 -187 l 318 -187 l 318 -278 l 468 -278 b 574 -183 533 -278 574 -242 b 468 -89 574 -124 535 -89 l 403 -89 b 392 -71 392 -89 388 -82 l 414 -17 l 429 -17 b 789 286 651 -17 789 79 l 789 308 l 572 308 l 572 282 b 429 149 572 196 522 149 b 275 304 329 149 275 206 l 275 454 b 429 610 275 553 329 610 b 572 474 522 610 572 563 l 572 457 l 789 457 l 789 474 b 429 775 789 671 646 775 b 44 379 178 775 44 638 b 399 -15 44 132 164 -6 z "},"ć":{"ha":833,"x_min":0,"x_max":0,"o":"m 403 831 l 414 831 l 692 1039 l 692 1047 l 471 1047 z m 789 457 l 789 474 b 429 775 789 671 646 775 b 44 379 178 775 44 638 b 429 -17 44 121 175 -17 b 789 286 651 -17 789 79 l 789 308 l 572 308 l 572 282 b 429 149 572 196 522 149 b 275 304 329 149 275 206 l 275 454 b 429 610 275 553 329 610 b 572 474 522 610 572 563 l 572 457 z "},"č":{"ha":833,"x_min":0,"x_max":0,"o":"m 638 1065 l 619 1065 l 426 983 l 235 1065 l 218 1065 l 424 829 l 431 829 z m 789 457 l 789 474 b 429 775 789 671 646 775 b 44 379 178 775 44 638 b 429 -17 44 121 175 -17 b 789 286 651 -17 789 79 l 789 308 l 572 308 l 572 282 b 429 149 572 196 522 149 b 275 304 329 149 275 206 l 275 454 b 429 610 275 553 329 610 b 572 474 522 610 572 563 l 572 457 z "},"ĉ":{"ha":833,"x_min":0,"x_max":0,"o":"m 619 831 l 638 831 l 431 1067 l 424 1067 l 218 831 l 235 831 l 426 913 z m 789 457 l 789 474 b 429 775 789 671 646 775 b 44 379 178 775 44 638 b 429 -17 44 121 175 -17 b 789 286 651 -17 789 79 l 789 308 l 572 308 l 572 282 b 429 149 572 196 522 149 b 275 304 329 149 275 206 l 275 454 b 429 610 275 553 329 610 b 572 474 522 610 572 563 l 572 457 z "},"ċ":{"ha":833,"x_min":0,"x_max":0,"o":"m 429 838 b 550 958 503 838 550 886 b 429 1078 550 1031 503 1078 b 304 958 354 1078 304 1031 b 429 838 304 886 354 838 z m 789 457 l 789 474 b 429 775 789 671 646 775 b 44 379 178 775 44 638 b 429 -17 44 121 175 -17 b 789 286 651 -17 789 79 l 789 308 l 572 308 l 572 282 b 429 149 572 196 522 149 b 275 304 329 149 275 206 l 275 454 b 429 610 275 553 329 610 b 572 474 522 610 572 563 l 572 457 z "},"ď":{"ha":996,"x_min":0,"x_max":0,"o":"m 578 1042 l 578 547 b 321 775 542 694 454 775 b 53 379 143 775 53 647 b 321 -17 53 111 143 -17 b 578 211 454 -17 542 65 l 578 0 l 803 0 l 803 1042 z m 878 822 l 892 822 l 1039 1031 l 1039 1042 l 878 1042 z m 293 246 l 293 514 b 421 672 293 625 335 672 b 578 379 526 672 578 601 b 421 88 578 157 526 88 b 293 246 335 88 293 133 z "},"đ":{"ha":893,"x_min":0,"x_max":0,"o":"m 315 885 l 578 885 l 578 547 b 321 775 542 694 454 775 b 53 379 143 775 53 647 b 321 -17 53 111 143 -17 b 578 211 454 -17 542 65 l 578 0 l 803 0 l 803 885 l 893 885 l 893 899 l 803 899 l 803 1042 l 578 1042 l 578 899 l 315 899 z m 293 246 l 293 514 b 421 672 293 625 335 672 b 578 379 526 672 578 601 b 421 88 578 157 526 88 b 293 246 335 88 293 133 z "},"é":{"ha":821,"x_min":0,"x_max":0,"o":"m 407 831 l 418 831 l 696 1039 l 696 1047 l 475 1047 z m 264 368 b 285 389 264 375 268 389 l 772 389 b 778 457 776 415 778 436 b 421 775 778 663 649 775 b 44 379 178 775 44 640 b 422 -17 44 117 175 -17 b 776 265 649 -17 776 93 l 776 281 l 569 281 l 569 258 b 422 149 569 188 518 149 b 264 301 318 149 264 197 z m 264 463 b 424 617 264 567 319 617 b 569 488 518 617 569 574 l 569 465 b 504 403 569 414 550 403 l 285 403 b 264 424 268 403 264 415 z "},"ê":{"ha":821,"x_min":0,"x_max":0,"o":"m 608 831 l 626 831 l 419 1067 l 413 1067 l 207 831 l 224 831 l 415 913 z m 264 368 b 285 389 264 375 268 389 l 772 389 b 778 457 776 415 778 436 b 421 775 778 663 649 775 b 44 379 178 775 44 640 b 422 -17 44 117 175 -17 b 776 265 649 -17 776 93 l 776 281 l 569 281 l 569 258 b 422 149 569 188 518 149 b 264 301 318 149 264 197 z m 264 463 b 424 617 264 567 319 617 b 569 488 518 617 569 574 l 569 465 b 504 403 569 414 550 403 l 285 403 b 264 424 268 403 264 415 z "},"ë":{"ha":821,"x_min":0,"x_max":0,"o":"m 289 843 b 394 950 353 843 394 888 b 289 1056 394 1015 353 1056 b 182 950 225 1056 182 1015 b 289 843 182 888 225 843 z m 556 843 b 661 950 618 843 661 888 b 556 1056 661 1015 618 1056 b 447 950 493 1056 447 1015 b 556 843 447 888 493 843 z m 264 368 b 285 389 264 375 268 389 l 772 389 b 778 457 776 415 778 436 b 421 775 778 663 649 775 b 44 379 178 775 44 640 b 422 -17 44 117 175 -17 b 776 265 649 -17 776 93 l 776 281 l 569 281 l 569 258 b 422 149 569 188 518 149 b 264 301 318 149 264 197 z m 264 463 b 424 617 264 567 319 617 b 569 488 518 617 569 574 l 569 465 b 504 403 569 414 550 403 l 285 403 b 264 424 268 403 264 415 z "},"è":{"ha":821,"x_min":0,"x_max":0,"o":"m 443 832 l 375 1049 l 156 1049 l 156 1040 l 432 832 z m 264 368 b 285 389 264 375 268 389 l 772 389 b 778 457 776 415 778 436 b 421 775 778 663 649 775 b 44 379 178 775 44 640 b 422 -17 44 117 175 -17 b 776 265 649 -17 776 93 l 776 281 l 569 281 l 569 258 b 422 149 569 188 518 149 b 264 301 318 149 264 197 z m 264 463 b 424 617 264 567 319 617 b 569 488 518 617 569 574 l 569 465 b 504 403 569 414 550 403 l 285 403 b 264 424 268 403 264 415 z "},"ĕ":{"ha":821,"x_min":0,"x_max":0,"o":"m 414 839 b 604 1038 529 839 604 908 l 604 1063 l 592 1063 l 592 1049 b 501 967 592 990 567 967 l 328 967 b 236 1049 261 967 236 990 l 236 1063 l 224 1063 l 224 1036 b 414 839 224 907 299 839 z m 264 368 b 285 389 264 375 268 389 l 772 389 b 778 457 776 415 778 436 b 421 775 778 663 649 775 b 44 379 178 775 44 640 b 422 -17 44 117 175 -17 b 776 265 649 -17 776 93 l 776 281 l 569 281 l 569 258 b 422 149 569 188 518 149 b 264 301 318 149 264 197 z m 264 463 b 424 617 264 567 319 617 b 569 488 518 617 569 574 l 569 465 b 504 403 569 414 550 403 l 285 403 b 264 424 268 403 264 415 z "},"ě":{"ha":821,"x_min":0,"x_max":0,"o":"m 626 1065 l 608 1065 l 415 983 l 224 1065 l 207 1065 l 413 829 l 419 829 z m 264 368 b 285 389 264 375 268 389 l 772 389 b 778 457 776 415 778 436 b 421 775 778 663 649 775 b 44 379 178 775 44 640 b 422 -17 44 117 175 -17 b 776 265 649 -17 776 93 l 776 281 l 569 281 l 569 258 b 422 149 569 188 518 149 b 264 301 318 149 264 197 z m 264 463 b 424 617 264 567 319 617 b 569 488 518 617 569 574 l 569 465 b 504 403 569 414 550 403 l 285 403 b 264 424 268 403 264 415 z "},"ė":{"ha":821,"x_min":0,"x_max":0,"o":"m 421 838 b 542 958 494 838 542 886 b 421 1078 542 1031 494 1078 b 296 958 346 1078 296 1031 b 421 838 296 886 346 838 z m 264 368 b 285 389 264 375 268 389 l 772 389 b 778 457 776 415 778 436 b 421 775 778 663 649 775 b 44 379 178 775 44 640 b 422 -17 44 117 175 -17 b 776 265 649 -17 776 93 l 776 281 l 569 281 l 569 258 b 422 149 569 188 518 149 b 264 301 318 149 264 197 z m 264 463 b 424 617 264 567 319 617 b 569 488 518 617 569 574 l 569 465 b 504 403 569 414 550 403 l 285 403 b 264 424 268 403 264 415 z "},"ē":{"ha":821,"x_min":0,"x_max":0,"o":"m 213 875 l 622 875 l 622 1000 l 213 1000 z m 264 368 b 285 389 264 375 268 389 l 772 389 b 778 457 776 415 778 436 b 421 775 778 663 649 775 b 44 379 178 775 44 640 b 422 -17 44 117 175 -17 b 776 265 649 -17 776 93 l 776 281 l 569 281 l 569 258 b 422 149 569 188 518 149 b 264 301 318 149 264 197 z m 264 463 b 424 617 264 567 319 617 b 569 488 518 617 569 574 l 569 465 b 504 403 569 414 550 403 l 285 403 b 264 424 268 403 264 415 z "},"ę":{"ha":821,"x_min":0,"x_max":0,"o":"m 264 368 b 285 389 264 375 268 389 l 772 389 b 778 457 776 415 778 436 b 421 775 778 663 649 775 b 44 379 178 775 44 640 b 422 -17 44 117 175 -17 b 638 29 510 -17 582 0 b 494 -165 556 -36 494 -81 b 622 -278 494 -236 539 -278 l 718 -278 l 718 -164 l 643 -164 b 607 -128 618 -164 607 -154 l 607 -92 b 674 51 607 -39 622 0 b 776 265 740 101 776 175 l 776 281 l 569 281 l 569 258 b 422 149 569 188 518 149 b 264 301 318 149 264 197 z m 264 463 b 424 617 264 567 319 617 b 569 488 518 617 569 574 l 569 465 b 504 403 569 414 550 403 l 285 403 b 264 424 268 403 264 415 z "},"ğ":{"ha":893,"x_min":0,"x_max":0,"o":"m 456 839 b 646 1038 571 839 646 908 l 646 1063 l 633 1063 l 633 1049 b 543 967 633 990 608 967 l 369 967 b 278 1049 303 967 278 990 l 278 1063 l 265 1063 l 265 1036 b 456 839 265 907 340 839 z m 86 -25 l 86 -47 b 432 -294 86 -231 207 -294 b 803 -4 683 -294 803 -194 l 803 760 l 578 760 l 578 560 b 322 775 542 697 454 775 b 54 403 143 775 54 654 b 322 31 54 150 143 31 b 578 244 454 31 542 107 l 578 -12 b 432 -135 578 -99 535 -135 b 296 -47 332 -135 296 -106 l 296 -25 z m 294 292 l 294 514 b 422 672 294 625 336 672 b 578 403 526 672 578 613 b 422 133 578 190 526 133 b 294 292 336 133 294 181 z "},"ĝ":{"ha":893,"x_min":0,"x_max":0,"o":"m 649 831 l 667 831 l 460 1067 l 453 1067 l 247 831 l 264 831 l 456 913 z m 86 -25 l 86 -47 b 432 -294 86 -231 207 -294 b 803 -4 683 -294 803 -194 l 803 760 l 578 760 l 578 560 b 322 775 542 697 454 775 b 54 403 143 775 54 654 b 322 31 54 150 143 31 b 578 244 454 31 542 107 l 578 -12 b 432 -135 578 -99 535 -135 b 296 -47 332 -135 296 -106 l 296 -25 z m 294 292 l 294 514 b 422 672 294 625 336 672 b 578 403 526 672 578 613 b 422 133 578 190 526 133 b 294 292 336 133 294 181 z "},"ģ":{"ha":893,"x_min":0,"x_max":0,"o":"m 535 1032 l 521 1032 l 374 858 l 374 844 l 535 844 z m 86 -25 l 86 -47 b 432 -294 86 -231 207 -294 b 803 -4 683 -294 803 -194 l 803 760 l 578 760 l 578 560 b 322 775 542 697 454 775 b 54 403 143 775 54 654 b 322 31 54 150 143 31 b 578 244 454 31 542 107 l 578 -12 b 432 -135 578 -99 535 -135 b 296 -47 332 -135 296 -106 l 296 -25 z m 294 292 l 294 514 b 422 672 294 625 336 672 b 578 403 526 672 578 613 b 422 133 578 190 526 133 b 294 292 336 133 294 181 z "},"ġ":{"ha":893,"x_min":0,"x_max":0,"o":"m 457 838 b 578 958 531 838 578 886 b 457 1078 578 1031 531 1078 b 332 958 382 1078 332 1031 b 457 838 332 886 382 838 z m 86 -25 l 86 -47 b 432 -294 86 -231 207 -294 b 803 -4 683 -294 803 -194 l 803 760 l 578 760 l 578 560 b 322 775 542 697 454 775 b 54 403 143 775 54 654 b 322 31 54 150 143 31 b 578 244 454 31 542 107 l 578 -12 b 432 -135 578 -99 535 -135 b 296 -47 332 -135 296 -106 l 296 -25 z m 294 292 l 294 514 b 422 672 294 625 336 672 b 578 403 526 672 578 613 b 422 133 578 190 526 133 b 294 292 336 133 294 181 z "},"ħ":{"ha":882,"x_min":0,"x_max":0,"o":"m 90 0 l 315 0 l 315 464 b 464 667 315 628 371 667 b 576 538 546 667 576 624 l 576 0 l 800 0 l 800 539 b 572 775 800 710 708 775 b 315 581 454 775 353 711 l 315 885 l 579 885 l 579 899 l 315 899 l 315 1042 l 90 1042 l 90 899 l 0 899 l 0 885 l 90 885 z "},"ĥ":{"ha":882,"x_min":0,"x_max":0,"o":"m 585 1072 l 603 1072 l 396 1308 l 389 1308 l 183 1072 l 200 1072 l 392 1154 z m 90 0 l 315 0 l 315 464 b 464 667 315 628 371 667 b 576 538 546 667 576 624 l 576 0 l 800 0 l 800 539 b 572 775 800 710 708 775 b 315 581 454 775 353 711 l 315 1042 l 90 1042 z "},"í":{"ha":406,"x_min":0,"x_max":0,"o":"m 190 831 l 201 831 l 479 1039 l 479 1047 l 258 1047 z m 90 0 l 315 0 l 315 760 l 90 760 z "},"î":{"ha":406,"x_min":0,"x_max":0,"o":"m 394 831 l 413 831 l 206 1067 l 199 1067 l -7 831 l 10 831 l 201 913 z m 90 0 l 315 0 l 315 760 l 90 760 z "},"ï":{"ha":406,"x_min":0,"x_max":0,"o":"m 71 843 b 176 950 135 843 176 888 b 71 1056 176 1015 135 1056 b -36 950 7 1056 -36 1015 b 71 843 -36 888 7 843 z m 338 843 b 443 950 400 843 443 888 b 338 1056 443 1015 400 1056 b 229 950 275 1056 229 1015 b 338 843 229 888 275 843 z m 90 0 l 315 0 l 315 760 l 90 760 z "},"ì":{"ha":406,"x_min":0,"x_max":0,"o":"m 226 832 l 158 1049 l -61 1049 l -61 1040 l 215 832 z m 90 0 l 315 0 l 315 760 l 90 760 z "},"ĭ":{"ha":406,"x_min":0,"x_max":0,"o":"m 203 839 b 393 1038 318 839 393 908 l 393 1063 l 381 1063 l 381 1049 b 290 967 381 990 356 967 l 117 967 b 25 1049 50 967 25 990 l 25 1063 l 13 1063 l 13 1036 b 203 839 13 907 88 839 z m 90 0 l 315 0 l 315 760 l 90 760 z "},"ī":{"ha":406,"x_min":0,"x_max":0,"o":"m -1 875 l 408 875 l 408 1000 l -1 1000 z m 90 0 l 315 0 l 315 760 l 90 760 z "},"į":{"ha":406,"x_min":0,"x_max":0,"o":"m 204 832 b 332 958 282 832 332 882 b 204 1083 332 1033 282 1083 b 75 958 126 1083 75 1033 b 204 832 75 882 126 832 z m 90 0 l 233 0 b 64 -169 121 -49 64 -99 b 192 -278 64 -236 108 -278 l 274 -278 l 274 -164 l 213 -164 b 176 -128 188 -164 176 -154 l 176 -96 b 260 0 176 -44 196 -26 l 315 0 l 315 760 l 90 760 z "},"ĩ":{"ha":406,"x_min":0,"x_max":0,"o":"m 382 928 l 429 1040 l 417 1044 l 403 1013 b 282 992 383 968 356 963 l 183 1032 b 33 976 118 1058 63 1043 l -15 865 l -3 861 l 11 893 b 119 921 29 933 65 943 l 229 872 b 382 928 297 844 350 856 z m 90 0 l 315 0 l 315 760 l 90 760 z "},"ĵ":{"ha":406,"x_min":0,"x_max":0,"o":"m 394 831 l 413 831 l 206 1067 l 199 1067 l -7 831 l 10 831 l 201 913 z m 315 -133 l 315 760 l 90 760 l 90 -229 b 56 -264 90 -253 79 -264 l -29 -264 l -29 -278 l 171 -278 b 315 -133 264 -278 315 -231 z "},"ĳ":{"ha":810,"x_min":0,"x_max":0,"o":"m 204 832 b 332 958 282 832 332 882 b 204 1083 332 1033 282 1083 b 75 958 126 1083 75 1033 b 204 832 75 882 126 832 z m 610 832 b 738 958 688 832 738 882 b 610 1083 738 1033 688 1083 b 481 958 532 1083 481 1033 b 610 832 481 882 532 832 z m 90 0 l 315 0 l 315 760 l 90 760 z m 721 -133 l 721 760 l 496 760 l 496 -229 b 461 -264 496 -253 485 -264 l 376 -264 l 376 -278 l 576 -278 b 721 -133 669 -278 721 -231 z "},"ķ":{"ha":828,"x_min":0,"x_max":0,"o":"m 90 0 l 315 0 l 315 343 l 407 436 l 582 0 l 822 0 l 576 607 l 685 717 b 744 746 707 739 721 746 l 800 746 l 800 760 l 315 760 l 315 1042 l 90 1042 z m 661 746 b 675 733 669 746 675 742 b 664 715 675 728 671 722 l 315 364 l 315 746 z m 349 -271 l 363 -271 l 510 -99 l 510 -85 l 349 -85 z "},"ĸ":{"ha":828,"x_min":0,"x_max":0,"o":"m 90 0 l 315 0 l 315 343 l 407 436 l 582 0 l 822 0 l 576 607 l 685 717 b 744 746 707 739 721 746 l 800 746 l 800 760 l 90 760 z m 661 746 b 675 733 669 746 675 742 b 664 715 675 728 669 721 l 315 364 l 315 746 z "},"ĺ":{"ha":406,"x_min":0,"x_max":0,"o":"m 189 1094 l 200 1094 l 478 1303 l 478 1311 l 257 1311 z m 90 0 l 315 0 l 315 1042 l 90 1042 z "},"ľ":{"ha":506,"x_min":0,"x_max":0,"o":"m 90 0 l 315 0 l 315 1042 l 90 1042 z m 383 822 l 397 822 l 544 1031 l 544 1042 l 383 1042 z "},"ļ":{"ha":406,"x_min":0,"x_max":0,"o":"m 90 0 l 315 0 l 315 1042 l 90 1042 z m 119 -271 l 133 -271 l 281 -99 l 281 -85 l 119 -85 z "},"ŀ":{"ha":557,"x_min":0,"x_max":0,"o":"m 90 0 l 315 0 l 315 1042 l 90 1042 z m 485 400 b 613 528 561 400 613 451 b 485 653 613 603 561 653 b 354 528 406 653 354 603 b 485 400 354 451 406 400 z "},"ñ":{"ha":882,"x_min":0,"x_max":0,"o":"m 653 928 l 700 1040 l 688 1044 l 674 1013 b 553 992 654 968 626 963 l 454 1032 b 304 976 389 1058 333 1043 l 256 865 l 268 861 l 282 893 b 390 921 300 933 336 943 l 500 872 b 653 928 568 844 621 856 z m 90 0 l 315 0 l 315 464 b 464 667 315 628 371 667 b 576 538 546 667 576 624 l 576 0 l 800 0 l 800 539 b 572 775 800 710 708 775 b 315 581 454 775 353 711 l 315 760 l 90 760 z "},"ń":{"ha":882,"x_min":0,"x_max":0,"o":"m 414 831 l 425 831 l 703 1039 l 703 1047 l 482 1047 z m 90 0 l 315 0 l 315 464 b 464 667 315 628 371 667 b 576 538 546 667 576 624 l 576 0 l 800 0 l 800 539 b 572 775 800 710 708 775 b 315 581 454 775 353 711 l 315 760 l 90 760 z "},"ň":{"ha":882,"x_min":0,"x_max":0,"o":"m 676 1065 l 658 1065 l 465 983 l 274 1065 l 257 1065 l 463 829 l 469 829 z m 90 0 l 315 0 l 315 464 b 464 667 315 628 371 667 b 576 538 546 667 576 624 l 576 0 l 800 0 l 800 539 b 572 775 800 710 708 775 b 315 581 454 775 353 711 l 315 760 l 90 760 z "},"ņ":{"ha":882,"x_min":0,"x_max":0,"o":"m 90 0 l 315 0 l 315 464 b 464 667 315 628 371 667 b 576 538 546 667 576 624 l 576 0 l 800 0 l 800 539 b 572 775 800 710 708 775 b 315 581 454 775 353 711 l 315 760 l 90 760 z m 371 -271 l 385 -271 l 532 -99 l 532 -85 l 371 -85 z "},"ŋ":{"ha":882,"x_min":0,"x_max":0,"o":"m 90 0 l 315 0 l 315 464 b 464 667 315 628 371 667 b 576 538 546 667 576 624 l 576 -229 b 542 -264 576 -253 565 -264 l 456 -264 l 456 -278 l 656 -278 b 800 -133 749 -278 800 -231 l 800 539 b 572 775 800 710 708 775 b 315 581 454 775 353 711 l 315 760 l 90 760 z "},"ŉ":{"ha":1026,"x_min":0,"x_max":0,"o":"m 236 0 l 461 0 l 461 464 b 610 667 461 628 517 667 b 722 538 692 667 722 624 l 722 0 l 946 0 l 946 539 b 718 775 946 710 854 775 b 461 581 600 775 499 711 l 461 760 l 236 760 z m 88 604 b 140 617 107 604 126 608 l 79 501 l 96 501 l 150 606 b 175 688 167 635 175 657 b 88 774 175 739 140 774 b 0 689 35 774 0 739 b 88 604 0 638 35 604 z "},"ó":{"ha":861,"x_min":0,"x_max":0,"o":"m 419 831 l 431 831 l 708 1039 l 708 1047 l 488 1047 z m 431 775 b 44 379 188 775 44 629 b 431 -17 44 128 188 -17 b 818 379 674 -17 818 131 b 431 775 818 631 674 775 z m 431 149 b 275 299 333 149 275 206 l 275 460 b 431 610 275 553 333 610 b 586 460 529 610 586 553 l 586 299 b 431 149 586 206 529 149 z "},"ô":{"ha":861,"x_min":0,"x_max":0,"o":"m 622 831 l 640 831 l 433 1067 l 426 1067 l 221 831 l 238 831 l 429 913 z m 431 775 b 44 379 188 775 44 629 b 431 -17 44 128 188 -17 b 818 379 674 -17 818 131 b 431 775 818 631 674 775 z m 431 149 b 275 299 333 149 275 206 l 275 460 b 431 610 275 553 333 610 b 586 460 529 610 586 553 l 586 299 b 431 149 586 206 529 149 z "},"ö":{"ha":861,"x_min":0,"x_max":0,"o":"m 299 843 b 404 950 363 843 404 888 b 299 1056 404 1015 363 1056 b 192 950 235 1056 192 1015 b 299 843 192 888 235 843 z m 565 843 b 671 950 628 843 671 888 b 565 1056 671 1015 628 1056 b 457 950 503 1056 457 1015 b 565 843 457 888 503 843 z m 431 775 b 44 379 188 775 44 629 b 431 -17 44 128 188 -17 b 818 379 674 -17 818 131 b 431 775 818 631 674 775 z m 431 149 b 275 299 333 149 275 206 l 275 460 b 431 610 275 553 333 610 b 586 460 529 610 586 553 l 586 299 b 431 149 586 206 529 149 z "},"ò":{"ha":861,"x_min":0,"x_max":0,"o":"m 453 832 l 385 1049 l 165 1049 l 165 1040 l 442 832 z m 431 775 b 44 379 188 775 44 629 b 431 -17 44 128 188 -17 b 818 379 674 -17 818 131 b 431 775 818 631 674 775 z m 431 149 b 275 299 333 149 275 206 l 275 460 b 431 610 275 553 333 610 b 586 460 529 610 586 553 l 586 299 b 431 149 586 206 529 149 z "},"õ":{"ha":861,"x_min":0,"x_max":0,"o":"m 614 928 l 661 1040 l 649 1044 l 635 1013 b 514 992 615 968 588 963 l 415 1032 b 265 976 350 1058 294 1043 l 217 865 l 229 861 l 243 893 b 351 921 261 933 297 943 l 461 872 b 614 928 529 844 582 856 z m 431 775 b 44 379 188 775 44 629 b 431 -17 44 128 188 -17 b 818 379 674 -17 818 131 b 431 775 818 631 674 775 z m 431 149 b 275 299 333 149 275 206 l 275 460 b 431 610 275 553 333 610 b 586 460 529 610 586 553 l 586 299 b 431 149 586 206 529 149 z "},"ŏ":{"ha":861,"x_min":0,"x_max":0,"o":"m 431 839 b 621 1038 546 839 621 908 l 621 1063 l 608 1063 l 608 1049 b 518 967 608 990 583 967 l 344 967 b 253 1049 278 967 253 990 l 253 1063 l 240 1063 l 240 1036 b 431 839 240 907 315 839 z m 431 775 b 44 379 188 775 44 629 b 431 -17 44 128 188 -17 b 818 379 674 -17 818 131 b 431 775 818 631 674 775 z m 431 149 b 275 299 333 149 275 206 l 275 460 b 431 610 275 553 333 610 b 586 460 529 610 586 553 l 586 299 b 431 149 586 206 529 149 z "},"ő":{"ha":861,"x_min":0,"x_max":0,"o":"m 288 831 l 299 831 l 517 1044 l 517 1053 l 356 1053 z m 492 831 l 503 831 l 721 1044 l 721 1053 l 560 1053 z m 431 775 b 44 379 188 775 44 629 b 431 -17 44 128 188 -17 b 818 379 674 -17 818 131 b 431 775 818 631 674 775 z m 431 149 b 275 299 333 149 275 206 l 275 460 b 431 610 275 553 333 610 b 586 460 529 610 586 553 l 586 299 b 431 149 586 206 529 149 z "},"ō":{"ha":861,"x_min":0,"x_max":0,"o":"m 226 875 l 636 875 l 636 1000 l 226 1000 z m 431 775 b 44 379 188 775 44 629 b 431 -17 44 128 188 -17 b 818 379 674 -17 818 131 b 431 775 818 631 674 775 z m 431 149 b 275 299 333 149 275 206 l 275 460 b 431 610 275 553 333 610 b 586 460 529 610 586 553 l 586 299 b 431 149 586 206 529 149 z "},"ŕ":{"ha":767,"x_min":0,"x_max":0,"o":"m 382 831 l 393 831 l 671 1039 l 671 1047 l 450 1047 z m 90 0 l 315 0 l 315 489 b 432 672 315 597 344 672 b 510 594 489 672 510 647 l 510 408 l 717 408 l 717 621 b 551 767 717 731 639 767 b 315 600 440 767 351 708 l 315 760 l 90 760 z "},"ř":{"ha":767,"x_min":0,"x_max":0,"o":"m 643 1065 l 625 1065 l 432 983 l 240 1065 l 224 1065 l 429 829 l 436 829 z m 90 0 l 315 0 l 315 489 b 432 672 315 597 344 672 b 510 594 489 672 510 647 l 510 408 l 717 408 l 717 621 b 551 767 717 731 639 767 b 315 600 440 767 351 708 l 315 760 l 90 760 z "},"ŗ":{"ha":767,"x_min":0,"x_max":0,"o":"m 90 0 l 315 0 l 315 489 b 432 672 315 597 344 672 b 510 594 489 672 510 647 l 510 408 l 717 408 l 717 621 b 551 767 717 731 639 767 b 315 600 440 767 351 708 l 315 760 l 90 760 z m 119 -271 l 133 -271 l 281 -99 l 281 -85 l 119 -85 z "},"š":{"ha":775,"x_min":0,"x_max":0,"o":"m 597 1065 l 579 1065 l 386 983 l 194 1065 l 178 1065 l 383 829 l 390 829 z m 388 626 b 515 529 474 626 515 593 l 515 497 l 721 497 l 721 528 b 388 775 721 696 604 775 b 49 558 167 775 49 699 b 260 394 49 450 106 407 l 428 382 b 525 292 499 376 525 349 l 525 229 b 396 132 525 163 482 132 b 254 232 301 132 254 167 l 254 267 l 43 267 l 43 238 b 396 -17 43 64 165 -17 b 736 208 617 -17 736 63 b 540 386 736 308 688 374 l 365 399 b 258 481 289 406 258 428 l 258 533 b 388 626 258 594 303 626 z "},"ś":{"ha":775,"x_min":0,"x_max":0,"o":"m 363 831 l 374 831 l 651 1039 l 651 1047 l 431 1047 z m 388 626 b 515 529 474 626 515 593 l 515 497 l 721 497 l 721 528 b 388 775 721 696 604 775 b 49 558 167 775 49 699 b 260 394 49 450 106 407 l 428 382 b 525 292 499 376 525 349 l 525 229 b 396 132 525 163 482 132 b 254 232 301 132 254 167 l 254 267 l 43 267 l 43 238 b 396 -17 43 64 165 -17 b 736 208 617 -17 736 63 b 540 386 736 308 688 374 l 365 399 b 258 481 289 406 258 428 l 258 533 b 388 626 258 594 303 626 z "},"ş":{"ha":775,"x_min":0,"x_max":0,"o":"m 342 -103 l 397 -103 b 428 -133 418 -103 428 -114 l 428 -157 b 397 -187 428 -176 418 -187 l 296 -187 l 296 -278 l 446 -278 b 551 -183 511 -278 551 -242 b 446 -89 551 -124 513 -89 l 381 -89 b 369 -71 369 -89 365 -82 l 392 -17 l 396 -17 b 736 208 617 -17 736 63 b 540 386 736 308 688 374 l 365 399 b 258 481 289 406 258 428 l 258 533 b 388 626 258 594 303 626 b 515 529 474 626 515 593 l 515 497 l 721 497 l 721 528 b 388 775 721 696 604 775 b 49 558 167 775 49 699 b 260 394 49 450 106 407 l 428 382 b 525 292 499 376 525 349 l 525 229 b 396 132 525 163 482 132 b 254 232 301 132 254 167 l 254 267 l 43 267 l 43 238 b 375 -17 43 69 158 -11 z "},"ŝ":{"ha":775,"x_min":0,"x_max":0,"o":"m 579 831 l 597 831 l 390 1067 l 383 1067 l 178 831 l 194 831 l 386 913 z m 388 626 b 515 529 474 626 515 593 l 515 497 l 721 497 l 721 528 b 388 775 721 696 604 775 b 49 558 167 775 49 699 b 260 394 49 450 106 407 l 428 382 b 525 292 499 376 525 349 l 525 229 b 396 132 525 163 482 132 b 254 232 301 132 254 167 l 254 267 l 43 267 l 43 238 b 396 -17 43 64 165 -17 b 736 208 617 -17 736 63 b 540 386 736 308 688 374 l 365 399 b 258 481 289 406 258 428 l 258 533 b 388 626 258 594 303 626 z "},"ș":{"ha":775,"x_min":0,"x_max":0,"o":"m 388 626 b 515 529 474 626 515 593 l 515 497 l 721 497 l 721 528 b 388 775 721 696 604 775 b 49 558 167 775 49 699 b 260 394 49 450 106 407 l 428 382 b 525 292 499 376 525 349 l 525 229 b 396 132 525 163 482 132 b 254 232 301 132 254 167 l 254 267 l 43 267 l 43 238 b 396 -17 43 64 165 -17 b 736 208 617 -17 736 63 b 540 386 736 308 688 374 l 365 399 b 258 481 289 406 258 428 l 258 533 b 388 626 258 594 303 626 z m 321 -271 l 335 -271 l 482 -99 l 482 -85 l 321 -85 z "},"ŧ":{"ha":454,"x_min":0,"x_max":0,"o":"m 106 144 b 250 0 106 49 157 0 l 464 0 l 464 14 l 361 14 b 329 46 340 14 329 25 l 329 469 l 464 469 l 464 483 l 329 483 l 329 725 b 350 746 329 739 336 746 l 464 746 l 464 760 l 350 760 b 329 781 336 760 329 767 l 329 986 l 322 986 b 106 832 285 872 183 832 l 106 760 l 15 760 l 15 746 l 106 746 l 106 483 l 15 483 l 15 469 l 106 469 z "},"ť":{"ha":454,"x_min":0,"x_max":0,"o":"m 406 822 l 419 822 l 567 1031 l 567 1042 l 406 1042 z m 106 144 b 250 0 106 49 157 0 l 464 0 l 464 14 l 361 14 b 329 46 340 14 329 25 l 329 725 b 350 746 329 739 336 746 l 464 746 l 464 760 l 350 760 b 329 781 336 760 329 767 l 329 986 l 322 986 b 106 832 285 872 183 832 l 106 760 l 15 760 l 15 746 l 106 746 z "},"ţ":{"ha":454,"x_min":0,"x_max":0,"o":"m 106 144 b 250 0 106 49 157 0 l 464 0 l 464 14 l 361 14 b 329 46 340 14 329 25 l 329 725 b 350 746 329 739 336 746 l 464 746 l 464 760 l 350 760 b 329 781 336 760 329 767 l 329 986 l 322 986 b 106 832 285 872 183 832 l 106 760 l 15 760 l 15 746 l 106 746 z m 186 -271 l 200 -271 l 347 -99 l 347 -85 l 186 -85 z "},"ț":{"ha":454,"x_min":0,"x_max":0,"o":"m 106 144 b 250 0 106 49 157 0 l 464 0 l 464 14 l 361 14 b 329 46 340 14 329 25 l 329 725 b 350 746 329 739 336 746 l 464 746 l 464 760 l 350 760 b 329 781 336 760 329 767 l 329 986 l 322 986 b 106 832 285 872 183 832 l 106 760 l 15 760 l 15 746 l 106 746 z m 186 -271 l 200 -271 l 347 -99 l 347 -85 l 186 -85 z "},"ú":{"ha":867,"x_min":0,"x_max":0,"o":"m 408 831 l 419 831 l 697 1039 l 697 1047 l 476 1047 z m 317 -17 b 551 186 425 -17 518 50 l 551 0 l 776 0 l 776 760 l 551 760 l 551 299 b 421 104 551 138 493 104 b 306 221 339 104 306 143 l 306 760 l 81 760 l 81 221 b 317 -17 81 49 175 -17 z "},"û":{"ha":867,"x_min":0,"x_max":0,"o":"m 625 831 l 643 831 l 436 1067 l 429 1067 l 224 831 l 240 831 l 432 913 z m 317 -17 b 551 186 425 -17 518 50 l 551 0 l 776 0 l 776 760 l 551 760 l 551 299 b 421 104 551 138 493 104 b 306 221 339 104 306 143 l 306 760 l 81 760 l 81 221 b 317 -17 81 49 175 -17 z "},"ü":{"ha":867,"x_min":0,"x_max":0,"o":"m 301 843 b 407 950 365 843 407 888 b 301 1056 407 1015 365 1056 b 194 950 238 1056 194 1015 b 301 843 194 888 238 843 z m 568 843 b 674 950 631 843 674 888 b 568 1056 674 1015 631 1056 b 460 950 506 1056 460 1015 b 568 843 460 888 506 843 z m 317 -17 b 551 186 425 -17 518 50 l 551 0 l 776 0 l 776 760 l 551 760 l 551 299 b 421 104 551 138 493 104 b 306 221 339 104 306 143 l 306 760 l 81 760 l 81 221 b 317 -17 81 49 175 -17 z "},"ù":{"ha":867,"x_min":0,"x_max":0,"o":"m 463 832 l 394 1049 l 175 1049 l 175 1040 l 451 832 z m 317 -17 b 551 186 425 -17 518 50 l 551 0 l 776 0 l 776 760 l 551 760 l 551 299 b 421 104 551 138 493 104 b 306 221 339 104 306 143 l 306 760 l 81 760 l 81 221 b 317 -17 81 49 175 -17 z "},"ŭ":{"ha":867,"x_min":0,"x_max":0,"o":"m 433 839 b 624 1038 549 839 624 908 l 624 1063 l 611 1063 l 611 1049 b 521 967 611 990 586 967 l 347 967 b 256 1049 281 967 256 990 l 256 1063 l 243 1063 l 243 1036 b 433 839 243 907 318 839 z m 317 -17 b 551 186 425 -17 518 50 l 551 0 l 776 0 l 776 760 l 551 760 l 551 299 b 421 104 551 138 493 104 b 306 221 339 104 306 143 l 306 760 l 81 760 l 81 221 b 317 -17 81 49 175 -17 z "},"ű":{"ha":867,"x_min":0,"x_max":0,"o":"m 289 831 l 300 831 l 518 1044 l 518 1053 l 357 1053 z m 493 831 l 504 831 l 722 1044 l 722 1053 l 561 1053 z m 317 -17 b 551 186 425 -17 518 50 l 551 0 l 776 0 l 776 760 l 551 760 l 551 299 b 421 104 551 138 493 104 b 306 221 339 104 306 143 l 306 760 l 81 760 l 81 221 b 317 -17 81 49 175 -17 z "},"ū":{"ha":867,"x_min":0,"x_max":0,"o":"m 229 875 l 639 875 l 639 1000 l 229 1000 z m 317 -17 b 551 186 425 -17 518 50 l 551 0 l 776 0 l 776 760 l 551 760 l 551 299 b 421 104 551 138 493 104 b 306 221 339 104 306 143 l 306 760 l 81 760 l 81 221 b 317 -17 81 49 175 -17 z "},"ų":{"ha":867,"x_min":0,"x_max":0,"o":"m 317 -17 b 551 186 425 -17 518 50 l 551 0 l 694 0 b 525 -169 582 -49 525 -99 b 653 -278 525 -236 569 -278 l 735 -278 l 735 -164 l 674 -164 b 638 -128 649 -164 638 -154 l 638 -96 b 721 0 638 -44 657 -26 l 776 0 l 776 760 l 551 760 l 551 299 b 421 104 551 138 493 104 b 306 221 339 104 306 143 l 306 760 l 81 760 l 81 221 b 317 -17 81 49 175 -17 z "},"ů":{"ha":867,"x_min":0,"x_max":0,"o":"m 433 833 b 561 949 507 833 561 882 b 433 1064 561 1017 507 1064 b 307 949 361 1064 307 1017 b 433 833 307 882 361 833 z m 433 1054 b 511 994 482 1054 511 1031 l 511 903 b 433 843 511 867 482 843 b 356 903 385 843 356 867 l 356 994 b 433 1054 356 1031 385 1054 z m 317 -17 b 551 186 425 -17 518 50 l 551 0 l 776 0 l 776 760 l 551 760 l 551 299 b 421 104 551 138 493 104 b 306 221 339 104 306 143 l 306 760 l 81 760 l 81 221 b 317 -17 81 49 175 -17 z "},"ũ":{"ha":867,"x_min":0,"x_max":0,"o":"m 624 928 l 671 1040 l 658 1044 l 644 1013 b 524 992 625 968 597 963 l 425 1032 b 275 976 360 1058 304 1043 l 226 865 l 239 861 l 253 893 b 361 921 271 933 307 943 l 471 872 b 624 928 539 844 592 856 z m 317 -17 b 551 186 425 -17 518 50 l 551 0 l 776 0 l 776 760 l 551 760 l 551 299 b 421 104 551 138 493 104 b 306 221 339 104 306 143 l 306 760 l 81 760 l 81 221 b 317 -17 81 49 175 -17 z "},"ẃ":{"ha":1126,"x_min":0,"x_max":0,"o":"m 576 831 l 588 831 l 865 1039 l 865 1047 l 644 1047 z m 228 760 l 11 760 l 175 0 l 392 0 l 482 360 b 499 375 485 369 490 375 b 515 360 508 375 513 369 l 638 0 l 951 0 l 1115 760 l 906 760 l 785 176 l 579 776 l 569 776 l 385 33 z "},"ŵ":{"ha":1126,"x_min":0,"x_max":0,"o":"m 768 831 l 786 831 l 579 1067 l 572 1067 l 367 831 l 383 831 l 575 913 z m 228 760 l 11 760 l 175 0 l 392 0 l 482 360 b 499 375 485 369 490 375 b 515 360 508 375 513 369 l 638 0 l 951 0 l 1115 760 l 906 760 l 785 176 l 579 776 l 569 776 l 385 33 z "},"ẅ":{"ha":1126,"x_min":0,"x_max":0,"o":"m 442 843 b 547 950 506 843 547 888 b 442 1056 547 1015 506 1056 b 335 950 378 1056 335 1015 b 442 843 335 888 378 843 z m 708 843 b 814 950 771 843 814 888 b 708 1056 814 1015 771 1056 b 600 950 646 1056 600 1015 b 708 843 600 888 646 843 z m 228 760 l 11 760 l 175 0 l 392 0 l 482 360 b 499 375 485 369 490 375 b 515 360 508 375 513 369 l 638 0 l 951 0 l 1115 760 l 906 760 l 785 176 l 579 776 l 569 776 l 385 33 z "},"ẁ":{"ha":1126,"x_min":0,"x_max":0,"o":"m 574 832 l 506 1049 l 286 1049 l 286 1040 l 563 832 z m 228 760 l 11 760 l 175 0 l 392 0 l 482 360 b 499 375 485 369 490 375 b 515 360 508 375 513 369 l 638 0 l 951 0 l 1115 760 l 906 760 l 785 176 l 579 776 l 569 776 l 385 33 z "},"ý":{"ha":735,"x_min":0,"x_max":0,"o":"m 349 831 l 360 831 l 638 1039 l 638 1047 l 417 1047 z m 493 575 l 583 575 b 628 533 615 575 628 560 b 604 433 628 507 621 486 l 490 83 b 475 72 488 75 483 72 l 460 72 b 443 89 450 72 447 75 l 240 760 l 4 760 l 226 58 l 471 58 b 478 46 476 58 481 53 l 439 -71 b 410 -94 433 -89 425 -94 l 113 -94 l 113 -278 l 283 -278 b 456 -69 385 -278 397 -242 l 731 760 l 493 760 z "},"ÿ":{"ha":735,"x_min":0,"x_max":0,"o":"m 260 843 b 365 950 324 843 365 888 b 260 1056 365 1015 324 1056 b 153 950 196 1056 153 1015 b 260 843 153 888 196 843 z m 526 843 b 632 950 589 843 632 888 b 526 1056 632 1015 589 1056 b 418 950 464 1056 418 1015 b 526 843 418 888 464 843 z m 493 575 l 583 575 b 628 533 615 575 628 560 b 604 433 628 507 621 486 l 490 83 b 475 72 488 75 483 72 l 460 72 b 443 89 450 72 447 75 l 240 760 l 4 760 l 226 58 l 471 58 b 478 46 476 58 481 53 l 439 -71 b 410 -94 433 -89 425 -94 l 113 -94 l 113 -278 l 283 -278 b 456 -69 385 -278 397 -242 l 731 760 l 493 760 z "},"ŷ":{"ha":735,"x_min":0,"x_max":0,"o":"m 576 831 l 594 831 l 388 1067 l 381 1067 l 175 831 l 192 831 l 383 913 z m 493 575 l 583 575 b 628 533 615 575 628 560 b 604 433 628 507 621 486 l 490 83 b 475 72 488 75 483 72 l 460 72 b 443 89 450 72 447 75 l 240 760 l 4 760 l 226 58 l 471 58 b 478 46 476 58 481 53 l 439 -71 b 410 -94 433 -89 425 -94 l 113 -94 l 113 -278 l 283 -278 b 456 -69 385 -278 397 -242 l 731 760 l 493 760 z "},"ỳ":{"ha":735,"x_min":0,"x_max":0,"o":"m 415 832 l 347 1049 l 128 1049 l 128 1040 l 404 832 z m 493 575 l 583 575 b 628 533 615 575 628 560 b 604 433 628 507 621 486 l 490 83 b 475 72 488 75 483 72 l 460 72 b 443 89 450 72 447 75 l 240 760 l 4 760 l 226 58 l 471 58 b 478 46 476 58 481 53 l 439 -71 b 410 -94 433 -89 425 -94 l 113 -94 l 113 -278 l 283 -278 b 456 -69 385 -278 397 -242 l 731 760 l 493 760 z "},"ž":{"ha":665,"x_min":0,"x_max":0,"o":"m 550 1065 l 532 1065 l 339 983 l 147 1065 l 131 1065 l 336 829 l 343 829 z m -3 0 l 644 0 l 644 171 l 308 171 l 633 746 l 633 760 l 32 760 l 32 746 l 385 746 b 396 721 399 746 403 733 l -3 14 z "},"ź":{"ha":665,"x_min":0,"x_max":0,"o":"m 286 831 l 297 831 l 575 1039 l 575 1047 l 354 1047 z m -3 0 l 644 0 l 644 171 l 308 171 l 633 746 l 633 760 l 32 760 l 32 746 l 385 746 b 396 721 399 746 403 733 l -3 14 z "},"ż":{"ha":665,"x_min":0,"x_max":0,"o":"m 325 838 b 446 958 399 838 446 886 b 325 1078 446 1031 399 1078 b 200 958 250 1078 200 1031 b 325 838 200 886 250 838 z m -3 0 l 644 0 l 644 171 l 308 171 l 633 746 l 633 760 l 32 760 l 32 746 l 385 746 b 396 721 399 746 403 733 l -3 14 z "},"´":{"ha":793,"x_min":0,"x_max":0,"o":"m 372 831 l 383 831 l 661 1039 l 661 1047 l 440 1047 z "},"`":{"ha":753,"x_min":0,"x_max":0,"o":"m 433 832 l 365 1049 l 146 1049 l 146 1040 l 422 832 z "},"ˆ":{"ha":836,"x_min":0,"x_max":0,"o":"m 610 831 l 628 831 l 421 1067 l 414 1067 l 208 831 l 225 831 l 417 913 z "},"ˇ":{"ha":836,"x_min":0,"x_max":0,"o":"m 628 1065 l 610 1065 l 417 983 l 225 1065 l 208 1065 l 414 829 l 421 829 z "},"˜":{"ha":835,"x_min":0,"x_max":0,"o":"m 617 928 l 664 1040 l 651 1044 l 638 1013 b 517 992 618 968 590 963 l 418 1032 b 268 976 353 1058 297 1043 l 219 865 l 232 861 l 246 893 b 354 921 264 933 300 943 l 464 872 b 617 928 532 844 585 856 z "},"¨":{"ha":515,"x_min":0,"x_max":0,"o":"m 125 843 b 231 950 189 843 231 888 b 125 1056 231 1015 189 1056 b 18 950 61 1056 18 1015 b 125 843 18 888 61 843 z m 392 843 b 497 950 454 843 497 888 b 392 1056 497 1015 454 1056 b 283 950 329 1056 283 1015 b 392 843 283 888 329 843 z "},"˚":{"ha":510,"x_min":0,"x_max":0,"o":"m 254 833 b 382 949 328 833 382 882 b 254 1064 382 1017 328 1064 b 128 949 182 1064 128 1017 b 254 833 128 882 182 833 z m 254 1054 b 332 994 303 1054 332 1031 l 332 903 b 254 843 332 867 303 843 b 176 903 206 843 176 867 l 176 994 b 254 1054 176 1031 206 1054 z "},"¸":{"ha":861,"x_min":0,"x_max":0,"o":"m 385 -103 l 440 -103 b 471 -133 461 -103 471 -114 l 471 -157 b 440 -187 471 -176 461 -187 l 339 -187 l 339 -278 l 489 -278 b 594 -183 554 -278 594 -242 b 489 -89 594 -124 556 -89 l 424 -89 b 413 -71 413 -89 408 -82 l 442 0 l 425 0 z "},"˝":{"ha":821,"x_min":0,"x_max":0,"o":"m 267 831 l 278 831 l 496 1044 l 496 1053 l 335 1053 z m 471 831 l 482 831 l 700 1044 l 700 1053 l 539 1053 z "},"˘":{"ha":647,"x_min":0,"x_max":0,"o":"m 324 839 b 514 1038 439 839 514 908 l 514 1063 l 501 1063 l 501 1049 b 411 967 501 990 476 967 l 238 967 b 146 1049 171 967 146 990 l 146 1063 l 133 1063 l 133 1036 b 324 839 133 907 208 839 z "},"¯":{"ha":676,"x_min":0,"x_max":0,"o":"m 133 875 l 543 875 l 543 1000 l 133 1000 z "},"˙":{"ha":479,"x_min":0,"x_max":0,"o":"m 242 838 b 363 958 315 838 363 886 b 242 1078 363 1031 315 1078 b 117 958 167 1078 117 1031 b 242 838 117 886 167 838 z "},"·":{"ha":481,"x_min":0,"x_max":0,"o":"m 242 400 b 369 528 318 400 369 451 b 242 653 369 603 318 653 b 111 528 163 653 111 603 b 242 400 111 451 163 400 z "},"˛":{"ha":424,"x_min":0,"x_max":0,"o":"m 326 6 b 144 -169 206 -44 144 -96 b 272 -278 144 -236 189 -278 l 354 -278 l 354 -164 l 293 -164 b 257 -128 268 -164 257 -154 l 257 -96 b 340 0 257 -44 276 -26 z "},"":{"ha":699,"x_min":0,"x_max":0,"o":"m 278 -271 l 292 -271 l 439 -99 l 439 -85 l 278 -85 z "},".":{"ha":403,"x_min":0,"x_max":0,"o":"m 203 -17 b 333 117 282 -17 333 38 b 203 247 333 196 282 247 b 69 117 122 247 69 196 b 203 -17 69 38 122 -17 z "},",":{"ha":403,"x_min":0,"x_max":0,"o":"m 200 -15 b 301 28 244 -15 281 4 l 176 -239 l 189 -239 l 301 0 b 333 115 319 40 333 72 b 200 247 333 196 282 247 b 69 115 121 247 69 194 b 200 -15 69 38 121 -15 z "},":":{"ha":403,"x_min":0,"x_max":0,"o":"m 203 468 b 333 601 282 468 333 522 b 203 732 333 681 282 732 b 69 601 122 732 69 681 b 203 468 69 522 122 468 z m 203 -17 b 333 117 282 -17 333 38 b 203 247 333 196 282 247 b 69 117 122 247 69 196 b 203 -17 69 38 122 -17 z "},";":{"ha":403,"x_min":0,"x_max":0,"o":"m 203 468 b 333 601 282 468 333 522 b 203 732 333 681 282 732 b 69 601 122 732 69 681 b 203 468 69 522 122 468 z m 199 -15 b 300 28 243 -15 279 4 l 175 -239 l 188 -239 l 300 0 b 332 115 318 40 332 72 b 199 247 332 196 281 247 b 68 115 119 247 68 194 b 199 -15 68 38 119 -15 z "},"…":{"ha":1107,"x_min":0,"x_max":0,"o":"m 203 -17 b 333 117 282 -17 333 38 b 203 247 333 196 282 247 b 69 117 122 247 69 196 b 203 -17 69 38 122 -17 z m 554 -17 b 685 117 633 -17 685 38 b 554 247 685 196 633 247 b 421 117 474 247 421 196 b 554 -17 421 38 474 -17 z m 906 -17 b 1036 117 985 -17 1036 38 b 906 247 1036 196 985 247 b 772 117 825 247 772 196 b 906 -17 772 38 825 -17 z "},"?":{"ha":847,"x_min":0,"x_max":0,"o":"m 432 807 b 575 668 533 807 575 765 b 478 488 575 579 568 535 b 385 357 397 444 385 418 l 385 311 l 399 311 l 399 357 b 500 469 399 413 414 451 b 800 707 707 508 800 579 b 426 989 800 890 685 989 b 42 678 176 989 42 878 l 42 642 l 271 642 l 271 678 b 432 807 271 768 318 807 z m 399 -17 b 529 117 478 -17 529 38 b 399 247 529 196 478 247 b 265 117 318 247 265 196 b 399 -17 265 38 318 -17 z "},"!":{"ha":501,"x_min":0,"x_max":0,"o":"m 254 311 l 254 369 b 367 476 254 461 297 472 l 367 972 l 132 972 l 132 476 b 243 369 203 472 243 461 l 243 311 z m 251 -17 b 382 117 331 -17 382 38 b 251 247 382 196 331 247 b 118 117 171 247 118 196 b 251 -17 118 38 171 -17 z "},"¿":{"ha":847,"x_min":0,"x_max":0,"o":"m 449 776 b 318 643 369 776 318 722 b 449 513 318 564 369 513 b 582 643 529 513 582 564 b 449 776 582 722 529 776 z m 415 -47 b 272 92 314 -47 272 -6 b 369 272 272 181 279 225 b 463 403 450 315 463 342 l 463 449 l 449 449 l 449 403 b 347 290 449 347 433 308 b 47 53 140 251 47 181 b 421 -229 47 -131 163 -229 b 806 82 671 -229 806 -118 l 806 118 l 576 118 l 576 82 b 415 -47 576 -8 529 -47 z "},"¡":{"ha":501,"x_min":0,"x_max":0,"o":"m 251 776 b 118 643 171 776 118 722 b 251 513 118 564 171 513 b 382 643 331 513 382 564 b 251 776 382 722 331 776 z m 254 449 l 243 449 l 243 390 b 132 283 243 299 203 288 l 132 -212 l 367 -212 l 367 283 b 254 390 297 288 254 299 z "},"(":{"ha":533,"x_min":0,"x_max":0,"o":"m 329 606 b 508 1057 329 799 369 922 l 501 1064 b 100 413 204 844 100 664 b 501 -239 100 161 204 -19 l 508 -232 b 329 207 372 -100 329 21 z "},")":{"ha":533,"x_min":0,"x_max":0,"o":"m 204 225 b 25 -226 204 32 164 -92 l 32 -233 b 433 418 329 -14 433 167 b 32 1069 433 669 329 850 l 25 1063 b 204 624 161 931 204 810 z "},"{":{"ha":596,"x_min":0,"x_max":0,"o":"m 58 424 l 58 407 l 157 407 b 185 379 175 407 185 397 l 185 -82 b 363 -225 185 -200 242 -225 l 564 -225 l 564 -208 l 432 -208 b 404 -181 411 -208 404 -201 l 404 218 b 204 407 404 342 335 407 l 204 424 b 404 599 335 424 404 485 l 404 1011 b 432 1039 404 1032 411 1039 l 564 1039 l 564 1056 l 363 1056 b 185 913 242 1056 185 1031 l 185 451 b 157 424 185 433 175 424 z "},"}":{"ha":596,"x_min":0,"x_max":0,"o":"m 538 424 l 439 424 b 411 451 421 424 411 433 l 411 913 b 233 1056 411 1031 354 1056 l 32 1056 l 32 1039 l 164 1039 b 192 1011 185 1039 192 1032 l 192 599 b 392 424 192 485 261 424 l 392 407 b 192 218 261 407 192 342 l 192 -181 b 164 -208 192 -201 185 -208 l 32 -208 l 32 -225 l 233 -225 b 411 -82 354 -225 411 -200 l 411 379 b 439 407 411 397 421 407 l 538 407 z "},"[":{"ha":556,"x_min":0,"x_max":0,"o":"m 115 -225 l 524 -225 l 524 -208 l 340 -208 l 340 1039 l 524 1039 l 524 1056 l 115 1056 z "},"]":{"ha":556,"x_min":0,"x_max":0,"o":"m 440 -225 l 440 1056 l 32 1056 l 32 1039 l 215 1039 l 215 -208 l 32 -208 l 32 -225 z "},"/":{"ha":535,"x_min":0,"x_max":0,"o":"m 69 0 l 111 0 l 465 972 l 424 972 z "},"\\":{"ha":538,"x_min":0,"x_max":0,"o":"m 468 0 l 114 972 l 69 972 l 424 0 z "},"_":{"ha":722,"x_min":0,"x_max":0,"o":"m 38 -199 l 685 -199 l 685 -33 l 38 -33 z "},"-":{"ha":589,"x_min":0,"x_max":0,"o":"m 86 392 l 503 392 l 503 594 l 86 594 z "},"­":{"ha":589,"x_min":0,"x_max":0,"o":"m 86 392 l 503 392 l 503 594 l 86 594 z "},"–":{"ha":694,"x_min":0,"x_max":0,"o":"m 35 397 l 660 397 l 660 563 l 35 563 z "},"—":{"ha":1389,"x_min":0,"x_max":0,"o":"m 35 397 l 1354 397 l 1354 563 l 35 563 z "},"¦":{"ha":399,"x_min":0,"x_max":0,"o":"m 213 479 l 213 1056 l 185 1056 l 185 479 z m 213 -236 l 213 340 l 185 340 l 185 -236 z "},"|":{"ha":399,"x_min":0,"x_max":0,"o":"m 213 -236 l 213 1056 l 185 1056 l 185 -236 z "},"«":{"ha":1025,"x_min":0,"x_max":0,"o":"m 486 336 l 117 492 l 486 682 l 486 699 l 71 486 l 71 304 l 486 118 z m 946 336 l 576 492 l 946 682 l 946 699 l 531 486 l 531 304 l 946 118 z "},"»":{"ha":1025,"x_min":0,"x_max":0,"o":"m 79 482 l 449 326 l 79 136 l 79 119 l 494 332 l 494 514 l 79 700 z m 539 482 l 908 326 l 539 136 l 539 119 l 954 332 l 954 514 l 539 700 z "},"‹":{"ha":565,"x_min":0,"x_max":0,"o":"m 486 336 l 117 492 l 486 682 l 486 699 l 71 486 l 71 304 l 486 118 z "},"›":{"ha":565,"x_min":0,"x_max":0,"o":"m 79 482 l 449 326 l 79 136 l 79 119 l 494 332 l 494 514 l 79 700 z "},"‚":{"ha":413,"x_min":0,"x_max":0,"o":"m 204 -10 b 292 22 242 -10 274 4 l 200 -175 l 215 -175 l 294 -4 b 326 110 313 36 326 67 b 203 231 326 185 279 231 b 81 110 129 231 81 183 b 204 -10 81 38 129 -10 z "},"„":{"ha":721,"x_min":0,"x_max":0,"o":"m 199 -10 b 286 22 236 -10 268 4 l 194 -175 l 210 -175 l 289 -4 b 321 110 307 36 321 67 b 197 231 321 185 274 231 b 75 110 124 231 75 183 b 199 -10 75 38 124 -10 z m 507 -10 b 594 22 544 -10 576 4 l 503 -175 l 518 -175 l 597 -4 b 629 110 615 36 629 67 b 506 231 629 185 582 231 b 383 110 432 231 383 183 b 507 -10 383 38 432 -10 z "},"‘":{"ha":413,"x_min":0,"x_max":0,"o":"m 208 808 b 121 776 171 808 139 794 l 213 974 l 197 974 l 118 803 b 86 689 100 763 86 732 b 210 568 86 614 133 568 b 332 689 283 568 332 615 b 208 808 332 761 283 808 z "},"“":{"ha":721,"x_min":0,"x_max":0,"o":"m 208 808 b 121 776 171 808 139 794 l 213 974 l 197 974 l 118 803 b 86 689 100 763 86 732 b 210 568 86 614 133 568 b 332 689 283 568 332 615 b 208 808 332 761 283 808 z m 517 808 b 429 776 479 808 447 794 l 521 974 l 506 974 l 426 803 b 394 689 408 763 394 732 b 518 568 394 614 442 568 b 640 689 592 568 640 615 b 517 808 640 761 592 808 z "},"’":{"ha":413,"x_min":0,"x_max":0,"o":"m 204 738 b 292 769 242 738 274 751 l 200 572 l 215 572 l 294 743 b 326 857 313 783 326 814 b 203 978 326 932 279 978 b 81 857 129 978 81 931 b 204 738 81 785 129 738 z "},"”":{"ha":721,"x_min":0,"x_max":0,"o":"m 204 738 b 292 769 242 738 274 751 l 200 572 l 215 572 l 294 743 b 326 857 313 783 326 814 b 203 978 326 932 279 978 b 81 857 129 978 81 931 b 204 738 81 785 129 738 z m 513 738 b 600 769 550 738 582 751 l 508 572 l 524 572 l 603 743 b 635 857 621 783 635 814 b 511 978 635 932 588 978 b 389 857 438 978 389 931 b 513 738 389 785 438 738 z "},"'":{"ha":372,"x_min":0,"x_max":0,"o":"m 192 547 l 192 601 b 292 681 192 669 229 676 l 292 972 l 81 972 l 81 681 b 181 601 146 676 181 669 l 181 547 z "},"\"":{"ha":658,"x_min":0,"x_max":0,"o":"m 186 547 l 186 601 b 281 681 186 669 222 676 l 281 972 l 81 972 l 81 681 b 175 601 142 676 175 669 l 175 547 z m 483 547 l 483 601 b 578 681 483 669 519 676 l 578 972 l 378 972 l 378 681 b 472 601 439 676 472 669 l 472 547 z "},"•":{"ha":511,"x_min":0,"x_max":0,"o":"m 257 350 b 428 522 356 350 428 422 b 257 692 428 619 356 692 b 83 522 157 692 83 619 b 257 350 83 422 157 350 z "},"&":{"ha":981,"x_min":0,"x_max":0,"o":"m 860 689 b 478 989 860 867 763 989 b 86 714 215 989 86 878 b 401 489 86 558 193 504 b 60 233 194 481 60 411 b 335 -17 60 71 157 -17 b 625 226 483 -17 585 58 l 625 125 b 750 0 625 43 669 0 l 969 0 l 969 17 l 896 17 b 860 51 869 17 860 22 l 860 483 l 969 483 l 969 499 l 860 499 l 860 631 l 851 631 b 608 499 817 538 715 499 l 457 499 b 318 617 369 499 318 538 l 318 676 b 478 800 318 757 365 800 b 629 689 582 800 629 761 z m 463 128 b 314 265 367 128 314 172 l 314 349 b 457 483 314 435 367 483 l 622 483 l 622 304 b 463 128 622 158 553 128 z "},"¶":{"ha":813,"x_min":0,"x_max":0,"o":"m 465 0 l 465 935 b 486 956 465 947 474 956 l 635 956 b 656 935 647 956 656 947 l 656 0 l 674 0 l 674 935 b 694 956 674 947 682 956 l 778 956 l 778 972 l 339 972 b 63 700 175 972 63 865 b 339 440 63 543 175 440 l 447 440 l 447 0 z "},"†":{"ha":632,"x_min":0,"x_max":0,"o":"m 32 721 l 32 704 l 174 704 b 194 683 190 704 194 690 l 194 207 l 315 -28 l 438 207 l 438 683 b 458 704 438 690 442 704 l 600 704 l 600 721 l 458 721 b 438 742 442 721 438 733 l 438 972 l 194 972 l 194 742 b 174 721 194 733 190 721 z "},"‡":{"ha":632,"x_min":0,"x_max":0,"o":"m 32 494 l 32 478 l 174 478 b 194 457 190 478 194 464 l 194 207 l 315 -28 l 438 207 l 438 457 b 458 478 438 464 442 478 l 600 478 l 600 494 l 458 494 b 438 515 442 494 438 507 l 438 683 b 458 704 438 690 442 704 l 600 704 l 600 721 l 458 721 b 438 742 442 721 438 733 l 438 972 l 194 972 l 194 742 b 174 721 194 733 190 721 l 32 721 l 32 704 l 174 704 b 194 683 190 704 194 690 l 194 515 b 174 494 194 507 190 494 z "},"*":{"ha":744,"x_min":0,"x_max":0,"o":"m 635 472 l 492 606 b 407 625 453 582 440 579 l 381 661 l 424 675 b 504 639 476 692 486 681 l 697 664 l 636 854 l 464 760 b 419 683 475 714 474 701 l 378 671 l 378 714 b 436 781 378 771 392 776 l 472 972 l 272 972 l 308 781 b 367 714 356 776 367 771 l 367 671 l 325 683 b 281 760 271 701 271 717 l 110 854 l 47 664 l 240 639 b 322 675 260 683 268 692 l 364 661 l 338 625 b 253 606 304 579 290 583 l 110 472 l 272 356 l 354 532 b 347 619 319 561 314 574 l 372 654 l 399 619 b 390 532 432 574 424 560 l 472 356 z "},"™":{"ha":1297,"x_min":0,"x_max":0,"o":"m 624 472 l 750 472 l 750 881 b 761 893 750 889 754 893 b 775 881 768 893 771 889 l 889 642 l 911 642 l 1026 886 b 1039 896 1031 892 1032 896 b 1050 885 1046 896 1050 892 l 1050 472 l 1178 472 l 1178 972 l 1049 972 l 910 676 b 900 668 907 669 904 668 b 890 676 896 668 893 669 l 751 972 l 624 972 z m 243 472 l 375 472 l 375 860 l 543 860 l 543 972 l 75 972 l 75 860 l 243 860 z "},"®":{"ha":1024,"x_min":0,"x_max":0,"o":"m 931 661 b 511 1069 931 896 753 1069 b 93 661 269 1069 93 896 b 511 251 93 425 269 251 b 931 661 753 251 931 425 z m 907 661 b 511 274 907 438 740 274 b 117 661 283 274 117 438 b 511 1049 117 883 283 1049 b 907 661 740 1049 907 883 z m 318 429 l 444 429 l 444 644 l 482 644 b 503 632 493 644 497 642 l 615 429 l 749 429 l 621 647 b 736 772 697 658 736 700 b 574 914 736 865 681 914 l 318 914 z m 565 813 b 611 771 593 813 611 797 l 611 699 b 565 657 611 672 593 657 l 444 657 l 444 813 z "},"©":{"ha":1253,"x_min":0,"x_max":0,"o":"m 1167 521 b 626 1058 1167 831 938 1058 b 86 521 314 1058 86 831 b 626 -17 86 211 314 -17 b 1167 521 938 -17 1167 211 z m 1143 521 b 626 6 1143 224 925 6 b 110 521 328 6 110 224 b 626 1036 110 818 328 1036 b 1143 521 925 1036 1143 818 z m 744 444 l 744 429 b 629 324 744 358 710 324 b 497 460 540 324 497 371 l 497 576 b 629 707 497 663 546 707 b 744 610 706 707 744 665 l 744 589 l 921 589 l 921 610 b 629 851 921 753 825 851 b 311 515 417 851 311 735 b 629 178 311 293 417 178 b 921 429 829 178 921 289 l 921 444 z "},"@":{"ha":1422,"x_min":0,"x_max":0,"o":"m 426 496 l 618 496 l 622 519 b 751 599 632 575 678 599 b 856 508 833 599 867 569 l 853 496 b 633 407 838 433 790 421 b 367 194 432 388 367 315 b 563 28 367 90 447 28 b 796 158 667 28 747 65 b 967 28 794 67 867 28 b 1338 442 1181 28 1338 189 b 732 986 1338 769 1096 986 b 86 346 343 986 86 732 b 732 -249 86 -12 343 -249 b 1089 -182 860 -249 1001 -222 l 1081 -162 b 732 -225 1001 -200 863 -225 b 111 346 358 -225 111 1 b 732 964 111 718 358 964 b 1313 442 1081 964 1313 757 b 1064 82 1313 219 1196 82 b 994 164 1006 82 988 115 l 1047 472 b 763 743 1075 632 971 743 b 429 519 564 743 447 661 z m 575 214 l 585 279 b 715 399 597 351 617 385 b 844 449 782 407 822 421 l 810 254 b 663 97 778 114 721 97 b 575 214 603 97 561 135 z "},"ª":{"ha":589,"x_min":0,"x_max":0,"o":"m 76 815 l 211 815 l 211 831 b 294 888 211 868 240 888 b 375 825 350 888 375 867 l 375 822 b 246 746 375 778 357 758 b 68 607 104 729 68 686 b 211 479 68 515 124 479 b 375 592 282 479 349 515 l 375 490 l 518 490 l 518 817 b 299 988 518 929 442 988 b 76 831 160 988 76 933 z m 213 617 l 213 663 b 299 740 213 710 239 725 b 375 779 342 751 364 761 l 375 671 b 282 547 375 561 332 547 b 213 617 235 547 213 569 z "},"º":{"ha":638,"x_min":0,"x_max":0,"o":"m 318 988 b 69 735 163 988 69 894 b 318 481 69 572 163 481 b 568 735 475 481 568 574 b 318 988 568 896 475 988 z m 318 588 b 219 682 256 588 219 624 l 219 786 b 318 882 219 846 256 882 b 418 786 382 882 418 846 l 418 682 b 318 588 418 624 382 588 z "},"#":{"ha":990,"x_min":0,"x_max":0,"o":"m 244 0 l 260 0 l 310 217 l 553 217 l 503 0 l 518 0 l 568 217 l 803 217 l 803 390 l 608 390 l 654 589 l 872 589 l 872 761 l 693 761 l 742 972 l 726 972 l 678 761 l 435 761 l 483 972 l 468 972 l 419 761 l 188 761 l 188 589 l 381 589 l 335 390 l 118 390 l 118 217 l 294 217 z m 350 390 l 396 589 l 639 589 l 593 390 z "},"€":{"ha":1000,"x_min":0,"x_max":0,"o":"m 31 413 l 144 413 b 575 -17 164 129 304 -17 b 944 324 846 -17 944 139 l 944 357 l 929 357 l 929 322 b 664 121 929 192 846 121 b 399 379 472 121 399 211 l 399 392 b 419 413 399 406 406 413 l 722 413 l 722 429 l 419 429 b 399 450 406 429 399 436 l 399 543 b 419 564 399 557 406 564 l 774 564 l 774 581 l 419 581 b 399 601 406 581 399 588 l 399 617 b 664 851 399 767 486 851 b 922 653 846 851 922 767 l 922 626 l 938 626 l 938 653 b 575 989 938 849 824 989 b 146 581 311 989 171 850 l 31 581 l 31 564 l 144 564 b 142 486 143 539 142 513 b 143 429 142 467 142 447 l 31 429 z "},"$":{"ha":985,"x_min":0,"x_max":0,"o":"m 501 -125 l 501 -17 b 924 268 763 -12 924 88 b 672 489 924 397 860 474 l 501 501 l 501 800 b 656 679 614 796 656 756 l 656 614 l 904 614 l 904 675 b 501 989 904 882 764 985 l 501 1097 l 486 1097 l 486 989 l 485 989 b 68 713 213 989 68 879 b 332 500 68 571 143 517 l 486 488 l 486 172 b 313 297 357 172 313 213 l 313 364 l 60 364 l 60 303 b 486 -17 60 89 210 -17 l 486 -125 z m 485 800 l 486 800 l 486 503 l 449 506 b 319 613 357 514 319 544 l 319 683 b 485 800 319 761 361 800 z m 550 482 b 668 367 639 474 668 438 l 668 292 b 501 172 668 215 625 175 l 501 486 z "},"¥":{"ha":835,"x_min":0,"x_max":0,"o":"m 101 233 l 315 233 l 315 0 l 558 0 l 558 233 l 772 233 l 772 250 l 558 250 l 558 378 l 772 378 l 772 394 l 558 394 l 558 408 b 575 475 558 438 561 449 l 831 972 l 810 972 l 563 489 b 547 476 557 479 553 476 b 532 489 540 476 538 478 l 283 972 l 4 972 l 311 394 l 101 394 l 101 378 l 315 378 l 315 250 l 101 250 z "},"£":{"ha":926,"x_min":0,"x_max":0,"o":"m 42 475 l 154 475 l 154 188 l 32 6 l 32 0 l 865 0 l 865 213 l 388 213 l 388 454 b 408 475 388 468 394 475 l 693 475 l 693 492 l 408 492 b 388 513 394 492 388 499 l 388 657 b 611 835 388 775 476 835 b 825 672 738 835 825 772 l 825 633 l 840 633 l 840 682 b 511 989 840 867 738 989 b 154 657 310 989 154 867 l 154 492 l 42 492 z "},"₴":{"ha":936,"x_min":0,"x_max":0,"o":"m 488 989 b 144 696 281 989 144 890 l 144 656 l 160 656 l 160 694 b 390 851 160 801 271 851 b 590 710 531 851 590 799 b 482 572 590 651 560 607 l 57 572 l 57 556 l 449 556 b 408 536 436 549 421 542 l 333 501 b 211 426 289 479 246 456 l 57 426 l 57 410 l 193 410 b 128 246 153 371 128 319 b 478 -17 128 78 261 -17 b 828 283 696 -17 828 68 l 828 331 l 813 331 l 813 285 b 578 121 813 179 724 121 b 369 263 425 121 369 169 b 494 410 369 325 410 371 l 908 410 l 908 426 l 526 426 b 567 447 540 433 553 440 l 676 501 b 761 556 708 518 736 535 l 908 556 l 908 572 l 778 572 b 833 718 814 610 833 657 b 488 989 833 885 694 989 z "},"₸":{"ha":921,"x_min":0,"x_max":0,"o":"m 68 956 l 853 956 l 853 972 l 68 972 z m 340 0 l 583 0 l 583 633 l 853 633 l 853 829 l 68 829 l 68 633 l 340 633 z "},"₽":{"ha":979,"x_min":0,"x_max":0,"o":"m 122 0 l 364 0 l 364 189 l 656 189 l 656 206 l 364 206 l 364 343 l 585 343 b 910 635 783 343 910 432 b 601 972 910 839 789 972 l 122 972 l 122 360 l 0 360 l 0 343 l 122 343 l 122 206 l -1 206 l -1 189 l 122 189 z m 539 783 b 664 658 621 783 664 738 l 664 485 b 539 360 664 403 622 360 l 364 360 l 364 783 z "},"ƒ":{"ha":538,"x_min":0,"x_max":0,"o":"m -10 746 l 140 746 l 140 -232 b 108 -264 140 -254 131 -264 l -10 -264 l -10 -278 l 218 -278 b 365 -131 313 -278 365 -228 l 365 725 b 386 746 365 739 372 746 l 544 746 l 544 760 l 386 760 b 365 781 372 760 365 767 l 365 996 b 397 1028 365 1018 375 1028 l 544 1028 l 544 1042 l 288 1042 b 140 894 193 1042 140 992 l 140 760 l -10 760 z "},"¢":{"ha":833,"x_min":0,"x_max":0,"o":"m 435 -119 l 435 -17 b 789 286 651 -17 789 79 l 789 308 l 572 308 l 572 282 b 435 149 572 197 524 150 l 435 610 b 572 474 522 610 572 563 l 572 457 l 789 457 l 789 474 b 435 775 789 669 649 774 l 435 876 l 419 876 l 419 775 b 44 379 175 771 44 635 b 419 -17 44 124 172 -12 l 419 -119 z m 275 304 l 275 454 b 419 610 275 550 325 606 l 419 149 b 275 304 325 153 275 208 z "},"¤":{"ha":646,"x_min":0,"x_max":0,"o":"m 322 269 b 474 322 383 269 436 289 l 564 232 l 575 242 l 483 333 b 540 482 519 371 540 422 b 485 628 540 540 521 592 l 576 718 l 565 729 l 475 639 b 322 692 438 672 385 692 b 171 639 260 692 208 672 l 81 728 l 69 718 l 160 628 b 104 482 124 592 104 540 b 161 333 104 422 125 371 l 71 243 l 82 232 l 172 322 b 322 269 210 289 261 269 z m 322 678 b 486 574 413 678 486 635 l 486 392 b 322 283 486 328 413 283 b 158 392 232 283 158 328 l 158 574 b 322 678 158 635 232 678 z "},"°":{"ha":603,"x_min":0,"x_max":0,"o":"m 301 539 b 528 764 431 539 528 636 b 301 986 528 892 431 986 b 75 764 172 986 75 892 b 301 539 75 636 172 539 z m 301 557 b 96 764 185 557 96 646 b 301 968 96 882 185 968 b 507 764 419 968 507 882 b 301 557 507 646 419 557 z "},"%":{"ha":1156,"x_min":0,"x_max":0,"o":"m 299 542 b 529 765 429 542 529 644 b 299 988 529 888 429 988 b 69 765 168 988 69 888 b 299 542 69 644 168 542 z m 299 974 b 440 893 372 974 440 938 l 440 639 b 299 556 440 592 372 556 b 158 639 226 556 158 592 l 158 893 b 299 974 158 938 226 974 z m 239 0 l 260 0 l 915 972 l 894 972 z m 857 -17 b 1086 208 988 -17 1086 88 b 857 429 1086 329 988 429 b 628 208 726 429 628 329 b 857 -17 628 88 726 -17 z m 857 415 b 997 336 929 415 997 379 l 997 81 b 857 -3 997 35 929 -3 b 717 81 783 -3 717 35 l 717 336 b 857 415 717 379 783 415 z "},"+":{"ha":764,"x_min":0,"x_max":0,"o":"m 390 206 l 390 524 l 694 524 l 694 540 l 390 540 l 390 858 l 374 858 l 374 540 l 69 540 l 69 524 l 374 524 l 374 206 z "},"−":{"ha":764,"x_min":0,"x_max":0,"o":"m 69 524 l 694 524 l 694 540 l 69 540 z "},"×":{"ha":764,"x_min":0,"x_max":0,"o":"m 147 286 l 382 521 l 626 275 l 639 288 l 394 533 l 628 767 l 617 778 l 383 544 l 138 789 l 125 776 l 371 532 l 136 297 z "},"÷":{"ha":764,"x_min":0,"x_max":0,"o":"m 382 676 b 476 769 435 676 476 718 b 382 864 476 822 435 864 b 289 769 331 864 289 822 b 382 676 289 718 331 676 z m 69 524 l 694 524 l 694 540 l 69 540 z m 382 200 b 476 293 435 200 476 242 b 382 388 476 346 435 388 b 289 293 331 388 289 346 b 382 200 289 242 331 200 z "},"=":{"ha":764,"x_min":0,"x_max":0,"o":"m 83 690 l 681 690 l 681 707 l 83 707 z m 83 357 l 681 357 l 681 374 l 83 374 z "},"¬":{"ha":764,"x_min":0,"x_max":0,"o":"m 75 649 l 656 649 l 656 358 l 672 358 l 672 665 l 75 665 z "},"~":{"ha":694,"x_min":0,"x_max":0,"o":"m 192 589 b 503 393 321 589 361 393 b 636 546 583 393 636 454 l 636 600 l 618 600 l 618 546 b 503 411 618 465 572 411 b 192 607 374 411 331 607 b 58 468 111 607 58 551 l 58 400 l 76 400 l 76 468 b 192 589 76 540 122 589 z "},"<":{"ha":764,"x_min":0,"x_max":0,"o":"m 639 271 l 639 290 l 142 532 l 639 774 l 639 793 l 125 543 l 125 521 z "},">":{"ha":764,"x_min":0,"x_max":0,"o":"m 125 271 l 639 521 l 639 543 l 125 793 l 125 774 l 622 532 l 125 290 z "},"±":{"ha":764,"x_min":0,"x_max":0,"o":"m 390 322 l 390 585 l 667 585 l 667 601 l 390 601 l 390 864 l 374 864 l 374 601 l 97 601 l 97 585 l 374 585 l 374 322 z m 97 224 l 667 224 l 667 240 l 97 240 z "},"^":{"ha":764,"x_min":0,"x_max":0,"o":"m 138 458 l 382 956 l 626 458 l 646 458 l 393 972 l 371 972 l 118 458 z "},"≠":{"ha":764,"x_min":0,"x_max":0,"o":"m 251 206 l 315 357 l 681 357 l 681 374 l 322 374 l 458 690 l 681 690 l 681 707 l 465 707 l 529 858 l 511 858 l 447 707 l 83 707 l 83 690 l 440 690 l 304 374 l 83 374 l 83 357 l 297 357 l 233 206 z "},"≈":{"ha":764,"x_min":0,"x_max":0,"o":"m 226 740 b 538 544 356 740 396 544 b 671 697 618 544 671 606 l 671 751 l 653 751 l 653 697 b 538 563 653 617 607 563 b 226 758 408 563 365 758 b 93 619 146 758 93 703 l 93 551 l 111 551 l 111 619 b 226 740 111 692 157 740 z m 226 486 b 538 290 356 486 396 290 b 671 443 618 290 671 351 l 671 497 l 653 497 l 653 443 b 538 308 653 363 607 308 b 226 504 408 308 365 504 b 93 365 146 504 93 449 l 93 297 l 111 297 l 111 365 b 226 486 111 438 157 486 z "},"≤":{"ha":764,"x_min":0,"x_max":0,"o":"m 639 319 l 639 339 l 142 581 l 639 822 l 639 842 l 125 592 l 125 569 z m 125 225 l 639 225 l 639 242 l 125 242 z "},"≥":{"ha":764,"x_min":0,"x_max":0,"o":"m 125 319 l 639 569 l 639 592 l 125 842 l 125 822 l 622 581 l 125 339 z m 639 225 l 639 242 l 125 242 l 125 225 z "},"←":{"ha":953,"x_min":0,"x_max":0,"o":"m 538 860 l 324 860 l 29 496 l 317 132 l 531 132 l 267 464 b 261 476 264 468 261 472 b 276 489 261 483 267 489 l 379 489 b 406 476 390 489 397 485 l 464 403 l 925 403 l 925 586 l 467 586 l 406 514 b 379 503 397 506 389 503 l 276 503 b 263 515 267 503 263 508 b 268 528 263 519 264 524 z "},"↑":{"ha":817,"x_min":0,"x_max":0,"o":"m 44 469 l 376 744 b 389 750 382 749 385 750 b 401 735 396 750 401 746 l 401 626 b 390 601 401 617 399 608 l 318 539 l 318 69 l 501 69 l 501 542 l 428 601 b 415 626 419 608 415 615 l 415 735 b 428 750 415 744 421 750 b 440 744 432 750 435 749 l 772 476 l 772 686 l 408 976 l 44 679 z "},"→":{"ha":953,"x_min":0,"x_max":0,"o":"m 422 132 l 636 132 l 924 496 l 631 860 l 415 860 l 685 528 b 690 515 689 524 690 519 b 676 503 690 508 686 503 l 574 503 b 549 514 564 503 556 506 l 486 586 l 28 586 l 28 403 l 489 403 l 549 476 b 574 489 556 485 563 489 l 676 489 b 692 476 686 489 692 483 b 686 464 692 472 690 468 z "},"↓":{"ha":817,"x_min":0,"x_max":0,"o":"m 44 496 l 44 286 l 408 -11 l 772 279 l 772 489 l 440 221 b 428 215 435 217 432 215 b 415 231 421 215 415 221 l 415 339 b 428 364 415 350 419 357 l 501 424 l 501 896 l 318 896 l 318 426 l 390 364 b 401 339 399 357 401 349 l 401 231 b 389 215 401 219 396 215 b 376 221 385 215 382 217 z "},"℮":{"ha":1097,"x_min":0,"x_max":0,"o":"m 1003 382 l 1003 393 b 549 803 1003 619 800 803 b 94 393 297 803 94 619 b 549 -14 94 167 297 -14 b 908 143 696 -14 826 49 l 843 143 b 550 10 771 61 668 10 b 271 129 440 10 342 56 b 261 156 265 136 261 144 l 261 378 b 267 382 261 381 264 382 z m 836 411 b 832 404 836 408 835 404 l 267 404 b 261 411 264 404 261 408 l 261 631 b 272 658 261 642 265 651 b 550 779 343 732 442 779 b 825 663 658 779 754 733 b 836 635 832 656 836 646 z "},"А":{"ha":975,"x_min":0,"x_max":0,"o":"m 717 0 l 961 0 l 669 972 l 307 972 l 14 0 l 249 0 l 332 276 b 356 296 336 292 342 296 l 614 296 b 635 282 625 296 631 292 z m 349 335 l 485 790 l 619 332 b 606 313 622 321 619 313 l 363 313 b 349 335 349 313 344 322 z "},"Б":{"ha":951,"x_min":0,"x_max":0,"o":"m 122 0 l 582 0 b 906 281 793 0 906 108 b 607 535 906 444 808 535 l 379 535 b 358 556 363 535 358 547 l 358 760 l 840 760 l 840 972 l 122 972 z m 358 497 b 379 518 358 504 363 518 l 536 518 b 663 394 617 518 663 472 l 663 306 b 538 186 663 231 615 186 l 358 186 z "},"В":{"ha":1003,"x_min":0,"x_max":0,"o":"m 122 0 l 617 0 b 950 264 819 0 950 92 b 636 506 950 408 872 494 b 915 724 850 518 915 607 b 624 972 915 886 808 972 l 122 972 z m 358 533 l 358 797 l 558 797 b 681 686 636 797 681 758 l 681 628 b 553 513 681 554 639 513 l 379 513 b 358 533 363 513 358 525 z m 358 475 b 379 496 358 482 363 496 l 554 496 b 700 372 642 496 700 458 l 700 306 b 569 186 700 229 654 186 l 358 186 z "},"Г":{"ha":819,"x_min":0,"x_max":0,"o":"m 122 0 l 358 0 l 358 760 l 789 760 l 789 972 l 122 972 z "},"Д":{"ha":1067,"x_min":0,"x_max":0,"o":"m 24 213 l 24 -278 l 42 -278 l 42 -62 b 104 0 42 -24 65 0 l 963 0 b 1025 -62 1001 0 1025 -24 l 1025 -278 l 1043 -278 l 1043 213 l 932 213 l 704 972 l 365 972 l 132 213 z m 350 213 l 531 818 l 707 213 z "},"Е":{"ha":883,"x_min":0,"x_max":0,"o":"m 122 0 l 826 0 l 826 213 l 364 213 l 364 475 b 385 496 364 482 368 496 l 793 496 l 793 513 l 385 513 b 364 533 368 513 364 525 l 364 760 l 813 760 l 813 972 l 122 972 z "},"Ё":{"ha":883,"x_min":0,"x_max":0,"o":"m 360 1032 b 453 1124 415 1032 453 1068 b 360 1215 453 1181 415 1215 b 267 1124 306 1215 267 1181 b 360 1032 267 1068 306 1032 z m 608 1032 b 700 1124 663 1032 700 1068 b 608 1215 700 1181 663 1215 b 515 1124 554 1215 515 1181 b 608 1032 515 1068 554 1032 z m 122 0 l 826 0 l 826 213 l 364 213 l 364 475 b 385 496 364 482 368 496 l 793 496 l 793 513 l 385 513 b 364 533 368 513 364 525 l 364 760 l 813 760 l 813 972 l 122 972 z "},"Ж":{"ha":1418,"x_min":0,"x_max":0,"o":"m 590 0 l 828 0 l 828 485 b 843 501 828 490 831 501 l 886 501 l 1158 0 l 1413 0 l 1122 513 l 1413 972 l 1160 972 l 886 518 l 843 518 b 828 535 831 518 828 528 l 828 972 l 590 972 l 590 535 b 575 518 590 528 588 518 l 532 518 l 260 972 l 6 972 l 297 504 l 13 0 l 260 0 l 532 501 l 575 501 b 590 485 588 501 590 490 z "},"З":{"ha":918,"x_min":0,"x_max":0,"o":"m 867 267 b 590 497 867 440 728 485 b 853 708 742 507 853 575 b 463 989 853 886 711 989 b 58 676 208 989 58 865 l 58 636 l 285 636 l 285 669 b 463 806 285 754 346 806 b 624 672 563 806 624 760 l 624 624 b 507 508 624 550 578 508 l 325 508 l 325 490 l 507 490 b 632 354 589 490 632 450 l 632 314 b 454 167 632 221 581 167 b 278 294 344 167 278 204 l 278 328 l 49 328 l 49 289 b 449 -17 49 89 190 -17 b 867 267 706 -17 867 81 z "},"И":{"ha":1064,"x_min":0,"x_max":0,"o":"m 625 972 l 178 381 b 154 364 165 365 163 364 b 140 382 146 364 140 369 l 140 972 l 122 972 l 122 -26 l 136 -26 l 718 750 l 718 0 l 943 0 l 943 972 z "},"Й":{"ha":1064,"x_min":0,"x_max":0,"o":"m 517 1028 b 757 1189 688 1028 757 1086 l 611 1189 l 611 1121 b 517 1042 611 1074 599 1042 b 422 1121 435 1042 422 1074 l 422 1189 l 276 1189 b 517 1028 276 1086 346 1028 z m 625 972 l 178 381 b 154 364 165 365 163 364 b 140 382 146 364 140 369 l 140 972 l 122 972 l 122 -26 l 136 -26 l 718 750 l 718 0 l 943 0 l 943 972 z "},"К":{"ha":1001,"x_min":0,"x_max":0,"o":"m 122 0 l 358 0 l 358 486 b 375 503 358 492 361 503 l 439 503 l 740 0 l 994 0 l 681 515 l 997 972 l 743 972 l 439 519 l 375 519 b 358 536 361 519 358 529 l 358 972 l 122 972 z "},"Л":{"ha":974,"x_min":0,"x_max":0,"o":"m 483 790 l 715 0 l 960 0 l 668 972 l 306 972 l 14 0 l 249 0 z "},"М":{"ha":1386,"x_min":0,"x_max":0,"o":"m 343 0 l 343 750 l 674 -17 l 688 -17 l 1022 933 l 1022 0 l 1264 0 l 1264 972 l 1017 972 l 803 365 b 783 346 799 353 794 346 b 764 365 774 346 769 353 l 501 972 l 122 972 l 122 0 z "},"Н":{"ha":1114,"x_min":0,"x_max":0,"o":"m 122 0 l 364 0 l 364 475 b 385 496 364 482 368 496 l 728 496 b 749 475 744 496 749 482 l 749 0 l 992 0 l 992 972 l 749 972 l 749 533 b 728 513 749 525 744 513 l 385 513 b 364 533 368 513 364 525 l 364 972 l 122 972 z "},"О":{"ha":1089,"x_min":0,"x_max":0,"o":"m 544 -17 b 1024 486 858 -17 1024 158 b 544 989 1024 815 858 989 b 65 486 231 989 65 814 b 544 -17 65 157 231 -17 z m 544 794 b 775 572 682 794 775 717 l 775 407 b 544 178 775 257 690 178 b 314 407 399 178 314 257 l 314 572 b 544 794 314 717 407 794 z "},"П":{"ha":1078,"x_min":0,"x_max":0,"o":"m 122 0 l 361 0 l 361 760 l 717 760 l 717 0 l 956 0 l 956 972 l 122 972 z "},"Р":{"ha":979,"x_min":0,"x_max":0,"o":"m 122 0 l 364 0 l 364 322 b 385 343 364 329 368 343 l 608 343 b 933 635 807 343 933 432 b 624 972 933 839 811 972 l 122 972 z m 563 783 b 688 658 644 783 688 738 l 688 485 b 561 360 688 403 646 360 l 385 360 b 364 381 368 360 364 372 l 364 783 z "},"С":{"ha":1042,"x_min":0,"x_max":0,"o":"m 732 385 l 732 358 b 539 178 732 240 672 178 b 319 407 392 178 319 258 l 319 572 b 539 794 319 717 401 794 b 732 625 667 794 732 724 l 732 593 l 974 593 l 974 625 b 539 989 974 840 829 989 b 65 486 222 989 65 814 b 539 -17 65 154 222 -17 b 974 358 836 -17 974 149 l 974 385 z "},"Т":{"ha":889,"x_min":0,"x_max":0,"o":"m 322 0 l 565 0 l 565 760 l 860 760 l 860 972 l 29 972 l 29 760 l 322 760 z "},"У":{"ha":885,"x_min":0,"x_max":0,"o":"m 858 972 l 604 444 b 571 444 596 426 581 426 l 289 972 l 4 972 l 458 146 l 371 -35 l 392 -35 l 879 972 z "},"Ф":{"ha":1296,"x_min":0,"x_max":0,"o":"m 532 -17 l 764 -17 l 764 107 l 828 107 b 1233 507 1103 107 1233 264 b 829 886 1233 750 1086 886 l 781 886 b 764 906 771 886 764 892 l 764 989 l 532 989 l 532 906 b 515 886 532 892 526 886 l 467 886 b 63 507 210 886 63 750 b 468 107 63 264 194 107 l 532 107 z m 532 850 l 532 296 l 468 296 b 308 453 372 296 308 361 l 308 710 b 467 869 308 821 358 869 l 515 869 b 532 850 526 869 532 863 z m 764 850 b 781 869 764 863 771 869 l 829 869 b 988 710 939 869 988 821 l 988 453 b 828 296 988 361 924 296 l 764 296 z "},"Х":{"ha":831,"x_min":0,"x_max":0,"o":"m 826 0 l 538 508 b 539 557 528 524 529 540 l 794 972 l 774 972 l 532 578 b 515 567 526 571 522 567 b 499 579 506 567 503 571 l 278 972 l 7 972 l 283 479 b 282 429 294 461 292 446 l 22 0 l 43 0 l 292 411 b 308 421 297 418 301 421 b 325 410 317 421 321 418 l 556 0 z "},"Ц":{"ha":1089,"x_min":0,"x_max":0,"o":"m 122 972 l 122 0 l 986 0 b 1049 -62 1025 0 1049 -24 l 1049 -278 l 1067 -278 l 1067 213 l 958 213 l 958 972 l 715 972 l 715 213 l 364 213 l 364 972 z "},"Ч":{"ha":1001,"x_min":0,"x_max":0,"o":"m 72 972 l 72 582 b 351 325 72 390 165 325 b 638 500 519 325 614 396 l 638 0 l 881 0 l 881 972 l 638 972 l 638 543 b 468 468 638 493 583 468 b 317 597 358 468 317 508 l 317 972 z "},"Ш":{"ha":1308,"x_min":0,"x_max":0,"o":"m 683 213 b 663 233 676 213 663 217 l 663 972 l 644 972 l 644 233 b 624 213 644 217 632 213 l 364 213 l 364 972 l 122 972 l 122 0 l 1186 0 l 1186 972 l 943 972 l 943 213 z "},"Щ":{"ha":1318,"x_min":0,"x_max":0,"o":"m 683 213 b 663 233 676 213 663 217 l 663 972 l 644 972 l 644 233 b 624 213 644 217 632 213 l 364 213 l 364 972 l 122 972 l 122 0 l 1214 0 b 1276 -62 1253 0 1276 -24 l 1276 -278 l 1294 -278 l 1294 213 l 1186 213 l 1186 972 l 943 972 l 943 213 z "},"Ъ":{"ha":1110,"x_min":0,"x_max":0,"o":"m 288 0 l 763 0 b 1075 314 954 0 1075 124 b 738 607 1075 514 942 607 l 550 607 b 529 628 533 607 529 619 l 529 972 l 26 972 l 26 760 l 288 760 z m 529 569 b 550 590 529 576 533 590 l 708 590 b 829 467 789 590 829 551 l 829 311 b 708 189 829 240 781 189 l 529 189 z "},"Ы":{"ha":1364,"x_min":0,"x_max":0,"o":"m 1000 1 l 1242 1 l 1242 974 l 1000 974 z m 122 0 l 597 0 b 910 314 789 0 910 124 b 572 607 910 514 776 607 l 385 607 b 364 628 368 607 364 619 l 364 972 l 122 972 z m 364 569 b 385 590 364 576 368 590 l 543 590 b 664 467 624 590 664 551 l 664 311 b 543 189 664 240 615 189 l 364 189 z "},"Ь":{"ha":946,"x_min":0,"x_max":0,"o":"m 122 0 l 597 0 b 910 314 789 0 910 124 b 572 607 910 514 776 607 l 385 607 b 364 628 368 607 364 619 l 364 972 l 122 972 z m 364 569 b 385 590 364 576 368 590 l 543 590 b 664 467 624 590 664 551 l 664 311 b 543 189 664 240 615 189 l 364 189 z "},"Э":{"ha":1042,"x_min":0,"x_max":0,"o":"m 300 596 l 300 615 b 511 794 300 721 372 794 b 722 572 651 794 722 717 l 722 533 b 701 513 722 525 718 513 l 388 513 l 388 496 l 701 496 b 722 475 718 496 722 482 l 722 400 b 501 178 722 260 649 178 b 300 344 361 178 300 238 l 300 375 l 65 375 l 65 342 b 496 -17 65 129 206 -17 b 978 486 822 -17 978 160 b 511 989 978 815 826 989 b 65 628 225 989 65 840 l 65 596 z "},"Ю":{"ha":1522,"x_min":0,"x_max":0,"o":"m 122 0 l 364 0 l 364 475 b 385 496 364 482 368 496 l 499 496 l 499 486 b 978 -17 499 157 664 -17 b 1457 486 1292 -17 1457 158 b 978 989 1457 815 1292 989 b 499 513 672 989 508 824 l 385 513 b 364 533 368 513 364 525 l 364 972 l 122 972 z m 978 794 b 1208 572 1115 794 1208 717 l 1208 407 b 978 178 1208 257 1124 178 b 747 407 832 178 747 257 l 747 572 b 978 794 747 717 840 794 z "},"Я":{"ha":1019,"x_min":0,"x_max":0,"o":"m 558 433 l 633 433 b 654 413 650 433 654 419 l 654 0 l 897 0 l 897 972 l 379 972 b 68 689 183 972 68 865 b 394 433 68 514 188 433 l 517 433 l 488 383 b 450 361 478 367 468 361 l 240 361 l 24 0 l 279 0 l 525 413 b 558 433 536 431 542 433 z m 633 450 l 429 450 b 310 560 351 450 310 490 l 310 674 b 429 783 310 742 353 783 l 654 783 l 654 471 b 633 450 654 463 650 450 z "},"Ѓ":{"ha":819,"x_min":0,"x_max":0,"o":"m 411 1015 l 422 1015 l 701 1182 l 701 1190 l 479 1190 z m 122 0 l 358 0 l 358 760 l 789 760 l 789 972 l 122 972 z "},"Ґ":{"ha":819,"x_min":0,"x_max":0,"o":"m 122 0 l 358 0 l 358 760 l 789 760 l 789 1153 l 769 1153 l 769 1035 b 707 972 769 996 746 972 l 122 972 z "},"Ђ":{"ha":1210,"x_min":0,"x_max":0,"o":"m 322 0 l 565 0 l 565 371 b 725 463 565 432 621 463 b 872 300 832 463 872 413 l 872 -226 b 835 -264 872 -251 860 -264 l 722 -264 l 722 -278 l 972 -278 b 1117 -133 1065 -278 1117 -231 l 1117 326 b 850 615 1117 532 1025 615 b 565 421 710 615 592 546 l 565 760 l 860 760 l 860 972 l 29 972 l 29 760 l 322 760 z "},"Є":{"ha":1042,"x_min":0,"x_max":0,"o":"m 732 385 l 732 358 b 539 178 732 240 672 178 b 319 407 392 178 319 258 l 319 572 b 539 794 319 717 401 794 b 732 625 667 794 732 724 l 732 593 l 974 593 l 974 625 b 539 989 974 840 829 989 b 65 486 222 989 65 814 b 539 -17 65 154 222 -17 b 974 358 836 -17 974 149 l 974 385 z m 321 475 b 342 496 321 483 326 496 l 629 496 l 629 513 l 342 513 b 321 533 326 513 321 524 z "},"Ѕ":{"ha":979,"x_min":0,"x_max":0,"o":"m 485 800 b 656 679 610 800 656 760 l 656 614 l 904 614 l 904 675 b 485 989 904 886 758 989 b 68 713 213 989 68 879 b 332 500 68 571 143 517 l 550 482 b 668 367 639 474 668 438 l 668 292 b 486 172 668 213 622 172 b 313 297 357 172 313 213 l 313 364 l 60 364 l 60 303 b 486 -17 60 89 210 -17 b 924 268 756 -17 924 83 b 672 489 924 397 860 474 l 449 506 b 319 613 357 514 319 544 l 319 683 b 485 800 319 761 361 800 z "},"Ѐ":{"ha":883,"x_min":0,"x_max":0,"o":"m 547 1015 l 479 1190 l 256 1190 l 256 1182 l 536 1015 z m 122 0 l 826 0 l 826 213 l 364 213 l 364 475 b 385 496 364 482 368 496 l 793 496 l 793 513 l 385 513 b 364 533 368 513 364 525 l 364 760 l 813 760 l 813 972 l 122 972 z "},"І":{"ha":486,"x_min":0,"x_max":0,"o":"m 122 0 l 364 0 l 364 972 l 122 972 z "},"Ї":{"ha":486,"x_min":0,"x_max":0,"o":"m 119 1032 b 213 1124 175 1032 213 1068 b 119 1215 213 1181 175 1215 b 26 1124 65 1215 26 1181 b 119 1032 26 1068 65 1032 z m 368 1032 b 460 1124 422 1032 460 1068 b 368 1215 460 1181 422 1215 b 275 1124 314 1215 275 1181 b 368 1032 275 1068 314 1032 z m 122 0 l 364 0 l 364 972 l 122 972 z "},"Ј":{"ha":922,"x_min":0,"x_max":0,"o":"m 814 299 l 814 972 l 160 972 l 160 956 l 554 956 b 575 935 569 956 575 949 l 575 293 b 438 172 575 213 528 172 b 296 286 347 172 296 211 l 296 414 l 65 414 l 65 272 b 435 -17 65 90 203 -17 b 814 299 683 -17 814 100 z "},"Ѝ":{"ha":1064,"x_min":0,"x_max":0,"o":"m 539 1015 l 471 1190 l 247 1190 l 247 1182 l 528 1015 z m 625 972 l 178 381 b 154 364 165 365 163 364 b 140 382 146 364 140 369 l 140 972 l 122 972 l 122 -26 l 136 -26 l 718 750 l 718 0 l 943 0 l 943 972 z "},"Ќ":{"ha":1001,"x_min":0,"x_max":0,"o":"m 508 1015 l 519 1015 l 799 1182 l 799 1190 l 576 1190 z m 122 0 l 358 0 l 358 486 b 375 503 358 492 361 503 l 439 503 l 740 0 l 994 0 l 681 515 l 997 972 l 743 972 l 439 519 l 375 519 b 358 536 361 519 358 529 l 358 972 l 122 972 z "},"Љ":{"ha":1356,"x_min":0,"x_max":0,"o":"m 457 790 l 663 0 l 1007 0 b 1319 314 1199 0 1319 124 b 982 607 1319 514 1186 607 l 742 607 l 643 972 l 281 972 l 14 0 l 249 0 z m 953 590 b 1074 467 1033 590 1074 551 l 1074 311 b 953 189 1074 239 1025 189 l 856 189 l 747 590 z "},"Њ":{"ha":1524,"x_min":0,"x_max":0,"o":"m 122 0 l 364 0 l 364 506 b 385 526 364 513 368 526 l 700 526 b 721 506 717 526 721 513 l 721 0 l 1176 0 b 1488 286 1367 0 1488 113 b 1150 550 1488 465 1351 550 l 985 550 b 964 571 968 550 964 563 l 964 972 l 721 972 l 721 564 b 700 543 721 556 717 543 l 385 543 b 364 564 368 543 364 556 l 364 972 l 122 972 z m 964 513 b 985 533 964 519 968 533 l 1121 533 b 1242 408 1201 533 1242 494 l 1242 311 b 1121 189 1242 239 1193 189 l 964 189 z "},"Ћ":{"ha":1210,"x_min":0,"x_max":0,"o":"m 322 0 l 565 0 l 565 371 b 725 463 565 432 621 463 b 872 300 833 463 872 413 l 872 0 l 1118 0 l 1118 326 b 850 615 1118 532 1025 615 b 565 421 710 615 592 546 l 565 760 l 860 760 l 860 972 l 29 972 l 29 760 l 322 760 z "},"Ў":{"ha":885,"x_min":0,"x_max":0,"o":"m 536 1028 b 776 1189 707 1028 776 1086 l 631 1189 l 631 1121 b 536 1042 631 1074 618 1042 b 442 1121 454 1042 442 1074 l 442 1189 l 296 1189 b 536 1028 296 1086 365 1028 z m 858 972 l 604 444 b 571 444 596 426 581 426 l 289 972 l 4 972 l 458 146 l 371 -35 l 392 -35 l 879 972 z "},"Џ":{"ha":1079,"x_min":0,"x_max":0,"o":"m 550 -278 l 550 -62 b 613 0 550 -24 574 0 l 958 0 l 958 972 l 715 972 l 715 213 l 364 213 l 364 972 l 122 972 l 122 0 l 468 0 b 531 -62 507 0 531 -24 l 531 -278 z "},"Ѣ":{"ha":983,"x_min":0,"x_max":0,"o":"m 176 0 l 636 0 b 947 281 826 0 947 111 b 633 543 947 456 824 543 l 440 543 b 419 564 424 543 419 556 l 419 675 l 631 675 l 631 864 l 419 864 l 419 989 l 176 989 l 176 864 l 29 864 l 29 675 l 176 675 z m 419 506 b 440 526 419 513 424 526 l 581 526 b 701 403 663 526 701 489 l 701 311 b 581 189 701 239 653 189 l 419 189 z "},"Ѳ":{"ha":1089,"x_min":0,"x_max":0,"o":"m 544 -17 b 1024 486 858 -17 1024 158 b 544 989 1024 815 858 989 b 65 486 231 989 65 814 b 544 -17 65 157 231 -17 z m 544 794 b 775 572 682 794 775 717 l 775 524 b 754 503 775 515 771 503 l 335 503 b 314 524 318 503 314 515 l 314 572 b 544 794 314 717 407 794 z m 314 465 b 335 486 314 472 318 486 l 754 486 b 775 465 771 486 775 472 l 775 407 b 544 178 775 257 690 178 b 314 407 399 178 314 257 z "},"Ѵ":{"ha":894,"x_min":0,"x_max":0,"o":"m 543 0 l 718 713 b 764 757 725 740 733 757 l 894 757 l 894 982 l 822 982 b 740 889 776 982 756 958 l 544 81 b 529 67 542 68 536 67 b 514 81 522 67 517 69 l 257 972 l 8 972 l 294 0 z "},"а":{"ha":822,"x_min":0,"x_max":0,"o":"m 60 506 l 268 506 l 268 529 b 397 619 268 590 314 619 b 525 524 485 619 525 589 l 525 521 b 321 397 525 447 494 418 b 49 182 103 372 49 304 b 269 -17 49 40 135 -17 b 525 174 383 -17 488 43 l 525 0 l 743 0 l 743 510 b 404 775 743 683 626 775 b 60 529 190 775 60 690 z m 271 199 l 271 268 b 404 393 271 343 311 369 b 525 461 475 410 510 426 l 525 279 b 378 88 525 110 457 88 b 271 199 306 88 271 122 z "},"б":{"ha":863,"x_min":0,"x_max":0,"o":"m 536 721 b 275 508 403 721 304 643 l 275 686 b 432 843 275 783 328 843 l 694 843 b 765 914 738 843 765 871 l 765 1069 l 751 1069 l 751 1057 b 732 1038 751 1043 746 1038 l 443 1026 b 58 590 208 1018 58 867 l 58 379 b 431 -17 58 122 196 -17 b 818 379 674 -17 818 131 b 536 721 818 608 710 721 z m 431 149 b 276 301 333 149 276 207 l 276 413 b 449 619 276 556 340 619 b 586 471 542 619 586 568 l 586 299 b 431 149 586 206 529 149 z "},"в":{"ha":818,"x_min":0,"x_max":0,"o":"m 90 0 l 522 0 b 779 200 679 0 779 81 b 535 389 779 321 714 381 b 756 568 696 401 756 467 b 529 760 756 685 667 760 l 90 760 z m 468 610 b 553 526 521 610 553 578 l 553 482 b 464 396 553 428 521 396 l 324 396 b 303 417 307 396 303 408 l 303 610 z m 303 361 b 324 382 303 368 307 382 l 467 382 b 561 296 528 382 561 349 l 561 246 b 471 160 561 192 528 160 l 303 160 z "},"г":{"ha":779,"x_min":0,"x_max":0,"o":"m 399 626 b 524 532 482 626 524 594 l 524 490 b 421 400 524 433 494 407 l 243 385 b 43 206 93 371 43 307 b 383 -17 43 60 156 -17 b 736 238 614 -17 736 67 l 736 267 l 524 267 l 524 232 b 383 132 524 167 476 132 b 256 228 299 132 256 165 l 256 283 b 354 381 256 344 283 372 l 526 396 b 732 558 674 408 732 450 b 394 775 732 700 614 775 b 56 528 174 775 56 693 l 56 497 l 265 497 l 265 529 b 399 626 265 590 310 626 z "},"д":{"ha":893,"x_min":0,"x_max":0,"o":"m 86 -25 l 86 -47 b 432 -294 86 -231 207 -294 b 803 -4 683 -294 803 -194 l 803 760 l 578 760 l 578 560 b 322 775 542 697 454 775 b 54 403 143 775 54 654 b 322 31 54 150 143 31 b 578 244 454 31 542 107 l 578 -12 b 432 -135 578 -99 535 -135 b 296 -47 332 -135 296 -106 l 296 -25 z m 294 292 l 294 514 b 422 672 294 625 336 672 b 578 403 526 672 578 613 b 422 133 578 190 526 133 b 294 292 336 133 294 181 z "},"е":{"ha":821,"x_min":0,"x_max":0,"o":"m 264 368 b 285 389 264 375 268 389 l 772 389 b 778 457 776 415 778 436 b 421 775 778 663 649 775 b 44 379 178 775 44 640 b 422 -17 44 117 175 -17 b 776 265 649 -17 776 93 l 776 281 l 569 281 l 569 258 b 422 149 569 188 518 149 b 264 301 318 149 264 197 z m 264 463 b 424 617 264 567 319 617 b 569 488 518 617 569 574 l 569 465 b 504 403 569 414 550 403 l 285 403 b 264 424 268 403 264 415 z "},"ё":{"ha":821,"x_min":0,"x_max":0,"o":"m 289 843 b 394 950 353 843 394 888 b 289 1056 394 1015 353 1056 b 182 950 225 1056 182 1015 b 289 843 182 888 225 843 z m 556 843 b 661 950 618 843 661 888 b 556 1056 661 1015 618 1056 b 447 950 493 1056 447 1015 b 556 843 447 888 493 843 z m 264 368 b 285 389 264 375 268 389 l 772 389 b 778 457 776 415 778 436 b 421 775 778 663 649 775 b 44 379 178 775 44 640 b 422 -17 44 117 175 -17 b 776 265 649 -17 776 93 l 776 281 l 569 281 l 569 258 b 422 149 569 188 518 149 b 264 301 318 149 264 197 z m 264 463 b 424 617 264 567 319 617 b 569 488 518 617 569 574 l 569 465 b 504 403 569 414 550 403 l 285 403 b 264 424 268 403 264 415 z "},"ж":{"ha":1156,"x_min":0,"x_max":0,"o":"m 472 0 l 682 0 l 682 389 b 692 399 682 392 685 399 l 724 399 l 918 0 l 1143 0 l 928 415 l 1143 760 l 921 760 l 724 413 l 692 413 b 682 422 685 413 682 418 l 682 760 l 472 760 l 472 422 b 463 413 472 418 471 413 l 431 413 l 235 760 l 13 760 l 228 404 l 11 0 l 231 0 l 431 399 l 463 399 b 472 389 471 399 472 392 z "},"з":{"ha":771,"x_min":0,"x_max":0,"o":"m 296 383 l 422 383 b 510 301 483 383 510 346 l 510 233 b 383 138 510 171 468 138 b 250 232 293 138 250 171 l 250 263 l 35 263 l 35 232 b 379 -17 35 64 157 -17 b 732 210 610 -17 732 64 b 461 389 732 342 636 389 b 718 556 633 388 718 447 b 393 775 718 696 604 775 b 43 521 165 775 43 678 l 43 497 l 251 497 l 251 522 b 385 621 251 583 294 621 b 507 525 465 621 507 588 l 507 476 b 422 397 507 426 482 397 l 296 397 z "},"и":{"ha":867,"x_min":0,"x_max":0,"o":"m 317 -17 b 551 186 425 -17 518 50 l 551 0 l 776 0 l 776 760 l 551 760 l 551 299 b 421 104 551 138 493 104 b 306 221 339 104 306 143 l 306 760 l 81 760 l 81 221 b 317 -17 81 49 175 -17 z "},"й":{"ha":867,"x_min":0,"x_max":0,"o":"m 435 838 b 675 999 606 838 675 896 l 529 999 l 529 931 b 435 851 529 883 517 851 b 340 931 353 851 340 883 l 340 999 l 194 999 b 435 838 194 896 264 838 z m 317 -17 b 551 186 425 -17 518 50 l 551 0 l 776 0 l 776 760 l 551 760 l 551 299 b 421 104 551 138 493 104 b 306 221 339 104 306 143 l 306 760 l 81 760 l 81 221 b 317 -17 81 49 175 -17 z "},"к":{"ha":838,"x_min":0,"x_max":0,"o":"m 90 0 l 315 0 l 315 385 b 329 399 315 394 319 399 l 369 399 l 588 0 l 832 0 l 594 414 l 832 760 l 593 760 l 369 413 l 329 413 b 315 426 319 413 315 418 l 315 760 l 90 760 z "},"л":{"ha":808,"x_min":0,"x_max":0,"o":"m 13 0 l 228 0 l 399 640 l 576 0 l 796 0 l 579 760 l 225 760 z "},"м":{"ha":1147,"x_min":0,"x_max":0,"o":"m 90 0 l 293 0 l 293 601 l 558 -12 l 575 -12 l 838 728 l 838 0 l 1057 0 l 1057 760 l 833 760 l 674 308 b 660 294 671 300 668 294 b 644 308 653 294 649 300 l 451 760 l 90 760 z "},"н":{"ha":882,"x_min":0,"x_max":0,"o":"m 90 0 l 315 0 l 315 374 b 336 394 315 381 319 394 l 546 394 b 567 374 563 394 567 381 l 567 0 l 792 0 l 792 760 l 567 760 l 567 429 b 546 408 567 421 563 408 l 336 408 b 315 429 319 408 315 421 l 315 760 l 90 760 z "},"о":{"ha":861,"x_min":0,"x_max":0,"o":"m 431 775 b 44 379 188 775 44 629 b 431 -17 44 128 188 -17 b 818 379 674 -17 818 131 b 431 775 818 631 674 775 z m 431 149 b 275 299 333 149 275 206 l 275 460 b 431 610 275 553 333 610 b 586 460 529 610 586 553 l 586 299 b 431 149 586 206 529 149 z "},"п":{"ha":857,"x_min":0,"x_max":0,"o":"m 90 0 l 300 0 l 300 582 l 557 582 l 557 0 l 767 0 l 767 760 l 90 760 z "},"р":{"ha":893,"x_min":0,"x_max":0,"o":"m 315 760 l 90 760 l 90 -278 l 315 -278 l 315 213 b 572 -17 351 65 440 -17 b 839 379 750 -17 839 111 b 572 775 839 647 750 775 b 315 547 440 775 351 693 z m 600 246 b 472 88 600 133 557 88 b 315 379 367 88 315 157 b 472 672 315 601 367 672 b 600 514 557 672 600 625 z "},"с":{"ha":833,"x_min":0,"x_max":0,"o":"m 789 457 l 789 474 b 429 775 789 671 646 775 b 44 379 178 775 44 638 b 429 -17 44 121 175 -17 b 789 286 651 -17 789 79 l 789 308 l 572 308 l 572 282 b 429 149 572 196 522 149 b 275 304 329 149 275 206 l 275 454 b 429 610 275 553 329 610 b 572 474 522 610 572 563 l 572 457 z "},"т":{"ha":1300,"x_min":0,"x_max":0,"o":"m 90 0 l 315 0 l 315 474 b 439 667 315 615 364 667 b 542 549 513 667 542 626 l 542 0 l 767 0 l 767 474 b 890 667 767 615 815 667 b 994 549 965 667 994 626 l 994 0 l 1218 0 l 1218 539 b 1000 775 1218 710 1131 775 b 765 576 892 775 797 703 b 549 775 753 719 669 775 b 315 586 443 775 350 707 l 315 760 l 90 760 z "},"у":{"ha":735,"x_min":0,"x_max":0,"o":"m 493 575 l 583 575 b 628 533 615 575 628 560 b 604 433 628 507 621 486 l 490 83 b 475 72 488 75 483 72 l 460 72 b 443 89 450 72 447 75 l 240 760 l 4 760 l 226 58 l 471 58 b 478 46 476 58 481 53 l 439 -71 b 410 -94 433 -89 425 -94 l 113 -94 l 113 -278 l 283 -278 b 456 -69 385 -278 397 -242 l 731 760 l 493 760 z "},"ф":{"ha":1117,"x_min":0,"x_max":0,"o":"m 454 -278 l 663 -278 l 663 0 l 683 0 b 1072 390 924 0 1072 156 b 708 760 1072 617 928 760 l 676 760 b 663 774 665 760 663 767 l 663 1042 l 454 1042 l 454 774 b 440 760 454 767 451 760 l 410 760 b 44 390 189 760 44 617 b 433 0 44 156 193 0 l 454 0 z m 454 732 l 454 183 l 419 183 b 264 349 322 183 264 240 l 264 593 b 408 746 264 689 317 746 l 440 746 b 454 732 451 746 454 736 z m 663 732 b 676 746 663 736 665 746 l 708 746 b 853 593 800 746 853 690 l 853 349 b 697 183 853 240 794 183 l 663 183 z "},"х":{"ha":683,"x_min":0,"x_max":0,"o":"m 679 0 l 446 413 b 446 444 439 425 439 432 l 642 760 l 622 760 l 443 469 b 429 460 439 463 435 460 b 415 469 422 460 419 463 l 253 760 l 4 760 l 225 369 b 225 338 232 357 232 350 l 14 0 l 33 0 l 228 313 b 243 324 233 321 236 324 b 257 313 249 324 253 321 l 431 0 z "},"ц":{"ha":872,"x_min":0,"x_max":0,"o":"m 90 0 l 783 0 b 832 -49 814 0 832 -18 l 832 -278 l 849 -278 l 849 183 l 757 183 l 757 760 l 544 760 l 544 183 l 303 183 l 303 760 l 90 760 z "},"ч":{"ha":839,"x_min":0,"x_max":0,"o":"m 67 760 l 67 446 b 297 235 67 296 146 235 b 531 382 421 235 511 283 l 531 0 l 749 0 l 749 760 l 531 760 l 531 428 b 400 360 531 376 496 360 b 288 465 321 360 288 392 l 288 760 z "},"ш":{"ha":1057,"x_min":0,"x_max":0,"o":"m 90 0 l 967 0 l 967 760 l 753 760 l 753 183 l 557 183 b 536 204 550 183 536 188 l 536 760 l 519 760 l 519 204 b 499 183 519 188 507 183 l 303 183 l 303 760 l 90 760 z "},"щ":{"ha":1081,"x_min":0,"x_max":0,"o":"m 90 0 l 992 0 b 1040 -49 1022 0 1040 -18 l 1040 -278 l 1057 -278 l 1057 183 l 967 183 l 967 760 l 753 760 l 753 183 l 557 183 b 536 204 550 183 536 188 l 536 760 l 519 760 l 519 204 b 499 183 519 188 507 183 l 303 183 l 303 760 l 90 760 z "},"ъ":{"ha":886,"x_min":0,"x_max":0,"o":"m 213 0 l 600 0 b 858 251 760 0 858 100 b 597 488 858 392 763 488 l 453 488 b 432 508 436 488 432 500 l 432 760 l 15 760 l 15 576 l 213 576 z m 432 453 b 453 474 432 460 436 474 l 564 474 b 656 388 622 474 656 442 l 656 260 b 564 171 656 204 621 171 l 432 171 z "},"ы":{"ha":1124,"x_min":0,"x_max":0,"o":"m 90 0 l 478 0 b 736 251 638 0 736 100 b 475 488 736 392 640 488 l 331 488 b 310 508 314 488 310 500 l 310 760 l 90 760 z m 810 0 l 1035 0 l 1035 760 l 810 760 z m 310 453 b 331 474 310 460 314 474 l 442 474 b 533 388 500 474 533 442 l 533 260 b 442 171 533 204 499 171 l 310 171 z "},"ь":{"ha":764,"x_min":0,"x_max":0,"o":"m 90 0 l 478 0 b 736 251 638 0 736 100 b 475 488 736 392 640 488 l 331 488 b 310 508 314 488 310 500 l 310 760 l 90 760 z m 310 453 b 331 474 310 460 314 474 l 442 474 b 533 388 500 474 533 442 l 533 260 b 442 171 533 204 499 171 l 310 171 z "},"э":{"ha":833,"x_min":0,"x_max":0,"o":"m 44 463 l 261 463 l 261 479 b 413 610 261 565 314 610 b 560 465 508 610 560 557 l 560 418 b 539 397 560 410 556 397 l 336 397 l 336 383 l 539 383 b 560 363 556 383 560 369 l 560 293 b 413 149 560 201 508 149 b 261 276 314 149 261 193 l 261 303 l 44 303 l 44 278 b 407 -17 44 75 182 -17 b 789 379 656 -17 789 121 b 414 775 789 640 658 775 b 44 474 190 775 44 669 z "},"ю":{"ha":1244,"x_min":0,"x_max":0,"o":"m 90 0 l 315 0 l 315 365 b 336 386 315 372 319 386 l 429 386 l 429 379 b 815 -17 429 128 574 -17 b 1201 379 1057 -17 1201 131 b 815 775 1201 631 1057 775 b 429 400 581 775 438 638 l 336 400 b 315 421 319 400 315 413 l 315 760 l 90 760 z m 815 149 b 661 299 718 149 661 206 l 661 460 b 815 610 661 553 718 610 b 969 460 913 610 969 553 l 969 299 b 815 149 969 206 913 149 z "},"я":{"ha":849,"x_min":0,"x_max":0,"o":"m 311 319 l 432 319 l 404 272 b 365 250 396 257 385 250 l 179 250 l 32 0 l 265 0 l 436 297 b 464 319 449 317 451 319 l 517 319 b 535 303 531 319 535 308 l 535 0 l 758 0 l 758 760 l 321 760 b 61 526 157 760 61 667 b 311 319 61 393 154 319 z m 517 333 l 369 333 b 278 422 313 333 278 367 l 278 499 b 374 588 278 556 313 588 l 535 588 l 535 351 b 517 333 535 344 531 333 z "},"ѓ":{"ha":779,"x_min":0,"x_max":0,"o":"m 371 831 l 382 831 l 660 1039 l 660 1047 l 439 1047 z m 399 626 b 524 532 482 626 524 594 l 524 490 b 421 400 524 433 494 407 l 243 385 b 43 206 93 371 43 307 b 383 -17 43 60 156 -17 b 736 238 614 -17 736 67 l 736 267 l 524 267 l 524 232 b 383 132 524 167 476 132 b 256 228 299 132 256 165 l 256 283 b 354 381 256 344 283 372 l 526 396 b 732 558 674 408 732 450 b 394 775 732 700 614 775 b 56 528 174 775 56 693 l 56 497 l 265 497 l 265 529 b 399 626 265 590 310 626 z "},"ґ":{"ha":686,"x_min":0,"x_max":0,"o":"m 90 0 l 300 0 l 300 576 l 651 576 l 651 903 l 635 903 l 635 808 b 586 760 635 778 617 760 l 90 760 z "},"ђ":{"ha":882,"x_min":0,"x_max":0,"o":"m 90 0 l 315 0 l 315 464 b 464 667 315 628 371 667 b 576 538 546 667 576 624 l 576 -229 b 542 -264 576 -253 565 -264 l 456 -264 l 456 -278 l 656 -278 b 800 -133 749 -278 800 -231 l 800 539 b 572 775 800 710 708 775 b 315 581 454 775 353 711 l 315 885 l 579 885 l 579 899 l 315 899 l 315 1042 l 90 1042 l 90 899 l 0 899 l 0 885 l 90 885 z "},"є":{"ha":833,"x_min":0,"x_max":0,"o":"m 506 383 l 506 397 l 296 397 b 275 418 279 397 275 410 l 275 454 b 429 610 275 553 329 610 b 572 474 522 610 572 563 l 572 457 l 789 457 l 789 474 b 429 775 789 671 646 775 b 44 379 178 775 44 638 b 429 -17 44 121 175 -17 b 789 286 651 -17 789 79 l 789 308 l 572 308 l 572 282 b 429 149 572 196 522 149 b 275 304 329 149 275 206 l 275 363 b 296 383 275 369 279 383 z "},"ѕ":{"ha":775,"x_min":0,"x_max":0,"o":"m 388 626 b 515 529 474 626 515 593 l 515 497 l 721 497 l 721 528 b 388 775 721 696 604 775 b 49 558 167 775 49 699 b 260 394 49 450 106 407 l 428 382 b 525 292 499 376 525 349 l 525 229 b 396 132 525 163 482 132 b 254 232 301 132 254 167 l 254 267 l 43 267 l 43 238 b 396 -17 43 64 165 -17 b 736 208 617 -17 736 63 b 540 386 736 308 688 374 l 365 399 b 258 481 289 406 258 428 l 258 533 b 388 626 258 594 303 626 z "},"ѐ":{"ha":821,"x_min":0,"x_max":0,"o":"m 443 832 l 375 1049 l 156 1049 l 156 1040 l 432 832 z m 264 368 b 285 389 264 375 268 389 l 772 389 b 778 457 776 415 778 436 b 421 775 778 663 649 775 b 44 379 178 775 44 640 b 422 -17 44 117 175 -17 b 776 265 649 -17 776 93 l 776 281 l 569 281 l 569 258 b 422 149 569 188 518 149 b 264 301 318 149 264 197 z m 264 463 b 424 617 264 567 319 617 b 569 488 518 617 569 574 l 569 465 b 504 403 569 414 550 403 l 285 403 b 264 424 268 403 264 415 z "},"і":{"ha":406,"x_min":0,"x_max":0,"o":"m 204 832 b 332 958 282 832 332 882 b 204 1083 332 1033 282 1083 b 75 958 126 1083 75 1033 b 204 832 75 882 126 832 z m 90 0 l 315 0 l 315 760 l 90 760 z "},"ї":{"ha":406,"x_min":0,"x_max":0,"o":"m 101 843 b 185 961 151 843 185 872 b 101 1079 185 1051 151 1079 b 17 961 51 1079 17 1051 b 101 843 17 872 51 843 z m 304 843 b 388 961 354 843 388 872 b 304 1079 388 1051 354 1079 b 219 961 256 1079 219 1051 b 304 843 219 872 256 843 z m 90 0 l 315 0 l 315 760 l 90 760 z "},"ј":{"ha":406,"x_min":0,"x_max":0,"o":"m 204 832 b 332 958 282 832 332 882 b 204 1083 332 1033 282 1083 b 75 958 126 1083 75 1033 b 204 832 75 882 126 832 z m 315 -133 l 315 760 l 90 760 l 90 -229 b 56 -264 90 -253 79 -264 l -29 -264 l -29 -278 l 171 -278 b 315 -133 264 -278 315 -231 z "},"ѝ":{"ha":867,"x_min":0,"x_max":0,"o":"m 463 832 l 394 1049 l 175 1049 l 175 1040 l 451 832 z m 317 -17 b 551 186 425 -17 518 50 l 551 0 l 776 0 l 776 760 l 551 760 l 551 299 b 421 104 551 138 493 104 b 306 221 339 104 306 143 l 306 760 l 81 760 l 81 221 b 317 -17 81 49 175 -17 z "},"ќ":{"ha":838,"x_min":0,"x_max":0,"o":"m 419 831 l 431 831 l 708 1039 l 708 1047 l 488 1047 z m 90 0 l 315 0 l 315 385 b 329 399 315 394 319 399 l 369 399 l 588 0 l 832 0 l 594 414 l 832 760 l 593 760 l 369 413 l 329 413 b 315 426 319 413 315 418 l 315 760 l 90 760 z "},"љ":{"ha":1133,"x_min":0,"x_max":0,"o":"m 13 0 l 228 0 l 396 636 l 572 0 l 847 0 b 1104 251 1007 0 1104 100 b 844 488 1104 392 1010 488 l 654 488 l 576 760 l 222 760 z m 811 474 b 903 388 868 474 903 442 l 903 260 b 811 171 903 204 868 171 l 743 171 l 657 474 z "},"њ":{"ha":1228,"x_min":0,"x_max":0,"o":"m 90 0 l 315 0 l 315 397 b 336 418 315 404 319 418 l 536 418 b 557 397 553 418 557 404 l 557 0 l 960 0 b 1200 224 1108 0 1200 89 b 947 439 1200 356 1110 439 l 801 439 b 781 460 785 439 781 451 l 781 760 l 557 760 l 557 453 b 536 432 557 444 553 432 l 336 432 b 315 453 319 432 315 444 l 315 760 l 90 760 z m 781 404 b 801 425 781 411 785 425 l 914 425 b 1003 336 971 425 1003 392 l 1003 246 b 914 160 1003 192 969 160 l 781 160 z "},"ћ":{"ha":882,"x_min":0,"x_max":0,"o":"m 90 0 l 315 0 l 315 464 b 464 667 315 628 371 667 b 576 538 546 667 576 624 l 576 0 l 800 0 l 800 539 b 572 775 800 710 708 775 b 315 581 454 775 353 711 l 315 885 l 579 885 l 579 899 l 315 899 l 315 1042 l 90 1042 l 90 899 l 0 899 l 0 885 l 90 885 z "},"ў":{"ha":735,"x_min":0,"x_max":0,"o":"m 388 838 b 628 999 558 838 628 896 l 482 999 l 482 931 b 388 851 482 883 469 851 b 293 931 306 851 293 883 l 293 999 l 147 999 b 388 838 147 896 217 838 z m 493 575 l 583 575 b 628 533 615 575 628 560 b 604 433 628 507 621 486 l 490 83 b 475 72 488 75 483 72 l 460 72 b 443 89 450 72 447 75 l 240 760 l 4 760 l 226 58 l 471 58 b 478 46 476 58 481 53 l 439 -71 b 410 -94 433 -89 425 -94 l 113 -94 l 113 -278 l 283 -278 b 456 -69 385 -278 397 -242 l 731 760 l 493 760 z "},"џ":{"ha":850,"x_min":0,"x_max":0,"o":"m 90 0 l 379 0 b 428 -49 410 0 428 -18 l 428 -278 l 444 -278 l 444 -49 b 493 0 444 -18 463 0 l 760 0 l 760 760 l 547 760 l 547 183 l 303 183 l 303 760 l 90 760 z "},"ѣ":{"ha":833,"x_min":0,"x_max":0,"o":"m 161 0 l 565 0 b 806 228 715 0 806 90 b 551 446 806 357 719 446 l 406 446 b 385 467 389 446 385 458 l 385 588 l 586 588 l 586 760 l 385 760 l 385 1042 l 161 1042 l 161 760 l 17 760 l 17 588 l 161 588 z m 385 411 b 406 432 385 418 389 432 l 518 432 b 610 346 575 432 610 400 l 610 247 b 518 160 610 193 575 160 l 385 160 z "},"ѳ":{"ha":861,"x_min":0,"x_max":0,"o":"m 431 775 b 44 379 188 775 44 629 b 431 -17 44 128 188 -17 b 818 379 674 -17 818 131 b 431 775 818 631 674 775 z m 275 411 l 275 460 b 431 610 275 553 333 610 b 586 460 529 610 586 553 l 586 411 b 565 390 586 403 582 390 l 296 390 b 275 411 279 390 275 403 z m 431 149 b 275 299 333 149 275 206 l 275 356 b 296 376 275 363 279 376 l 565 376 b 586 356 582 376 586 363 l 586 299 b 431 149 586 206 529 149 z "},"ѵ":{"ha":749,"x_min":0,"x_max":0,"o":"m 457 0 l 581 525 b 625 568 589 558 597 568 l 738 568 l 738 771 l 681 771 b 599 682 631 771 613 750 l 454 58 b 440 46 451 49 447 46 b 426 58 433 46 429 49 l 238 760 l 6 760 l 217 0 z "},"ʼ":{"ha":413,"x_min":0,"x_max":0,"o":"m 204 738 b 292 768 242 738 272 751 l 200 572 l 215 572 l 294 743 b 326 856 313 783 326 813 b 203 978 326 931 279 978 b 81 856 129 978 81 929 b 204 738 81 785 129 738 z "}}}
